<svg fill="none" xmlns="http://www.w3.org/2000/svg" viewBox="0 0 25 25">
  <path d="M7.25 0h10.5c4 0 7.25 3.25 7.25 7.25v10.5A7.25 7.25 0 0 1 17.75 25H7.25C3.25 25 0 21.75 0 17.75V7.25A7.25 7.25 0 0 1 7.25 0ZM7 2.5A4.5 4.5 0 0 0 2.5 7v11c0 2.488 2.013 4.5 4.5 4.5h11a4.5 4.5 0 0 0 4.5-4.5V7c0-2.487-2.012-4.5-4.5-4.5H7Zm12.063 1.875a1.563 1.563 0 1 1 0 3.125 1.563 1.563 0 0 1 0-3.125ZM12.5 6.25a6.25 6.25 0 1 1 0 12.5 6.25 6.25 0 0 1 0-12.5Zm0 2.5a3.75 3.75 0 1 0 0 7.5 3.75 3.75 0 0 0 0-7.5Z" fill="#1DA1F2"/>
</svg>
