<svg fill="none" xmlns="http://www.w3.org/2000/svg" viewBox="0 0 32 26">
  <path d="M7.87 14.573.64 12.343s-.864-.332-.586-1.084c.057-.155.173-.288.518-.514C2.176 9.685 30.213.142 30.213.142s.791-.252 1.258-.084c.116.034.22.096.301.18a.636.636 0 0 1 .164.3c.05.198.072.4.063.604-.002.176-.025.339-.042.594-.17 2.61-5.28 22.084-5.28 22.084s-.306 1.14-1.403 1.18a2.105 2.105 0 0 1-.788-.126c-.25-.091-.478-.23-.674-.41-2.15-1.75-9.579-6.48-11.22-7.52a.286.286 0 0 1-.135-.211c-.024-.108.102-.244.102-.244S25.497 5.598 25.842 4.454c.026-.088-.074-.132-.21-.093-.859.299-15.754 9.208-17.398 10.19a.834.834 0 0 1-.365.022Z" fill="#1DA1F2"/>
</svg>
