<svg fill="none" xmlns="http://www.w3.org/2000/svg" viewBox="0 0 59 59">
  <path d="M29.397 58.795c16.236 0 29.398-13.162 29.398-29.398C58.795 13.162 45.633 0 29.397 0 13.162 0 0 13.162 0 29.397c0 16.236 13.162 29.398 29.397 29.398Z" fill="#1DA1F2"/>
  <path d="M16.63 31.758c-1.003-.176-1.81-.68-2.445-1.466a5.933 5.933 0 0 1-.886-1.563c-.368-.93-.588-1.888-.5-2.898.113-1.29.669-2.357 1.663-3.176 1.247-1.028 2.691-1.453 4.3-1.289.683.07 1.318.298 1.87.719.675.515 1.053 1.218 1.221 2.035.161.782-.017 1.494-.537 2.105-.497.584-1.14.927-1.886 1.08-.457.093-.913.1-1.356-.081-.087-.036-.17-.083-.274-.134 0 .07-.002.122 0 .174.028.77.38 1.364.996 1.813.059.043.094.037.149-.003.25-.182.496-.371.758-.534.835-.518 1.738-.857 2.723-.92.744-.05 1.492-.041 2.239-.058.082-.002.166 0 .25 0 .018-.13.032-.243.05-.356.097-.629.32-1.221.536-1.814.341-.936.754-1.84 1.249-2.704a.325.325 0 0 0 .04-.197c-.035-.222-.09-.442-.13-.663-.242-1.355-.427-2.716-.33-4.099.039-.531.126-1.055.36-1.54.313-.643.83-.966 1.548-.957.498.006.957.165 1.396.379.964.47 1.79 1.131 2.563 1.864.08.077.143.095.253.051a9.355 9.355 0 0 1 4.404-.642 9.413 9.413 0 0 1 3.338.977c.087.043.144.039.222-.024.68-.548 1.395-1.042 2.183-1.422.573-.276 1.165-.49 1.813-.498.777-.01 1.363.386 1.626 1.119.235.659.25 1.344.202 2.03-.09 1.307-.369 2.58-.741 3.83-.093.314-.093.573.048.879.506 1.094.848 2.246 1.126 3.418.163.691.206 1.387.099 2.092-.179 1.169-.735 2.145-1.533 2.997-1.03 1.096-2.297 1.81-3.71 2.28-.393.13-.794.232-1.197.349.044.01.086.022.128.03 1.082.225 2.167.43 3.221.768.38.122.75.265 1.079.497.472.336.676.798.57 1.36-.075.392-.22.77-.34 1.153-.171.542-.546.907-1.04 1.163-.711.367-1.483.51-2.267.603-1.021.12-2.047.116-3.072.075a.273.273 0 0 0-.23.095 8.366 8.366 0 0 1-1.93 1.5c-1.484.846-3.092 1.262-4.786 1.378a14.512 14.512 0 0 1-3.591-.218c-1.999-.363-3.92-.961-5.7-1.962a.314.314 0 0 0-.21-.024 5.468 5.468 0 0 1-2.04.128c-1.486-.194-2.6-.969-3.381-2.237-.05-.082-.094-.089-.18-.064-.472.134-.942.276-1.419.388-.599.14-1.205.243-1.825.173-.485-.055-.896-.222-1.125-.699-.326-.678-.267-1.355-.02-2.035.263-.719.687-1.343 1.166-1.931.893-1.097 1.939-2.032 3.052-2.896.146-.113.294-.223.47-.356l-.23-.042Z" fill="#fff"/>
</svg>
