<svg fill="none" xmlns="http://www.w3.org/2000/svg" viewBox="0 0 1440 228">
  <path d="M0 36.128c561.2-48.069 876.384-48.273 1440 0V228H0V36.128Z" fill="#1DA1F2"/>
  <g clip-path="url(#a)">
    <path d="M657.397 143.795c16.236 0 29.398-13.162 29.398-29.398 0-16.235-13.162-29.397-29.398-29.397C641.162 85 628 98.162 628 114.397c0 16.236 13.162 29.398 29.397 29.398Z" fill="#fff"/>
    <path d="M644.629 116.758c-1.002-.176-1.809-.68-2.444-1.466a5.951 5.951 0 0 1-.886-1.563c-.368-.931-.588-1.888-.5-2.899.113-1.29.669-2.356 1.663-3.175 1.247-1.028 2.691-1.453 4.299-1.289.684.07 1.319.298 1.871.719.675.515 1.053 1.218 1.221 2.034.161.783-.017 1.495-.537 2.106-.497.584-1.14.927-1.886 1.079-.457.094-.913.101-1.356-.08-.087-.036-.171-.083-.274-.134 0 .07-.002.122 0 .174.028.771.38 1.364.996 1.813.059.043.094.037.149-.003.25-.182.496-.372.758-.534.835-.519 1.738-.857 2.722-.921.745-.049 1.493-.04 2.24-.057.082-.002.165 0 .25 0 .018-.129.032-.243.05-.356.097-.629.32-1.221.536-1.814.341-.936.754-1.84 1.249-2.704a.327.327 0 0 0 .041-.197c-.036-.223-.09-.442-.13-.663-.243-1.356-.428-2.716-.33-4.099.038-.532.125-1.055.36-1.539.312-.644.829-.968 1.547-.958.498.006.957.164 1.396.379.964.47 1.79 1.131 2.563 1.864.081.077.143.095.253.051a9.374 9.374 0 0 1 4.404-.643 9.437 9.437 0 0 1 3.338.978c.087.043.144.038.222-.024.679-.548 1.395-1.043 2.183-1.423.573-.276 1.165-.489 1.813-.497.777-.01 1.363.386 1.626 1.119.235.659.249 1.344.202 2.03-.091 1.306-.369 2.579-.741 3.831-.093.313-.093.572.048.877.506 1.094.848 2.247 1.126 3.418.163.692.206 1.388.099 2.093-.179 1.169-.735 2.145-1.533 2.996-1.03 1.097-2.297 1.811-3.711 2.28-.392.13-.794.233-1.197.35.045.01.087.022.129.03 1.082.224 2.167.43 3.221.768.38.121.75.264 1.079.497.473.336.676.798.569 1.36-.074.391-.218.77-.339 1.153-.171.542-.546.907-1.04 1.163-.711.367-1.484.51-2.267.602-1.021.121-2.047.117-3.072.075a.275.275 0 0 0-.231.096 8.332 8.332 0 0 1-1.93 1.499c-1.483.847-3.091 1.263-4.785 1.379a14.501 14.501 0 0 1-3.591-.218c-1.999-.363-3.919-.962-5.701-1.963a.313.313 0 0 0-.209-.023 5.465 5.465 0 0 1-2.04.128c-1.487-.194-2.6-.969-3.381-2.237-.051-.082-.094-.089-.18-.065-.472.135-.942.277-1.419.388-.599.14-1.205.244-1.825.174-.485-.056-.896-.223-1.125-.699-.326-.678-.267-1.356-.02-2.035.263-.719.687-1.343 1.166-1.932.892-1.096 1.939-2.031 3.052-2.895.146-.114.294-.224.469-.357a23.03 23.03 0 0 1-.229-.042l-.001.001Z" fill="#1DA1F2"/>
  </g>
  <path d="M704.377 129.397V104.19h9.176c2.812 0 4.974.516 6.486 1.547 1.512 1.032 2.268 2.485 2.268 4.36 0 1.359-.463 2.549-1.389 3.568-.914 1.02-2.086 1.729-3.516 2.127v.07c1.793.223 3.223.885 4.289 1.987 1.078 1.101 1.617 2.443 1.617 4.025 0 2.309-.826 4.143-2.478 5.502-1.652 1.348-3.908 2.021-6.768 2.021h-9.685Zm5.678-21.023v5.977h2.496c1.172 0 2.091-.282 2.759-.844.68-.574 1.02-1.36 1.02-2.356 0-1.851-1.383-2.777-4.148-2.777h-2.127Zm0 10.195v6.645h3.076c1.312 0 2.338-.305 3.076-.914.75-.61 1.125-1.442 1.125-2.496 0-1.008-.369-1.799-1.108-2.373-.726-.575-1.746-.862-3.058-.862h-3.111Zm31.851 10.828h-5.256v-2.584h-.07c-1.207 2.016-2.994 3.024-5.361 3.024-1.746 0-3.123-.492-4.131-1.477-.996-.996-1.494-2.32-1.494-3.972 0-3.492 2.068-5.508 6.205-6.047l4.886-.651c0-1.968-1.066-2.953-3.199-2.953-2.144 0-4.183.639-6.117 1.916v-4.183c.773-.399 1.828-.75 3.164-1.055 1.348-.305 2.572-.457 3.674-.457 5.133 0 7.699 2.561 7.699 7.682v10.757Zm-5.221-7.312v-1.213l-3.269.422c-1.805.234-2.707 1.049-2.707 2.443 0 .633.217 1.155.65 1.565.446.398 1.043.597 1.793.597 1.043 0 1.893-.357 2.549-1.072.656-.726.984-1.64.984-2.742Zm21.358-5.678c-.668-.363-1.447-.545-2.338-.545-1.207 0-2.15.446-2.83 1.336-.68.879-1.02 2.08-1.02 3.604v8.595h-5.554v-18h5.554v3.34h.071c.879-2.437 2.461-3.656 4.746-3.656.586 0 1.043.07 1.371.211v5.115Zm20.637 12.99h-6.663l-5.748-8.929h-.07v8.929h-5.555v-26.648h5.555v16.963h.07l5.362-8.315h6.592l-6.452 8.456 6.909 9.544Zm17.753-7.418h-11.742c.188 2.614 1.834 3.92 4.94 3.92 1.98 0 3.72-.468 5.22-1.406v4.008c-1.664.891-3.826 1.336-6.486 1.336-2.906 0-5.162-.803-6.767-2.408-1.606-1.617-2.409-3.867-2.409-6.75 0-2.989.868-5.356 2.602-7.102 1.734-1.746 3.867-2.619 6.398-2.619 2.625 0 4.653.779 6.082 2.338 1.442 1.558 2.162 3.674 2.162 6.346v2.337Zm-5.15-3.41c0-2.578-1.043-3.867-3.129-3.867-.89 0-1.664.369-2.32 1.108-.645.738-1.037 1.658-1.178 2.759h6.627Zm20.197-2.162c-.668-.363-1.447-.545-2.338-.545-1.207 0-2.15.446-2.83 1.336-.679.879-1.019 2.08-1.019 3.604v8.595h-5.555v-18h5.555v3.34h.07c.879-2.437 2.461-3.656 4.746-3.656.586 0 1.043.07 1.371.211v5.115ZM566.968 193.072a2.75 2.75 0 0 1-.432 1.52 3.068 3.068 0 0 1-1.168 1.04 3.433 3.433 0 0 1-1.584.368h-5.36v-11.36h5.472c.533 0 .992.144 1.376.432.395.277.693.64.896 1.088.213.437.32.896.32 1.376 0 .565-.144 1.088-.432 1.568-.288.48-.688.837-1.2 1.072.651.192 1.163.549 1.536 1.072.384.523.576 1.131.576 1.824Zm-1.12-.192c0-.384-.085-.736-.256-1.056a2.13 2.13 0 0 0-.704-.8 1.68 1.68 0 0 0-.992-.304h-4.352v4.304h4.24c.384 0 .731-.101 1.04-.304.309-.203.555-.464.736-.784.192-.331.288-.683.288-1.056Zm-6.304-7.264v4.192h3.904c.373 0 .704-.096.992-.288.288-.203.517-.464.688-.784a2.14 2.14 0 0 0 .256-1.024c0-.384-.08-.731-.24-1.04a2.008 2.008 0 0 0-.656-.768 1.618 1.618 0 0 0-.944-.288h-4Zm8.64 7.984c0-.523.15-.971.448-1.344.299-.384.71-.677 1.232-.88.534-.213 1.147-.32 1.84-.32.406 0 .827.032 1.264.096.438.064.827.16 1.168.288v-.704c0-.704-.208-1.264-.624-1.68-.416-.416-.992-.624-1.728-.624-.448 0-.89.085-1.328.256-.426.16-.874.4-1.344.72l-.416-.768a6.784 6.784 0 0 1 1.6-.832 4.608 4.608 0 0 1 1.6-.288c1.024 0 1.835.293 2.432.88.598.587.896 1.397.896 2.432v3.856c0 .149.032.261.096.336.064.064.166.101.304.112V196a9.543 9.543 0 0 0-.304.032.548.548 0 0 1-.192 0c-.266-.011-.469-.096-.608-.256a.856.856 0 0 1-.224-.512l-.016-.608c-.373.48-.858.853-1.456 1.12a4.588 4.588 0 0 1-1.824.384 3.15 3.15 0 0 1-1.456-.336 2.745 2.745 0 0 1-1.008-.928 2.498 2.498 0 0 1-.352-1.296Zm5.584.64c.118-.149.208-.293.272-.432a.898.898 0 0 0 .096-.368v-1.216a6.594 6.594 0 0 0-2.304-.432c-.778 0-1.408.155-1.888.464-.48.309-.72.731-.72 1.264 0 .309.08.603.24.88.16.267.395.491.704.672.31.171.672.256 1.088.256.523 0 1.008-.101 1.456-.304.459-.203.811-.464 1.056-.784Zm7.967-5.616c-.725.021-1.365.224-1.92.608-.544.384-.928.912-1.152 1.584V196h-1.088v-8.336h1.024v2a3.984 3.984 0 0 1 1.136-1.424c.48-.363.987-.565 1.52-.608.107-.011.197-.016.272-.016.085 0 .155.005.208.016v.992Zm7.401 7.376-3.088-4.272-1.776 1.664V196h-1.088v-11.68h1.088v7.904l4.72-4.544h1.2l-3.408 3.408L590.32 196h-1.184Zm5.695.16a4.107 4.107 0 0 1-1.664-.336 4.246 4.246 0 0 1-1.328-.944 4.615 4.615 0 0 1-.88-1.392 4.623 4.623 0 0 1-.304-1.68c0-.779.176-1.493.528-2.144a4.16 4.16 0 0 1 1.488-1.552c.63-.395 1.344-.592 2.144-.592.822 0 1.536.197 2.144.592a4.196 4.196 0 0 1 1.456 1.568 4.31 4.31 0 0 1 .528 2.112v.256a.741.741 0 0 1-.016.176h-7.136c.054.597.219 1.131.496 1.6.288.459.656.827 1.104 1.104.459.267.955.4 1.488.4.544 0 1.056-.139 1.536-.416.491-.277.832-.64 1.024-1.088l.944.256a3.11 3.11 0 0 1-.784 1.072c-.352.32-.768.571-1.248.752a4.405 4.405 0 0 1-1.52.256Zm-3.072-4.72h6.16c-.042-.608-.208-1.141-.496-1.6a2.948 2.948 0 0 0-1.104-1.072 2.851 2.851 0 0 0-1.488-.4c-.544 0-1.04.133-1.488.4a3.082 3.082 0 0 0-1.104 1.088 3.506 3.506 0 0 0-.48 1.584Zm13.023-2.816c-.725.021-1.365.224-1.92.608-.544.384-.928.912-1.152 1.584V196h-1.088v-8.336h1.024v2a3.984 3.984 0 0 1 1.136-1.424c.48-.363.987-.565 1.52-.608.107-.011.197-.016.272-.016.085 0 .155.005.208.016v.992Zm10.608 7.488a6.239 6.239 0 0 1-2.352-.432 5.683 5.683 0 0 1-1.872-1.216 5.768 5.768 0 0 1-1.232-1.84 6.027 6.027 0 0 1-.432-2.304c0-.821.144-1.584.432-2.288a5.58 5.58 0 0 1 1.232-1.824 5.683 5.683 0 0 1 1.872-1.216 6.239 6.239 0 0 1 2.352-.432c.843 0 1.622.144 2.336.432a5.663 5.663 0 0 1 1.872 1.216c.534.512.944 1.12 1.232 1.824.299.704.448 1.467.448 2.288 0 .832-.149 1.6-.448 2.304a5.414 5.414 0 0 1-1.232 1.84 5.663 5.663 0 0 1-1.872 1.216 6.189 6.189 0 0 1-2.336.432Zm0-.576c.982 0 1.867-.219 2.656-.656a4.84 4.84 0 0 0 1.888-1.824c.47-.789.704-1.696.704-2.72 0-.736-.133-1.419-.4-2.048a4.818 4.818 0 0 0-1.104-1.648 4.897 4.897 0 0 0-1.664-1.088 5.269 5.269 0 0 0-2.08-.4c-.757 0-1.456.133-2.096.4a5.12 5.12 0 0 0-1.664 1.088 5.154 5.154 0 0 0-1.104 1.648 5.265 5.265 0 0 0-.384 2.032c0 .736.128 1.424.384 2.064a5.154 5.154 0 0 0 1.104 1.648c.47.469 1.024.837 1.664 1.104.64.267 1.339.4 2.096.4Zm-2.448-8.816h3.056c.427 0 .8.112 1.12.336.32.224.571.512.752.864.192.352.288.715.288 1.088 0 .341-.069.667-.208.976-.138.299-.33.555-.576.768a1.819 1.819 0 0 1-.864.416l1.776 2.8h-.928l-1.696-2.688h-1.872v2.688h-.848v-7.248Zm3.056 3.824c.427 0 .752-.149.976-.448.235-.299.352-.661.352-1.088 0-.448-.133-.811-.4-1.088a1.265 1.265 0 0 0-.992-.432h-2.144v3.056h2.208Zm10.799-.304c0-.693.117-1.371.352-2.032a5.985 5.985 0 0 1 1.056-1.824 4.906 4.906 0 0 1 1.696-1.312c.672-.331 1.435-.496 2.288-.496 1.013 0 1.877.235 2.592.704.725.459 1.259 1.051 1.6 1.776l-.88.544c-.245-.501-.555-.896-.928-1.184a3.53 3.53 0 0 0-1.2-.64 4.224 4.224 0 0 0-1.248-.192c-.683 0-1.285.139-1.808.416a3.978 3.978 0 0 0-1.328 1.088 4.817 4.817 0 0 0-.8 1.52 5.436 5.436 0 0 0-.272 1.696c0 .629.107 1.232.32 1.808.213.576.512 1.088.896 1.536.384.437.832.789 1.344 1.056a3.805 3.805 0 0 0 1.696.384 4.144 4.144 0 0 0 2.56-.912c.395-.309.709-.709.944-1.2l.928.48a3.597 3.597 0 0 1-1.088 1.44 5.265 5.265 0 0 1-1.648.896 5.446 5.446 0 0 1-1.76.304 4.66 4.66 0 0 1-2.144-.496 5.75 5.75 0 0 1-1.696-1.344 6.417 6.417 0 0 1-1.088-1.888 6.186 6.186 0 0 1-.384-2.128Zm15.049 5.92a4.103 4.103 0 0 1-1.664-.336 4.282 4.282 0 0 1-1.312-.944 4.544 4.544 0 0 1-.848-1.376 4.513 4.513 0 0 1-.304-1.648c0-.597.101-1.152.304-1.664.202-.523.49-.981.864-1.376a3.96 3.96 0 0 1 1.312-.944 3.938 3.938 0 0 1 1.664-.352c.597 0 1.146.117 1.648.352a3.98 3.98 0 0 1 1.312.944c.373.395.661.853.864 1.376.202.512.304 1.067.304 1.664 0 .576-.102 1.125-.304 1.648a4.418 4.418 0 0 1-.864 1.376c-.363.395-.8.709-1.312.944a4.036 4.036 0 0 1-1.664.336Zm-3.024-4.288c0 .619.133 1.184.4 1.696.277.501.645.901 1.104 1.2.458.288.965.432 1.52.432.554 0 1.061-.149 1.52-.448a3.304 3.304 0 0 0 1.104-1.216 3.568 3.568 0 0 0 .416-1.696c0-.619-.139-1.184-.416-1.696a3.304 3.304 0 0 0-1.104-1.216 2.727 2.727 0 0 0-1.52-.448 2.66 2.66 0 0 0-1.52.464c-.448.309-.811.72-1.088 1.232-.278.501-.416 1.067-.416 1.696Zm13.243 4.288a3.345 3.345 0 0 1-1.872-.544 4.213 4.213 0 0 1-1.296-1.344v5.136h-1.088v-11.744h.976v1.616a3.781 3.781 0 0 1 1.328-1.264 3.41 3.41 0 0 1 1.776-.496c.576 0 1.104.123 1.584.368.48.235.896.555 1.248.96.352.405.624.869.816 1.392a4.3 4.3 0 0 1 .304 1.6c0 .779-.16 1.499-.48 2.16a3.923 3.923 0 0 1-1.312 1.568c-.565.395-1.226.592-1.984.592Zm-.304-.96c.459 0 .87-.091 1.232-.272a2.93 2.93 0 0 0 .928-.768c.267-.32.47-.677.608-1.072.139-.405.208-.821.208-1.248 0-.448-.08-.875-.24-1.28a3.153 3.153 0 0 0-.656-1.072 3.33 3.33 0 0 0-.992-.736 2.747 2.747 0 0 0-1.216-.272c-.277 0-.565.053-.864.16a3.425 3.425 0 0 0-.864.464 3.06 3.06 0 0 0-.672.656 1.764 1.764 0 0 0-.336.784v2.56c.171.395.4.752.688 1.072a3.6 3.6 0 0 0 .992.752 2.75 2.75 0 0 0 1.184.272Zm6.122 3.36c.149.011.293.016.432.016a.84.84 0 0 0 .304-.016.651.651 0 0 0 .368-.224c.117-.128.256-.373.416-.736.16-.363.384-.896.672-1.6l-3.632-8.336h1.152l3.056 7.216 2.816-7.216h1.088l-4.32 10.752a1.794 1.794 0 0 1-.336.56c-.149.181-.336.32-.56.416-.213.107-.48.165-.8.176a1.403 1.403 0 0 1-.304 0c-.096 0-.213-.011-.352-.032v-.976Zm12.352-9.936c-.725.021-1.365.224-1.92.608-.544.384-.928.912-1.152 1.584V196h-1.088v-8.336h1.024v2a3.984 3.984 0 0 1 1.136-1.424c.48-.363.987-.565 1.52-.608.107-.011.197-.016.272-.016.085 0 .155.005.208.016v.992Zm1.449 7.376v-8.336h1.088V196h-1.088Zm0-10.08v-1.6h1.088v1.6h-1.088Zm6.829 10.192a3.515 3.515 0 0 1-1.568-.352 4.023 4.023 0 0 1-1.248-.944 4.637 4.637 0 0 1-.8-1.376 4.476 4.476 0 0 1-.288-1.584c0-.587.09-1.136.272-1.648.192-.523.458-.987.8-1.392.352-.405.762-.72 1.232-.944a3.452 3.452 0 0 1 1.568-.352c.714 0 1.333.181 1.856.544.533.363.981.811 1.344 1.344v-1.744h.976v8.368c0 .768-.187 1.413-.56 1.936a3.326 3.326 0 0 1-1.488 1.2c-.619.267-1.296.4-2.032.4-.95 0-1.718-.171-2.304-.512a4.221 4.221 0 0 1-1.44-1.376l.672-.528c.33.523.768.912 1.312 1.168a4.147 4.147 0 0 0 1.76.384c.544 0 1.04-.101 1.488-.304a2.4 2.4 0 0 0 1.088-.88c.277-.395.416-.891.416-1.488v-1.648c-.32.523-.758.944-1.312 1.264a3.535 3.535 0 0 1-1.744.464Zm.304-.912c.33 0 .645-.059.944-.176a3.43 3.43 0 0 0 .848-.464c.256-.203.469-.427.64-.672.17-.245.277-.496.32-.752v-2.576a3.25 3.25 0 0 0-.688-1.072 3.139 3.139 0 0 0-1.024-.736 2.65 2.65 0 0 0-1.168-.272 2.6 2.6 0 0 0-1.264.304 2.84 2.84 0 0 0-.928.784 3.76 3.76 0 0 0-.576 1.088 3.728 3.728 0 0 0-.208 1.216c0 .448.08.875.24 1.28.16.395.378.752.656 1.072.288.309.618.549.992.72.384.171.789.256 1.216.256Zm13.25.8h-1.088v-4.656c0-.939-.165-1.643-.496-2.112-.33-.48-.805-.72-1.424-.72-.405 0-.81.107-1.216.32a3.48 3.48 0 0 0-1.056.848 3.18 3.18 0 0 0-.64 1.216V196h-1.088v-11.68h1.088v5.232a3.816 3.816 0 0 1 1.376-1.472 3.537 3.537 0 0 1 1.904-.56c.48 0 .886.085 1.216.256.342.171.614.421.816.752.214.32.368.699.464 1.136.096.427.144.912.144 1.456V196Zm6.242-.4a6.5 6.5 0 0 0-.4.176 3.622 3.622 0 0 1-1.488.32c-.309 0-.602-.059-.88-.176a1.478 1.478 0 0 1-.64-.528c-.16-.245-.24-.544-.24-.896v-5.968h-1.152v-.864h1.152v-2.816h1.088v2.816h1.92v.864h-1.92v5.664c.022.299.128.523.32.672.203.149.432.224.688.224.299 0 .571-.048.816-.144.246-.107.395-.181.448-.224l.288.88Zm4.942.4c0-.363.032-.725.096-1.088.064-.373.187-.741.368-1.104.181-.363.448-.709.8-1.04.352-.341.816-.661 1.392-.96.309-.16.629-.315.96-.464.331-.16.64-.331.928-.512.299-.192.533-.405.704-.64.181-.245.272-.533.272-.864 0-.267-.08-.528-.24-.784-.149-.256-.384-.464-.704-.624-.309-.16-.699-.24-1.168-.24-.341 0-.651.048-.928.144a2.98 2.98 0 0 0-.736.368 3.378 3.378 0 0 0-.544.432c-.149.139-.272.256-.368.352l-.688-.752a5.438 5.438 0 0 1 1.072-.864 4.947 4.947 0 0 1 1.04-.464 4.389 4.389 0 0 1 1.328-.192c.651 0 1.205.117 1.664.352.469.224.827.528 1.072.912.245.384.368.8.368 1.248 0 .437-.096.816-.288 1.136a2.897 2.897 0 0 1-.72.816 6.38 6.38 0 0 1-.912.592c-.309.16-.592.299-.848.416a8.93 8.93 0 0 0-1.264.704 3.996 3.996 0 0 0-.816.72 3.413 3.413 0 0 0-.48.704 2.714 2.714 0 0 0-.224.704h5.728V196h-6.864Zm16.552-4.688c0 .939-.176 1.776-.528 2.512-.342.725-.816 1.296-1.424 1.712a3.57 3.57 0 0 1-2.064.624 3.57 3.57 0 0 1-2.064-.624c-.598-.416-1.072-.987-1.424-1.712-.352-.736-.528-1.573-.528-2.512 0-.939.176-1.771.528-2.496.352-.736.826-1.312 1.424-1.728a3.504 3.504 0 0 1 2.064-.64c.768 0 1.456.213 2.064.64.608.416 1.082.992 1.424 1.728.352.725.528 1.557.528 2.496Zm-1.104 0c0-.757-.123-1.424-.368-2-.246-.576-.587-1.024-1.024-1.344a2.45 2.45 0 0 0-1.52-.496c-.576 0-1.083.165-1.52.496-.438.32-.784.768-1.04 1.344-.246.576-.368 1.243-.368 2 0 .757.122 1.424.368 2 .256.576.602 1.024 1.04 1.344.437.32.944.48 1.52.48.576 0 1.082-.16 1.52-.48.437-.331.778-.779 1.024-1.344.245-.576.368-1.243.368-2Zm2.693 4.688c0-.363.032-.725.096-1.088a3.723 3.723 0 0 1 1.168-2.144c.352-.341.816-.661 1.392-.96.309-.16.629-.315.96-.464.33-.16.64-.331.928-.512.298-.192.533-.405.704-.64.181-.245.272-.533.272-.864 0-.267-.08-.528-.24-.784-.15-.256-.384-.464-.704-.624-.31-.16-.699-.24-1.169-.24-.341 0-.65.048-.927.144a2.963 2.963 0 0 0-.736.368 3.335 3.335 0 0 0-.544.432c-.15.139-.272.256-.368.352l-.688-.752a5.438 5.438 0 0 1 1.072-.864 4.924 4.924 0 0 1 1.04-.464 4.389 4.389 0 0 1 1.328-.192c.65 0 1.205.117 1.664.352.469.224.826.528 1.072.912.245.384.368.8.368 1.248 0 .437-.096.816-.288 1.136a2.929 2.929 0 0 1-.72.816 6.38 6.38 0 0 1-.912.592c-.31.16-.592.299-.848.416a8.874 8.874 0 0 0-1.264.704 3.943 3.943 0 0 0-1.296 1.424 2.676 2.676 0 0 0-.224.704h5.728V196h-6.864Zm13.127-3.776c.48.075.891.245 1.232.512.342.267.608.603.8 1.008.192.405.288.864.288 1.376 0 .64-.154 1.205-.464 1.696a3.056 3.056 0 0 1-1.296 1.136c-.554.267-1.2.4-1.936.4-.81 0-1.52-.165-2.128-.496a3.224 3.224 0 0 1-1.376-1.344l.752-.688c.235.459.582.827 1.04 1.104.459.288 1.03.432 1.712.432.79 0 1.414-.197 1.872-.592.47-.384.704-.939.704-1.664s-.245-1.301-.736-1.728c-.48-.437-1.168-.656-2.064-.656h-.4v-.928h.432c.822 0 1.451-.192 1.888-.576.438-.384.656-.875.656-1.472 0-.437-.101-.8-.304-1.088a1.89 1.89 0 0 0-.832-.656 2.935 2.935 0 0 0-1.184-.224c-.608 0-1.146.139-1.616.416-.458.267-.805.64-1.04 1.12l-.704-.672c.182-.373.443-.699.784-.976a3.71 3.71 0 0 1 1.2-.64c.459-.16.95-.24 1.472-.24.662 0 1.243.123 1.744.368.502.235.896.565 1.184.992.288.427.432.928.432 1.504 0 .427-.085.821-.256 1.184-.17.363-.416.667-.736.912a2.427 2.427 0 0 1-1.12.48Zm8.177-.08v-1.008h4.672v1.008h-4.672Zm14.232-7.504h.944l4.72 11.36h-1.184l-1.472-3.552h-5.104L753.376 196h-1.2l4.752-11.36Zm2.752 6.928-2.288-5.616-2.32 5.616h4.608Zm4.365-7.248h1.088v9.792c0 .416.075.688.224.816a.807.807 0 0 0 .544.192c.192 0 .384-.021.576-.064a6.57 6.57 0 0 0 .496-.128l.192.88a3.583 3.583 0 0 1-.752.208 4.24 4.24 0 0 1-.752.08c-.491 0-.885-.144-1.184-.432-.288-.288-.432-.683-.432-1.184v-10.16Zm4.359 0h1.088v9.792c0 .416.075.688.224.816a.81.81 0 0 0 .544.192c.192 0 .384-.021.576-.064.192-.043.358-.085.496-.128l.192.88a3.566 3.566 0 0 1-.752.208 4.23 4.23 0 0 1-.752.08c-.49 0-.885-.144-1.184-.432-.288-.288-.432-.683-.432-1.184v-10.16Zm8.129 11.68v-11.36h4.8c.491 0 .939.101 1.344.304.406.203.758.48 1.056.832.31.341.544.725.704 1.152.171.416.256.843.256 1.28 0 .544-.106 1.056-.32 1.536-.202.48-.496.885-.88 1.216a2.836 2.836 0 0 1-1.328.656l2.784 4.384h-1.264l-2.672-4.192h-3.36V196h-1.12Zm1.12-5.184h3.712c.448 0 .838-.123 1.168-.368.331-.245.587-.565.768-.96.182-.405.272-.832.272-1.28 0-.459-.106-.88-.32-1.264a2.458 2.458 0 0 0-.832-.944 1.927 1.927 0 0 0-1.152-.368h-3.616v5.184Zm9.031 5.184v-8.336h1.088V196h-1.088Zm0-10.08v-1.6h1.088v1.6h-1.088Zm6.829 10.192a3.515 3.515 0 0 1-1.568-.352 4.023 4.023 0 0 1-1.248-.944 4.637 4.637 0 0 1-.8-1.376 4.476 4.476 0 0 1-.288-1.584c0-.587.09-1.136.272-1.648.192-.523.458-.987.8-1.392.352-.405.762-.72 1.232-.944a3.452 3.452 0 0 1 1.568-.352c.714 0 1.333.181 1.856.544.533.363.981.811 1.344 1.344v-1.744h.976v8.368c0 .768-.187 1.413-.56 1.936a3.326 3.326 0 0 1-1.488 1.2c-.619.267-1.296.4-2.032.4-.95 0-1.718-.171-2.304-.512a4.221 4.221 0 0 1-1.44-1.376l.672-.528c.33.523.768.912 1.312 1.168a4.147 4.147 0 0 0 1.76.384c.544 0 1.04-.101 1.488-.304a2.4 2.4 0 0 0 1.088-.88c.277-.395.416-.891.416-1.488v-1.648c-.32.523-.758.944-1.312 1.264a3.535 3.535 0 0 1-1.744.464Zm.304-.912c.33 0 .645-.059.944-.176a3.43 3.43 0 0 0 .848-.464c.256-.203.469-.427.64-.672.17-.245.277-.496.32-.752v-2.576a3.25 3.25 0 0 0-.688-1.072 3.139 3.139 0 0 0-1.024-.736 2.65 2.65 0 0 0-1.168-.272 2.6 2.6 0 0 0-1.264.304 2.84 2.84 0 0 0-.928.784 3.76 3.76 0 0 0-.576 1.088 3.728 3.728 0 0 0-.208 1.216c0 .448.08.875.24 1.28.16.395.378.752.656 1.072.288.309.618.549.992.72.384.171.789.256 1.216.256Zm13.25.8h-1.088v-4.656c0-.939-.165-1.643-.496-2.112-.33-.48-.805-.72-1.424-.72-.405 0-.81.107-1.216.32a3.48 3.48 0 0 0-1.056.848 3.18 3.18 0 0 0-.64 1.216V196h-1.088v-11.68h1.088v5.232a3.816 3.816 0 0 1 1.376-1.472 3.537 3.537 0 0 1 1.904-.56c.48 0 .886.085 1.216.256.342.171.614.421.816.752.214.32.368.699.464 1.136.096.427.144.912.144 1.456V196Zm6.242-.4a6.5 6.5 0 0 0-.4.176 3.622 3.622 0 0 1-1.488.32c-.309 0-.602-.059-.88-.176a1.478 1.478 0 0 1-.64-.528c-.16-.245-.24-.544-.24-.896v-5.968h-1.152v-.864h1.152v-2.816h1.088v2.816h1.92v.864h-1.92v5.664c.022.299.128.523.32.672.203.149.432.224.688.224.299 0 .571-.048.816-.144.246-.107.395-.181.448-.224l.288.88Zm4.096.56a5.29 5.29 0 0 1-1.904-.336 3.984 3.984 0 0 1-1.52-1.024l.448-.768c.469.437.938.757 1.408.96.48.192.986.288 1.52.288.65 0 1.178-.128 1.584-.384.405-.267.608-.645.608-1.136 0-.331-.102-.581-.304-.752-.192-.181-.475-.325-.848-.432-.363-.117-.8-.24-1.312-.368a11.349 11.349 0 0 1-1.456-.496c-.384-.181-.678-.405-.88-.672-.192-.277-.288-.635-.288-1.072 0-.544.133-.992.4-1.344.277-.363.65-.635 1.12-.816a4.272 4.272 0 0 1 1.6-.288c.64 0 1.205.101 1.696.304.49.203.89.485 1.2.848l-.528.736a2.694 2.694 0 0 0-1.072-.752 3.47 3.47 0 0 0-1.36-.256 3.27 3.27 0 0 0-.976.144c-.31.085-.566.235-.768.448-.192.203-.288.485-.288.848 0 .299.074.533.224.704.149.16.373.299.672.416.298.107.666.224 1.104.352a17.14 17.14 0 0 1 1.648.528c.469.171.832.395 1.088.672.256.277.384.667.384 1.168 0 .779-.294 1.387-.88 1.824-.587.437-1.36.656-2.32.656Zm9.3-.16v-11.36h4.8c.491 0 .939.101 1.344.304.406.203.758.48 1.056.832.31.341.544.725.704 1.152.171.416.256.843.256 1.28 0 .544-.106 1.056-.32 1.536-.202.48-.496.885-.88 1.216a2.836 2.836 0 0 1-1.328.656l2.784 4.384h-1.264l-2.672-4.192h-3.36V196h-1.12Zm1.12-5.184h3.712c.448 0 .838-.123 1.168-.368.331-.245.587-.565.768-.96.182-.405.272-.832.272-1.28 0-.459-.106-.88-.32-1.264a2.458 2.458 0 0 0-.832-.944 1.927 1.927 0 0 0-1.152-.368h-3.616v5.184Zm12.459 5.344a4.107 4.107 0 0 1-1.664-.336 4.246 4.246 0 0 1-1.328-.944 4.615 4.615 0 0 1-.88-1.392 4.623 4.623 0 0 1-.304-1.68c0-.779.176-1.493.528-2.144a4.16 4.16 0 0 1 1.488-1.552c.63-.395 1.344-.592 2.144-.592.822 0 1.536.197 2.144.592a4.196 4.196 0 0 1 1.456 1.568 4.31 4.31 0 0 1 .528 2.112v.256a.741.741 0 0 1-.016.176h-7.136c.054.597.219 1.131.496 1.6.288.459.656.827 1.104 1.104.459.267.955.4 1.488.4.544 0 1.056-.139 1.536-.416.491-.277.832-.64 1.024-1.088l.944.256a3.11 3.11 0 0 1-.784 1.072c-.352.32-.768.571-1.248.752a4.405 4.405 0 0 1-1.52.256Zm-3.072-4.72h6.16c-.042-.608-.208-1.141-.496-1.6a2.948 2.948 0 0 0-1.104-1.072 2.851 2.851 0 0 0-1.488-.4c-.544 0-1.04.133-1.488.4a3.082 3.082 0 0 0-1.104 1.088 3.506 3.506 0 0 0-.48 1.584Zm11.599 4.72a5.294 5.294 0 0 1-1.904-.336 3.992 3.992 0 0 1-1.52-1.024l.448-.768c.469.437.939.757 1.408.96.48.192.987.288 1.52.288.651 0 1.179-.128 1.584-.384.405-.267.608-.645.608-1.136 0-.331-.101-.581-.304-.752-.192-.181-.475-.325-.848-.432-.363-.117-.8-.24-1.312-.368a11.403 11.403 0 0 1-1.456-.496c-.384-.181-.677-.405-.88-.672-.192-.277-.288-.635-.288-1.072 0-.544.133-.992.4-1.344a2.508 2.508 0 0 1 1.12-.816 4.272 4.272 0 0 1 1.6-.288c.64 0 1.205.101 1.696.304.491.203.891.485 1.2.848l-.528.736a2.694 2.694 0 0 0-1.072-.752 3.467 3.467 0 0 0-1.36-.256c-.341 0-.667.048-.976.144a1.637 1.637 0 0 0-.768.448c-.192.203-.288.485-.288.848 0 .299.075.533.224.704.149.16.373.299.672.416.299.107.667.224 1.104.352a17.05 17.05 0 0 1 1.648.528c.469.171.832.395 1.088.672.256.277.384.667.384 1.168 0 .779-.293 1.387-.88 1.824-.587.437-1.36.656-2.32.656Zm8.598 0a4.107 4.107 0 0 1-1.664-.336 4.246 4.246 0 0 1-1.328-.944 4.615 4.615 0 0 1-.88-1.392 4.623 4.623 0 0 1-.304-1.68c0-.779.176-1.493.528-2.144a4.16 4.16 0 0 1 1.488-1.552c.63-.395 1.344-.592 2.144-.592.822 0 1.536.197 2.144.592a4.196 4.196 0 0 1 1.456 1.568 4.31 4.31 0 0 1 .528 2.112v.256a.741.741 0 0 1-.016.176h-7.136c.054.597.219 1.131.496 1.6.288.459.656.827 1.104 1.104.459.267.955.4 1.488.4.544 0 1.056-.139 1.536-.416.491-.277.832-.64 1.024-1.088l.944.256a3.11 3.11 0 0 1-.784 1.072c-.352.32-.768.571-1.248.752a4.405 4.405 0 0 1-1.52.256Zm-3.072-4.72h6.16c-.042-.608-.208-1.141-.496-1.6a2.948 2.948 0 0 0-1.104-1.072 2.851 2.851 0 0 0-1.488-.4c-.544 0-1.04.133-1.488.4a3.082 3.082 0 0 0-1.104 1.088 3.506 3.506 0 0 0-.48 1.584Zm13.023-2.816c-.725.021-1.365.224-1.92.608-.544.384-.928.912-1.152 1.584V196H863.2v-8.336h1.024v2a3.984 3.984 0 0 1 1.136-1.424c.48-.363.987-.565 1.52-.608.107-.011.197-.016.272-.016.085 0 .155.005.208.016v.992Zm3.929 7.376-3.376-8.336h1.136l2.848 7.248 2.864-7.248h1.072L872.457 196h-1.168Zm9.37.16a4.107 4.107 0 0 1-1.664-.336 4.246 4.246 0 0 1-1.328-.944 4.615 4.615 0 0 1-.88-1.392 4.623 4.623 0 0 1-.304-1.68c0-.779.176-1.493.528-2.144a4.16 4.16 0 0 1 1.488-1.552c.63-.395 1.344-.592 2.144-.592.822 0 1.536.197 2.144.592a4.196 4.196 0 0 1 1.456 1.568 4.31 4.31 0 0 1 .528 2.112v.256a.741.741 0 0 1-.016.176h-7.136c.054.597.219 1.131.496 1.6.288.459.656.827 1.104 1.104.459.267.955.4 1.488.4.544 0 1.056-.139 1.536-.416.491-.277.832-.64 1.024-1.088l.944.256a3.11 3.11 0 0 1-.784 1.072c-.352.32-.768.571-1.248.752a4.405 4.405 0 0 1-1.52.256Zm-3.072-4.72h6.16c-.042-.608-.208-1.141-.496-1.6a2.948 2.948 0 0 0-1.104-1.072 2.851 2.851 0 0 0-1.488-.4c-.544 0-1.04.133-1.488.4a3.082 3.082 0 0 0-1.104 1.088 3.506 3.506 0 0 0-.48 1.584Zm8.303.416c0-.789.16-1.509.48-2.16a4.112 4.112 0 0 1 1.36-1.584 3.397 3.397 0 0 1 1.968-.592c.693 0 1.312.187 1.856.56a4.04 4.04 0 0 1 1.296 1.328v-5.088h1.088v10.368c0 .149.032.261.096.336.064.064.16.101.288.112V196a2.2 2.2 0 0 1-.496.032.876.876 0 0 1-.592-.272c-.171-.171-.256-.357-.256-.56v-.816a3.65 3.65 0 0 1-1.344 1.296c-.565.32-1.152.48-1.76.48a3.656 3.656 0 0 1-1.6-.352 4.112 4.112 0 0 1-1.264-.96 4.747 4.747 0 0 1-.832-1.376 4.65 4.65 0 0 1-.288-1.616Zm6.96 1.28v-2.576a2.819 2.819 0 0 0-.672-1.04 3.465 3.465 0 0 0-1.056-.752 2.556 2.556 0 0 0-1.152-.288 2.56 2.56 0 0 0-1.216.288 2.912 2.912 0 0 0-.944.752c-.256.32-.453.683-.592 1.088a3.818 3.818 0 0 0 .016 2.528c.16.405.384.768.672 1.088.288.309.619.549.992.72.373.171.779.256 1.216.256.277 0 .565-.053.864-.16.299-.107.581-.251.848-.432.277-.192.507-.416.688-.672.181-.256.293-.523.336-.8Z" fill="#fff"/>
  <defs>
    <clipPath id="a">
      <path fill="#fff" d="M628 85h58.795v58.795H628z"/>
    </clipPath>
  </defs>
</svg>
