<svg fill="none" xmlns="http://www.w3.org/2000/svg" viewBox="0 0 372 780">
  <path d="M282.648 189.097c-29.264 0-59.082 34.096-59.082 67.561 0 .309 0 .617.03.925.018 2.841.27 5.676.753 8.476l.086.425c0 .042.102.493.113.538a31.938 31.938 0 0 0 2.211 6.359c.223.54.475 1.069.752 1.583.395.752.794 1.505 1.267 2.257.474.752.952 1.478 1.343 1.997.375.551.786 1.077 1.23 1.575 5.163 6.1 12.552 9.597 20.273 9.597a26.072 26.072 0 0 0 16.546-5.927 22.59 22.59 0 0 1 11.428-5.215 24.152 24.152 0 0 1 6.055 0 22.718 22.718 0 0 1 11.601 5.302 26.022 26.022 0 0 0 16.448 5.848c8.247 0 15.941-3.893 21.059-10.605.248-.312.497-.666.606-.835.312-.44.624-.872 1.053-1.527.428-.726.861-1.485 1.293-2.309.192-.376.376-.786.512-1.071a32.013 32.013 0 0 0 2.545-7.055l.11-.523.116-.568c.474-2.753.726-5.54.752-8.333.023-.308.03-.617.03-.925-.034-33.454-29.866-67.55-59.13-67.55Zm49.906 75.962a23.775 23.775 0 0 1-1.944 5.314l-.407.865a56.367 56.367 0 0 1-.943 1.699c-.245.425-.508.734-.858 1.226l-.316.437c-3.561 4.67-8.811 7.351-14.403 7.351a17.567 17.567 0 0 1-11.059-3.907 31.118 31.118 0 0 0-15.84-7.152 30.84 30.84 0 0 0-8.322 0 30.998 30.998 0 0 0-15.677 7.081 17.648 17.648 0 0 1-11.154 3.986c-5.234 0-10.277-2.411-13.854-6.634a9.368 9.368 0 0 1-.752-.955 25.09 25.09 0 0 1-1.053-1.557c-.376-.598-.677-1.199-1.086-1.978a3.153 3.153 0 0 1-.211-.443 5.03 5.03 0 0 0-.211-.516 23.094 23.094 0 0 1-1.666-4.693l-.139-.677a42.021 42.021 0 0 1-.62-7.126c0-.169 0-.568-.03-.729 0-28.731 26.03-59.119 50.639-59.119s50.654 30.396 50.654 59.126v.23a4.643 4.643 0 0 0-.03.5c0 2.388-.204 4.772-.609 7.126l-.109.545Z" fill="#1DA1F2"/>
  <path d="M332.538 265.063a23.77 23.77 0 0 1-1.93 5.31l-.406.865a55.364 55.364 0 0 1-.944 1.7c-.244.425-.507.733-.857 1.226l-.316.436c-3.561 4.67-8.811 7.352-14.403 7.352a17.574 17.574 0 0 1-11.059-3.908 31.135 31.135 0 0 0-15.84-7.152 30.84 30.84 0 0 0-8.322 0 30.998 30.998 0 0 0-15.677 7.081 17.648 17.648 0 0 1-11.154 3.986c-5.235 0-10.278-2.41-13.854-6.633a9.38 9.38 0 0 1-.752-.956 25.375 25.375 0 0 1-1.053-1.556c-.376-.598-.677-1.2-1.087-1.978a3.213 3.213 0 0 1-.21-.444 4.922 4.922 0 0 0-.211-.515 23.124 23.124 0 0 1-1.666-4.694l-.139-.676a41.94 41.94 0 0 1-.62-7.127c0-.169 0-.567-.03-.729 0-28.731 26.03-59.119 50.639-59.119s50.654 30.396 50.654 59.126v.23a4.18 4.18 0 0 0-.03.5c0 2.388-.204 4.772-.609 7.126l-.124.549ZM215.108 163.77c-11.658 0-21.108 11.364-21.108 25.327 0 13.963 9.469 25.331 21.108 25.331 11.639 0 21.104-11.364 21.104-25.331 0-13.966-9.469-25.327-21.104-25.327Zm0 42.212c-6.983 0-12.666-7.574-12.666-16.885 0-9.311 5.683-16.873 12.666-16.873 6.983 0 12.661 7.577 12.661 16.884 0 9.308-5.667 16.874-12.661 16.874Z" fill="#1DA1F2"/>
  <path d="M227.77 189.097c0 9.311-5.678 16.885-12.662 16.885-6.983 0-12.665-7.574-12.665-16.885 0-9.311 5.682-16.873 12.665-16.873 6.984 0 12.662 7.566 12.662 16.873ZM257.32 130c-11.638 0-21.107 11.361-21.107 25.327 0 13.967 9.469 25.327 21.107 25.327 11.639 0 21.104-11.36 21.104-25.327 0-13.966-9.465-25.327-21.104-25.327Zm0 42.212c-6.983 0-12.665-7.574-12.665-16.885 0-9.311 5.682-16.885 12.665-16.885 6.984 0 12.662 7.578 12.662 16.885 0 9.307-5.678 16.896-12.662 16.896v-.011Z" fill="#1DA1F2"/>
  <path d="M269.982 155.328c0 9.311-5.678 16.884-12.661 16.884-6.984 0-12.654-7.573-12.654-16.884s5.682-16.885 12.665-16.885c6.983 0 12.65 7.577 12.65 16.885ZM307.975 130c-11.657 0-21.104 11.361-21.104 25.327 0 13.967 9.465 25.327 21.104 25.327s21.108-11.36 21.108-25.327c0-13.966-9.469-25.327-21.108-25.327Zm0 42.212c-6.983 0-12.662-7.574-12.662-16.885 0-9.311 5.679-16.885 12.662-16.885 6.983 0 12.654 7.578 12.654 16.885 0 9.307-5.671 16.896-12.654 16.896v-.011Z" fill="#1DA1F2"/>
  <path d="M320.628 155.328c0 9.311-5.682 16.884-12.665 16.884-6.983 0-12.662-7.573-12.662-16.884s5.679-16.885 12.662-16.885c6.983 0 12.665 7.577 12.665 16.885ZM350.186 163.77c-11.635 0-21.104 11.364-21.104 25.327 0 13.963 9.469 25.331 21.104 25.331s21.108-11.364 21.108-25.331c0-13.966-9.469-25.327-21.108-25.327Zm0 42.212c-6.983 0-12.662-7.574-12.662-16.885 0-9.311 5.667-16.873 12.662-16.873 6.995 0 12.665 7.577 12.665 16.884 0 9.308-5.682 16.874-12.665 16.874Z" fill="#1DA1F2"/>
  <path d="M362.852 189.097c0 9.311-5.682 16.885-12.665 16.885-6.984 0-12.662-7.574-12.662-16.885 0-9.311 5.667-16.873 12.662-16.873 6.994 0 12.665 7.566 12.665 16.873Z" fill="#1DA1F2"/>
  <path d="M266.274 242.929c-1.279-.224-2.307-.865-3.117-1.865-.486-.6-.846-1.274-1.13-1.988-.469-1.184-.749-2.402-.637-3.687.144-1.642.853-2.998 2.12-4.04 1.591-1.308 3.432-1.848 5.482-1.639.872.088 1.681.378 2.385.914.861.655 1.343 1.549 1.557 2.588.206.995-.022 1.901-.685 2.679-.634.743-1.454 1.179-2.404 1.372-.583.119-1.165.128-1.729-.102-.112-.046-.218-.105-.35-.17 0 .089-.002.155 0 .221.036.981.484 1.735 1.27 2.307.075.054.12.047.19-.004.319-.231.632-.473.966-.68 1.065-.659 2.217-1.089 3.472-1.171.95-.062 1.903-.052 2.855-.073.106-.002.211 0 .32 0 .023-.164.04-.309.063-.453.124-.8.408-1.553.683-2.308a22.284 22.284 0 0 1 1.593-3.439.413.413 0 0 0 .052-.251c-.045-.283-.115-.561-.166-.843-.309-1.724-.545-3.455-.421-5.214.049-.676.16-1.342.459-1.958.398-.82 1.058-1.231 1.974-1.219.634.008 1.219.21 1.78.482 1.228.598 2.282 1.439 3.267 2.372.103.098.183.121.323.065a11.955 11.955 0 0 1 5.615-.818c1.498.142 2.913.574 4.256 1.243.111.056.184.05.283-.03.866-.697 1.779-1.326 2.784-1.809.731-.352 1.485-.623 2.312-.634.99-.012 1.738.492 2.072 1.424.301.838.318 1.71.258 2.583-.115 1.662-.47 3.281-.945 4.873-.118.398-.118.728.062 1.116.645 1.392 1.081 2.858 1.435 4.348a6.9 6.9 0 0 1 .127 2.662c-.229 1.487-.937 2.729-1.956 3.812-1.312 1.395-2.927 2.302-4.73 2.9-.5.165-1.013.296-1.526.445l.164.039c1.379.285 2.762.546 4.107.976.484.154.956.336 1.375.633.603.426.863 1.014.726 1.729-.095.498-.278.98-.433 1.466-.218.69-.695 1.155-1.326 1.48-.907.467-1.891.649-2.89.767-1.302.153-2.61.148-3.917.095a.345.345 0 0 0-.294.122 10.677 10.677 0 0 1-2.461 1.907c-1.891 1.077-3.942 1.606-6.102 1.754a18.53 18.53 0 0 1-4.578-.278c-2.549-.462-4.998-1.223-7.269-2.496a.404.404 0 0 0-.268-.03 7 7 0 0 1-2.601.163c-1.895-.247-3.315-1.233-4.31-2.845-.065-.106-.12-.114-.23-.083-.601.171-1.2.352-1.809.494-.763.178-1.537.31-2.327.22-.618-.07-1.142-.283-1.434-.889-.416-.862-.341-1.724-.025-2.588.334-.915.875-1.709 1.486-2.458 1.138-1.394 2.472-2.584 3.891-3.683.186-.144.375-.284.599-.453l-.293-.054v.001Z" fill="#fff"/>
  <path d="M0 28.584C0 12.796 12.797 0 28.584 0h313.833C358.203 0 371 12.797 371 28.584c0 15.786-12.797 28.583-28.583 28.583H28.584C12.797 57.167 0 44.37 0 28.583Z" fill="#1DA1F2"/>
  <path d="M50.12 23.9h1.32l2 5.04 2.02-5.04h1.34l-2.48 6.06 2.72 6.42 5.14-12.58h1.52L57.68 38h-1.24l-2.98-7.02-3 7.02h-1.22l-6-14.2h1.5l5.16 12.58 2.7-6.42-2.48-6.06ZM74.178 38h-1.36v-5.82c0-1.173-.207-2.053-.62-2.64-.413-.6-1.007-.9-1.78-.9-.507 0-1.013.133-1.52.4a4.328 4.328 0 0 0-1.32 1.06c-.373.44-.64.947-.8 1.52V38h-1.36V23.4h1.36v6.54a4.76 4.76 0 0 1 1.72-1.84c.747-.467 1.54-.7 2.38-.7.6 0 1.107.107 1.52.32.427.213.767.527 1.02.94.267.4.46.873.58 1.42.12.533.18 1.14.18 1.82V38Zm2.06-3c0-.653.187-1.213.56-1.68.373-.48.887-.847 1.54-1.1.667-.267 1.434-.4 2.3-.4.507 0 1.033.04 1.58.12.547.08 1.033.2 1.46.36v-.88c0-.88-.26-1.58-.78-2.1s-1.24-.78-2.16-.78c-.56 0-1.113.107-1.66.32-.533.2-1.093.5-1.68.9l-.52-.96c.68-.467 1.347-.813 2-1.04.653-.24 1.32-.36 2-.36 1.28 0 2.293.367 3.04 1.1.747.733 1.12 1.747 1.12 3.04v4.82c0 .187.04.327.12.42.08.08.207.127.38.14V38c-.147.013-.273.027-.38.04a.707.707 0 0 1-.24 0c-.333-.013-.587-.12-.76-.32a1.063 1.063 0 0 1-.28-.64l-.02-.76a4.669 4.669 0 0 1-1.82 1.4c-.746.32-1.507.48-2.28.48-.666 0-1.273-.14-1.82-.42a3.415 3.415 0 0 1-1.26-1.16 3.112 3.112 0 0 1-.44-1.62Zm6.98.8c.147-.187.26-.367.34-.54.08-.173.12-.327.12-.46v-1.52a8.271 8.271 0 0 0-2.88-.54c-.973 0-1.76.193-2.36.58-.6.387-.9.913-.9 1.58 0 .387.1.753.3 1.1.2.333.494.613.88.84.387.213.84.32 1.36.32.653 0 1.26-.127 1.82-.38.574-.253 1.014-.58 1.32-.98Zm9.68 1.7c-.106.04-.273.113-.5.22a4.502 4.502 0 0 1-1.86.4c-.386 0-.753-.073-1.1-.22a1.849 1.849 0 0 1-.8-.66c-.2-.307-.3-.68-.3-1.12v-7.46h-1.44v-1.08h1.44v-3.52h1.36v3.52h2.4v1.08h-2.4v7.08c.027.373.16.653.4.84.254.187.54.28.86.28.374 0 .714-.06 1.02-.18.307-.133.494-.227.56-.28l.36 1.1Zm5.957-2.5c0-.653.187-1.213.56-1.68.374-.48.887-.847 1.54-1.1.667-.267 1.434-.4 2.3-.4.507 0 1.034.04 1.58.12.547.08 1.034.2 1.46.36v-.88c0-.88-.26-1.58-.78-2.1s-1.24-.78-2.16-.78c-.56 0-1.113.107-1.66.32-.533.2-1.093.5-1.68.9l-.52-.96c.68-.467 1.347-.813 2-1.04.654-.24 1.32-.36 2-.36 1.28 0 2.294.367 3.04 1.1.747.733 1.12 1.747 1.12 3.04v4.82c0 .187.04.327.12.42.08.08.207.127.38.14V38c-.146.013-.273.027-.38.04a.708.708 0 0 1-.24 0c-.333-.013-.586-.12-.76-.32a1.068 1.068 0 0 1-.28-.64l-.02-.76c-.466.6-1.073 1.067-1.82 1.4-.746.32-1.506.48-2.28.48-.666 0-1.273-.14-1.82-.42a3.417 3.417 0 0 1-1.26-1.16 3.112 3.112 0 0 1-.44-1.62Zm6.98.8a2.74 2.74 0 0 0 .34-.54c.08-.173.12-.327.12-.46v-1.52a8.249 8.249 0 0 0-2.88-.54c-.973 0-1.76.193-2.36.58-.6.387-.9.913-.9 1.58 0 .387.1.753.3 1.1.2.333.494.613.88.84.387.213.84.32 1.36.32.654 0 1.26-.127 1.82-.38.574-.253 1.014-.58 1.32-.98Zm9.859 2.4a4.332 4.332 0 0 1-2.26-.62c-.694-.427-1.234-.96-1.62-1.6V38h-1.22V23.4h1.36v6.36a5.82 5.82 0 0 1 1.68-1.7c.653-.44 1.413-.66 2.28-.66.733 0 1.386.153 1.96.46a4.66 4.66 0 0 1 1.5 1.24c.413.507.726 1.087.94 1.74.213.64.32 1.3.32 1.98 0 .733-.127 1.42-.38 2.06a5.407 5.407 0 0 1-1.04 1.72c-.454.493-.98.887-1.58 1.18-.587.28-1.234.42-1.94.42Zm-.32-1.2c.56 0 1.08-.113 1.56-.34.48-.227.893-.54 1.24-.94.346-.4.613-.847.8-1.34.186-.507.28-1.027.28-1.56 0-.733-.16-1.42-.48-2.06a3.833 3.833 0 0 0-1.3-1.56c-.547-.4-1.194-.6-1.94-.6a3.23 3.23 0 0 0-1.5.36c-.454.24-.86.56-1.22.96a5.492 5.492 0 0 0-.86 1.28v3.24c.053.36.193.7.42 1.02.226.307.506.573.84.8.346.227.706.407 1.08.54.373.133.733.2 1.08.2Zm12.004 1.2a5.13 5.13 0 0 1-2.08-.42 5.355 5.355 0 0 1-1.64-1.18 5.69 5.69 0 0 1-1.06-1.72 5.634 5.634 0 0 1-.38-2.06c0-.747.126-1.44.38-2.08a5.212 5.212 0 0 1 1.08-1.72 4.946 4.946 0 0 1 1.64-1.18 4.931 4.931 0 0 1 2.08-.44c.746 0 1.433.147 2.06.44.626.28 1.173.673 1.64 1.18a5.245 5.245 0 0 1 1.08 1.72c.253.64.38 1.333.38 2.08 0 .72-.127 1.407-.38 2.06a5.537 5.537 0 0 1-1.08 1.72c-.454.493-1 .887-1.64 1.18-.627.28-1.32.42-2.08.42Zm-3.78-5.36c0 .773.166 1.48.5 2.12a4.144 4.144 0 0 0 1.38 1.5 3.5 3.5 0 0 0 1.9.54c.693 0 1.326-.187 1.9-.56a4.117 4.117 0 0 0 1.38-1.52c.346-.653.52-1.36.52-2.12 0-.773-.174-1.48-.52-2.12a4.117 4.117 0 0 0-1.38-1.52 3.412 3.412 0 0 0-1.9-.56c-.694 0-1.327.193-1.9.58a4.35 4.35 0 0 0-1.36 1.54c-.347.627-.52 1.333-.52 2.12Zm11.134.86v-6.12h1.36v5.88c0 1.187.2 2.073.6 2.66.413.587 1.02.88 1.82.88.533 0 1.047-.113 1.54-.34a4.25 4.25 0 0 0 1.34-1c.387-.44.68-.947.88-1.52v-6.56h1.36v8.78c0 .187.04.327.12.42.08.08.2.127.36.14V38a4.86 4.86 0 0 1-.38.02c-.093.013-.18.02-.26.02a1.171 1.171 0 0 1-.7-.32.997.997 0 0 1-.3-.68l-.04-1.4a4.934 4.934 0 0 1-1.86 1.88 4.894 4.894 0 0 1-2.52.68c-1.093 0-1.92-.38-2.48-1.14-.56-.76-.84-1.88-.84-3.36Zm16.975 3.8c-.107.04-.273.113-.5.22a4.513 4.513 0 0 1-1.86.4c-.387 0-.753-.073-1.1-.22a1.85 1.85 0 0 1-.8-.66c-.2-.307-.3-.68-.3-1.12v-7.46h-1.44v-1.08h1.44v-3.52h1.36v3.52h2.4v1.08h-2.4v7.08c.027.373.16.653.4.84.253.187.54.28.86.28.373 0 .713-.06 1.02-.18.307-.133.493-.227.56-.28l.36 1.1Zm11.797 0c-.107.04-.273.113-.5.22a4.513 4.513 0 0 1-1.86.4c-.387 0-.753-.073-1.1-.22a1.85 1.85 0 0 1-.8-.66c-.2-.307-.3-.68-.3-1.12v-7.46h-1.44v-1.08h1.44v-3.52h1.36v3.52h2.4v1.08h-2.4v7.08c.027.373.16.653.4.84.253.187.54.28.86.28.373 0 .713-.06 1.02-.18.307-.133.493-.227.56-.28l.36 1.1Zm10.459.5h-1.36v-5.82c0-1.173-.207-2.053-.62-2.64-.413-.6-1.007-.9-1.78-.9-.507 0-1.013.133-1.52.4a4.337 4.337 0 0 0-1.32 1.06c-.373.44-.64.947-.8 1.52V38h-1.36V23.4h1.36v6.54a4.76 4.76 0 0 1 1.72-1.84c.747-.467 1.54-.7 2.38-.7.6 0 1.107.107 1.52.32a2.47 2.47 0 0 1 1.02.94c.267.4.46.873.58 1.42.12.533.18 1.14.18 1.82V38Zm7.4.2c-.746 0-1.44-.14-2.08-.42a5.301 5.301 0 0 1-1.66-1.18 5.775 5.775 0 0 1-1.1-1.74 5.764 5.764 0 0 1-.38-2.1c0-.973.22-1.867.66-2.68a5.208 5.208 0 0 1 1.86-1.94c.787-.493 1.68-.74 2.68-.74 1.027 0 1.92.247 2.68.74a5.243 5.243 0 0 1 1.82 1.96c.44.8.66 1.68.66 2.64v.32a.914.914 0 0 1-.02.22h-8.92c.067.747.274 1.413.62 2 .36.573.82 1.033 1.38 1.38.574.333 1.194.5 1.86.5.68 0 1.32-.173 1.92-.52.614-.347 1.04-.8 1.28-1.36l1.18.32c-.213.493-.54.94-.98 1.34-.44.4-.96.713-1.56.94-.586.213-1.22.32-1.9.32Zm-3.84-5.9h7.7c-.053-.76-.26-1.427-.62-2a3.685 3.685 0 0 0-1.38-1.34c-.56-.333-1.18-.5-1.86-.5-.68 0-1.3.167-1.86.5-.56.32-1.02.773-1.38 1.36-.346.573-.546 1.233-.6 1.98Zm25.95-7.26h-5.06V38h-1.4V25.04h-5.06V23.8h11.52v1.24Zm4.041 13.16c-.746 0-1.44-.14-2.08-.42a5.38 5.38 0 0 1-1.64-1.18 5.73 5.73 0 0 1-1.06-1.72 5.655 5.655 0 0 1-.38-2.06c0-.747.127-1.44.38-2.08a5.245 5.245 0 0 1 1.08-1.72 4.966 4.966 0 0 1 1.64-1.18 4.935 4.935 0 0 1 2.08-.44c.747 0 1.434.147 2.06.44.627.28 1.174.673 1.64 1.18a5.212 5.212 0 0 1 1.08 1.72c.254.64.38 1.333.38 2.08 0 .72-.126 1.407-.38 2.06a5.5 5.5 0 0 1-1.08 1.72 5.06 5.06 0 0 1-1.64 1.18c-.626.28-1.32.42-2.08.42Zm-3.78-5.36c0 .773.167 1.48.5 2.12a4.161 4.161 0 0 0 1.38 1.5c.574.36 1.207.54 1.9.54.694 0 1.327-.187 1.9-.56a4.1 4.1 0 0 0 1.38-1.52 4.45 4.45 0 0 0 .52-2.12c0-.773-.173-1.48-.52-2.12a4.1 4.1 0 0 0-1.38-1.52 3.408 3.408 0 0 0-1.9-.56c-.693 0-1.326.193-1.9.58-.56.387-1.013.9-1.36 1.54-.346.627-.52 1.333-.52 2.12ZM222.409 38l-3.86-5.34-2.22 2.08V38h-1.36V23.4h1.36v9.88l5.9-5.68h1.5l-4.26 4.26 4.42 6.14h-1.48Zm7.118.2c-.746 0-1.44-.14-2.08-.42a5.301 5.301 0 0 1-1.66-1.18 5.775 5.775 0 0 1-1.1-1.74 5.764 5.764 0 0 1-.38-2.1c0-.973.22-1.867.66-2.68a5.208 5.208 0 0 1 1.86-1.94c.787-.493 1.68-.74 2.68-.74 1.027 0 1.92.247 2.68.74a5.243 5.243 0 0 1 1.82 1.96c.44.8.66 1.68.66 2.64v.32a.914.914 0 0 1-.02.22h-8.92c.067.747.274 1.413.62 2 .36.573.82 1.033 1.38 1.38.574.333 1.194.5 1.86.5.68 0 1.32-.173 1.92-.52.614-.347 1.04-.8 1.28-1.36l1.18.32c-.213.493-.54.94-.98 1.34-.44.4-.96.713-1.56.94-.586.213-1.22.32-1.9.32Zm-3.84-5.9h7.7c-.053-.76-.26-1.427-.62-2a3.685 3.685 0 0 0-1.38-1.34c-.56-.333-1.18-.5-1.86-.5-.68 0-1.3.167-1.86.5-.56.32-1.02.773-1.38 1.36-.346.573-.546 1.233-.6 1.98Zm19.839 5.7h-1.36v-5.82c0-1.227-.18-2.12-.54-2.68-.36-.573-.927-.86-1.7-.86-.534 0-1.06.133-1.58.4-.52.253-.98.607-1.38 1.06a4.04 4.04 0 0 0-.84 1.52V38h-1.36V27.58h1.24v2.36c.28-.507.646-.947 1.1-1.32a5.071 5.071 0 0 1 1.54-.9 5.06 5.06 0 0 1 1.78-.32c.573 0 1.06.107 1.46.32.4.213.72.52.96.92.24.387.413.86.52 1.42.106.547.16 1.16.16 1.84V38Zm7.34.2a5.13 5.13 0 0 1-2.08-.42 5.355 5.355 0 0 1-1.64-1.18 5.69 5.69 0 0 1-1.06-1.72 5.634 5.634 0 0 1-.38-2.06c0-.747.126-1.44.38-2.08a5.212 5.212 0 0 1 1.08-1.72 4.946 4.946 0 0 1 1.64-1.18 4.931 4.931 0 0 1 2.08-.44c.746 0 1.433.147 2.06.44.626.28 1.173.673 1.64 1.18a5.245 5.245 0 0 1 1.08 1.72c.253.64.38 1.333.38 2.08 0 .72-.127 1.407-.38 2.06a5.537 5.537 0 0 1-1.08 1.72c-.454.493-1 .887-1.64 1.18-.627.28-1.32.42-2.08.42Zm-3.78-5.36c0 .773.166 1.48.5 2.12a4.144 4.144 0 0 0 1.38 1.5 3.5 3.5 0 0 0 1.9.54c.693 0 1.326-.187 1.9-.56a4.117 4.117 0 0 0 1.38-1.52c.346-.653.52-1.36.52-2.12 0-.773-.174-1.48-.52-2.12a4.117 4.117 0 0 0-1.38-1.52 3.412 3.412 0 0 0-1.9-.56c-.694 0-1.327.193-1.9.58a4.35 4.35 0 0 0-1.36 1.54c-.347.627-.52 1.333-.52 2.12ZM275.82 38h-1.36v-5.82c0-1.213-.193-2.107-.58-2.68-.386-.573-.96-.86-1.72-.86-.786 0-1.493.28-2.12.84-.613.56-1.046 1.28-1.3 2.16V38h-1.36v-5.82c0-1.227-.186-2.12-.56-2.68-.373-.573-.946-.86-1.72-.86-.773 0-1.473.273-2.1.82-.626.547-1.066 1.267-1.32 2.16V38h-1.36V27.58h1.24v2.36c.44-.813 1-1.44 1.68-1.88.694-.44 1.46-.66 2.3-.66.867 0 1.567.247 2.1.74.534.493.86 1.14.98 1.94.48-.88 1.054-1.547 1.72-2a4.054 4.054 0 0 1 2.3-.68c.587 0 1.08.107 1.48.32.414.213.74.52.98.92.254.387.434.86.54 1.42.12.547.18 1.16.18 1.84V38Zm2.879 0V27.58h1.36V38h-1.36Zm0-12.6v-2h1.36v2h-1.36Zm8.876 12.8c-.76 0-1.46-.14-2.1-.42a5.447 5.447 0 0 1-1.66-1.2 5.737 5.737 0 0 1-1.1-1.74 5.689 5.689 0 0 1-.38-2.08c0-.987.22-1.887.66-2.7a5.043 5.043 0 0 1 1.84-1.94c.786-.48 1.693-.72 2.72-.72.973 0 1.833.227 2.58.68.746.44 1.3 1.04 1.66 1.8l-1.32.42a3.09 3.09 0 0 0-1.24-1.24 3.36 3.36 0 0 0-1.74-.46 3.5 3.5 0 0 0-1.9.54 3.98 3.98 0 0 0-1.38 1.48c-.334.627-.5 1.34-.5 2.14 0 .787.173 1.5.52 2.14a4.27 4.27 0 0 0 1.38 1.54c.573.373 1.206.56 1.9.56.453 0 .886-.08 1.3-.24.426-.16.793-.373 1.1-.64.32-.28.533-.58.64-.9l1.34.4c-.187.493-.5.94-.94 1.34a4.839 4.839 0 0 1-1.52.92 5.298 5.298 0 0 1-1.86.32Zm9.876 0a6.62 6.62 0 0 1-2.38-.42 5.002 5.002 0 0 1-1.9-1.28l.56-.96c.587.547 1.174.947 1.76 1.2.6.24 1.234.36 1.9.36.814 0 1.474-.16 1.98-.48.507-.333.76-.807.76-1.42 0-.413-.126-.727-.38-.94-.24-.227-.593-.407-1.06-.54-.453-.147-1-.3-1.64-.46-.72-.2-1.326-.407-1.82-.62-.48-.227-.846-.507-1.1-.84-.24-.347-.36-.793-.36-1.34 0-.68.167-1.24.5-1.68.347-.453.814-.793 1.4-1.02.6-.24 1.267-.36 2-.36.8 0 1.507.127 2.12.38.614.253 1.114.607 1.5 1.06l-.66.92a3.358 3.358 0 0 0-1.34-.94 4.338 4.338 0 0 0-1.7-.32c-.426 0-.833.06-1.22.18a2.049 2.049 0 0 0-.96.56c-.24.253-.36.607-.36 1.06 0 .373.094.667.28.88.187.2.467.373.84.52.374.133.834.28 1.38.44.787.213 1.474.433 2.06.66.587.213 1.04.493 1.36.84.32.347.48.833.48 1.46 0 .973-.366 1.733-1.1 2.28-.733.547-1.7.82-2.9.82Zm7.828-4.24c0-.587.06-1.087.18-1.5.134-.427.32-.793.56-1.1a3.59 3.59 0 0 1 .96-.8c.254-.16.54-.327.86-.5a5.43 5.43 0 0 0 .92-.6c.294-.24.534-.527.72-.86.187-.347.28-.76.28-1.24 0-.587-.133-1.067-.4-1.44a2.308 2.308 0 0 0-1-.86 2.99 2.99 0 0 0-1.32-.3 3.31 3.31 0 0 0-1.34.28c-.413.173-.78.413-1.1.72-.32.307-.58.653-.78 1.04l-.94-.6a4.331 4.331 0 0 1 1.02-1.4c.44-.387.934-.68 1.48-.88.547-.2 1.107-.3 1.68-.3.494 0 .974.08 1.44.24.467.147.88.38 1.24.7.374.32.667.72.88 1.2.227.467.34 1.027.34 1.68 0 .533-.073.987-.22 1.36-.146.36-.353.673-.62.94a4.82 4.82 0 0 1-.86.68c-.32.2-.653.393-1 .58a7.77 7.77 0 0 0-.88.58 2.3 2.3 0 0 0-.68.88c-.173.36-.26.86-.26 1.5h-1.16Zm.02 4.04v-2.14h1.18V38h-1.18Z" fill="#fff"/>
  <path d="M39.2 66 34 57h13l-7.8 9Z" fill="#1DA1F2"/>
  <path d="M211.5 187h-33c-11.046 0-20 8.954-20 20v139" stroke="#1DA1F2" stroke-width="5"/>
  <path d="M257.5 157.5H94c-11.046 0-20 8.954-20 20v290c0 11.046 8.954 20 20 20h11m205.5-346v-30c0-11.046-8.954-20-20-20h-257c-11.046 0-20 8.954-20 20V591c0 11.046 8.954 20 20 20H105m254-415v520.5c0 11.046-8.954 20-20 20h-71.5" stroke="#1DA1F2" stroke-width="5"/>
  <rect x="96" y="315" width="178" height="90" rx="26" fill="#1DA1F2"/>
  <path d="M136.009 338.545V356h-3.691v-13.952h-.102l-3.997 2.506v-3.273l4.321-2.736h3.469Zm13.702 14.182v-.92c0-.699.148-1.341.443-1.926a3.512 3.512 0 0 1 1.304-1.415c.574-.358 1.273-.537 2.097-.537.835 0 1.537.176 2.105.528a3.382 3.382 0 0 1 1.295 1.415c.296.585.443 1.23.443 1.935v.92a4.26 4.26 0 0 1-.443 1.935 3.445 3.445 0 0 1-1.304 1.406c-.574.358-1.272.537-2.096.537-.836 0-1.537-.179-2.105-.537-.569-.352-1-.821-1.296-1.406a4.272 4.272 0 0 1-.443-1.935Zm2.48-.92v.92c0 .404.097.784.29 1.142.199.358.557.537 1.074.537s.869-.176 1.057-.528c.193-.352.289-.736.289-1.151v-.92c0-.415-.091-.801-.272-1.159-.182-.358-.54-.537-1.074-.537-.512 0-.867.179-1.066.537a2.346 2.346 0 0 0-.298 1.159Zm-11.437-9.068v-.921c0-.704.15-1.349.451-1.934a3.512 3.512 0 0 1 1.304-1.415c.574-.353 1.267-.529 2.08-.529.841 0 1.545.176 2.113.529.569.352 1 .824 1.296 1.415.295.585.443 1.23.443 1.934v.921c0 .704-.151 1.349-.452 1.934a3.447 3.447 0 0 1-1.304 1.407c-.568.346-1.267.519-2.096.519-.83 0-1.531-.176-2.105-.528-.569-.358-1-.827-1.296-1.406a4.278 4.278 0 0 1-.434-1.926Zm2.497-.921v.921c0 .414.096.798.289 1.15.199.352.549.529 1.049.529.523 0 .878-.177 1.065-.529.193-.352.29-.736.29-1.15v-.921a2.52 2.52 0 0 0-.273-1.159c-.182-.358-.542-.537-1.082-.537-.506 0-.855.182-1.049.546a2.417 2.417 0 0 0-.289 1.15ZM141.879 356l12-17.455h2.233l-12 17.455h-2.233ZM136.142 383v-6.524l-2.548 4.858h-1.078l-2.548-4.858V383h-1.932v-9.94h2.072l2.94 5.656 2.968-5.656h2.058V383h-1.932Zm3.239-2.17c0-.476.131-.891.392-1.246.271-.364.644-.644 1.12-.84.476-.196 1.022-.294 1.638-.294.308 0 .621.023.938.07.318.047.593.121.826.224v-.392c0-.467-.14-.826-.42-1.078-.27-.252-.676-.378-1.218-.378-.401 0-.784.07-1.148.21-.364.14-.746.345-1.148.616l-.602-1.232c.486-.317.98-.555 1.484-.714a5.413 5.413 0 0 1 1.61-.238c1.046 0 1.858.261 2.436.784.588.523.882 1.269.882 2.24v2.338c0 .196.033.336.098.42.075.084.192.135.35.154V383a15.44 15.44 0 0 1-.462.07c-.13.019-.242.028-.336.028-.373 0-.658-.084-.854-.252a1.09 1.09 0 0 1-.35-.616l-.042-.378a3.201 3.201 0 0 1-1.19.952 3.385 3.385 0 0 1-1.456.336c-.485 0-.924-.098-1.316-.294a2.438 2.438 0 0 1-.91-.826 2.26 2.26 0 0 1-.322-1.19Zm4.564.378c.103-.112.187-.224.252-.336a.616.616 0 0 0 .098-.308v-.742a3.505 3.505 0 0 0-.728-.21 3.54 3.54 0 0 0-.742-.084c-.485 0-.886.107-1.204.322-.308.205-.462.481-.462.826 0 .187.052.364.154.532.103.168.252.303.448.406.196.103.43.154.7.154.28 0 .556-.051.826-.154.271-.112.49-.247.658-.406Zm5.183-5.544 1.54 2.296.112.252.14-.252 1.526-2.296h1.974l-2.548 3.654 2.59 3.682h-1.974l-1.582-2.282-.126-.238-.112.238L149.1 383h-1.974l2.59-3.64-2.548-3.696h1.96Zm12.689-2.576h1.792l1.134 3.29 1.148-3.29h1.778l-1.708 4.522 1.26 3.164 2.814-7.714h2.1l-3.976 9.94h-1.666l-1.75-4.172-1.736 4.172h-1.666l-3.962-9.94h2.072l2.828 7.714 1.232-3.164-1.694-4.522Zm9.844 7.742c0-.476.13-.891.392-1.246.27-.364.644-.644 1.12-.84.476-.196 1.022-.294 1.638-.294.308 0 .62.023.938.07.317.047.592.121.826.224v-.392c0-.467-.14-.826-.42-1.078-.271-.252-.677-.378-1.218-.378-.402 0-.784.07-1.148.21-.364.14-.747.345-1.148.616l-.602-1.232c.485-.317.98-.555 1.484-.714a5.408 5.408 0 0 1 1.61-.238c1.045 0 1.857.261 2.436.784.588.523.882 1.269.882 2.24v2.338c0 .196.032.336.098.42.074.084.191.135.35.154V383a15.44 15.44 0 0 1-.462.07 2.386 2.386 0 0 1-.336.028c-.374 0-.658-.084-.854-.252a1.078 1.078 0 0 1-.35-.616l-.042-.378a3.21 3.21 0 0 1-1.19.952 3.389 3.389 0 0 1-1.456.336 2.9 2.9 0 0 1-1.316-.294 2.43 2.43 0 0 1-.91-.826 2.25 2.25 0 0 1-.322-1.19Zm4.564.378c.102-.112.186-.224.252-.336a.626.626 0 0 0 .098-.308v-.742a3.523 3.523 0 0 0-.728-.21 3.554 3.554 0 0 0-.742-.084c-.486 0-.887.107-1.204.322-.308.205-.462.481-.462.826a1 1 0 0 0 .154.532c.102.168.252.303.448.406.196.103.429.154.7.154.28 0 .555-.051.826-.154.27-.112.49-.247.658-.406Zm3.965-8.428h1.876v7.868c0 .336.056.565.168.686.112.112.266.168.462.168a2.222 2.222 0 0 0 .882-.196l.252 1.428a3.628 3.628 0 0 1-.882.28c-.336.065-.64.098-.91.098-.588 0-1.046-.154-1.372-.462-.318-.317-.476-.765-.476-1.344v-8.526Zm4.443 0h1.876v7.868c0 .336.056.565.168.686.112.112.266.168.462.168.149 0 .303-.019.462-.056.159-.037.299-.084.42-.14l.252 1.428a3.628 3.628 0 0 1-.882.28 4.836 4.836 0 0 1-.91.098c-.588 0-1.045-.154-1.372-.462-.317-.317-.476-.765-.476-1.344v-8.526Zm7.859 10.36c-.588 0-1.12-.098-1.596-.294a3.748 3.748 0 0 1-1.218-.826 3.951 3.951 0 0 1-.784-1.204 3.96 3.96 0 0 1-.266-1.442c0-.7.154-1.339.462-1.918a3.62 3.62 0 0 1 1.344-1.386c.588-.355 1.279-.532 2.072-.532.803 0 1.489.177 2.058.532a3.43 3.43 0 0 1 1.302 1.386c.308.569.462 1.185.462 1.848a5.59 5.59 0 0 1-.042.63h-5.67c.038.373.145.7.322.98.187.28.42.495.7.644a2.167 2.167 0 0 0 1.974-.056c.336-.187.565-.429.686-.728l1.61.448a3.007 3.007 0 0 1-.77.994 3.68 3.68 0 0 1-1.162.686 4.408 4.408 0 0 1-1.484.238Zm-1.918-4.396h3.836a2.11 2.11 0 0 0-.322-.966 1.71 1.71 0 0 0-.672-.644 1.864 1.864 0 0 0-.938-.238 1.854 1.854 0 0 0-1.596.882c-.168.271-.27.593-.308.966Zm11.225 3.878c-.159.065-.35.14-.574.224a4.184 4.184 0 0 1-.728.196 3.541 3.541 0 0 1-.77.084 2.44 2.44 0 0 1-.952-.182 1.552 1.552 0 0 1-.7-.574c-.168-.271-.252-.621-.252-1.05v-4.214h-.966v-1.442h.966v-2.38h1.876v2.38h1.54v1.442h-1.54v3.584c.009.252.079.434.21.546.13.112.294.168.49.168s.387-.033.574-.098c.186-.065.336-.121.448-.168l.378 1.484Z" fill="#fff"/>
  <rect x="96" y="440" width="178" height="90" rx="26" fill="#1DA1F2"/>
  <path d="M123.866 476.239c-1.272 0-2.406-.219-3.4-.657-.989-.443-1.77-1.051-2.344-1.823-.568-.779-.861-1.677-.878-2.694h3.716c.023.426.162.801.418 1.125a2.56 2.56 0 0 0 1.04.742c.431.176.917.264 1.457.264.563 0 1.06-.099 1.491-.298.432-.199.77-.475 1.015-.827.244-.352.366-.759.366-1.219 0-.466-.131-.878-.392-1.236-.256-.363-.625-.647-1.108-.852-.477-.204-1.045-.307-1.704-.307h-1.628v-2.71h1.628c.556 0 1.048-.096 1.474-.29.432-.193.767-.46 1.006-.801.238-.346.358-.75.358-1.21a2.09 2.09 0 0 0-.316-1.151 2.083 2.083 0 0 0-.869-.784c-.369-.187-.801-.281-1.295-.281-.5 0-.958.091-1.373.273a2.406 2.406 0 0 0-.997.758c-.25.33-.383.716-.4 1.159h-3.537c.017-1.005.304-1.892.861-2.659.556-.767 1.306-1.366 2.25-1.798.948-.437 2.019-.656 3.213-.656 1.204 0 2.258.219 3.162.656.903.438 1.605 1.028 2.105 1.773.505.738.755 1.568.75 2.488.005.978-.299 1.793-.912 2.446-.608.654-1.401 1.069-2.378 1.245v.136c1.284.165 2.261.611 2.932 1.338.676.722 1.011 1.625 1.005 2.71.006.995-.281 1.878-.86 2.651-.574.773-1.367 1.381-2.378 1.824-1.012.443-2.171.665-3.478.665Zm18.923-3.512v-.92c0-.699.148-1.341.443-1.926a3.512 3.512 0 0 1 1.304-1.415c.574-.358 1.273-.537 2.097-.537.835 0 1.537.176 2.105.528a3.376 3.376 0 0 1 1.295 1.415c.296.585.444 1.23.444 1.935v.92a4.26 4.26 0 0 1-.444 1.935 3.445 3.445 0 0 1-1.304 1.406c-.573.358-1.272.537-2.096.537-.835 0-1.537-.179-2.105-.537-.568-.352-1-.821-1.296-1.406a4.272 4.272 0 0 1-.443-1.935Zm2.48-.92v.92c0 .404.097.784.29 1.142.199.358.557.537 1.074.537s.869-.176 1.057-.528c.193-.352.289-.736.289-1.151v-.92c0-.415-.091-.801-.272-1.159-.182-.358-.54-.537-1.074-.537-.512 0-.867.179-1.066.537a2.356 2.356 0 0 0-.298 1.159Zm-11.437-9.068v-.921c0-.704.15-1.349.451-1.934a3.519 3.519 0 0 1 1.304-1.415c.574-.353 1.267-.529 2.08-.529.841 0 1.545.176 2.114.529.568.352 1 .824 1.295 1.415.295.585.443 1.23.443 1.934v.921c0 .704-.15 1.349-.452 1.934a3.447 3.447 0 0 1-1.304 1.407c-.568.346-1.267.519-2.096.519-.83 0-1.531-.176-2.105-.528a3.55 3.55 0 0 1-1.296-1.406 4.292 4.292 0 0 1-.434-1.926Zm2.497-.921v.921c0 .414.096.798.29 1.15.198.352.548.529 1.048.529.523 0 .878-.177 1.065-.529.193-.352.29-.736.29-1.15v-.921a2.52 2.52 0 0 0-.273-1.159c-.182-.358-.542-.537-1.082-.537-.506 0-.855.182-1.048.546-.194.363-.29.747-.29 1.15ZM134.957 476l12-17.455h2.233l-12 17.455h-2.233ZM116.497 494.593v-1.775h8.362v1.775h-3.117V503h-2.128v-8.407h-3.117Zm10.838 8.551a3.18 3.18 0 0 1-1.302-.253 2.101 2.101 0 0 1-.905-.761c-.219-.338-.328-.759-.328-1.263 0-.424.078-.78.233-1.069.156-.288.368-.52.637-.696.268-.175.573-.308.915-.397.344-.09.705-.153 1.083-.189.444-.047.802-.09 1.074-.13.272-.043.469-.106.592-.189a.415.415 0 0 0 .184-.367v-.03c0-.315-.1-.559-.299-.731-.195-.172-.473-.259-.835-.259-.381 0-.684.085-.91.254a1.168 1.168 0 0 0-.447.626l-1.959-.159c.1-.464.295-.865.587-1.203a2.814 2.814 0 0 1 1.128-.785c.464-.186 1.001-.279 1.611-.279.424 0 .83.05 1.218.149.391.1.738.254 1.039.463.305.209.545.477.721.805.176.325.264.714.264 1.168V503h-2.009v-1.059h-.06a2.126 2.126 0 0 1-1.232 1.054 3.08 3.08 0 0 1-1 .149Zm.607-1.461c.311 0 .586-.062.825-.184.239-.126.426-.295.562-.508.136-.212.204-.452.204-.72v-.811a1.177 1.177 0 0 1-.274.12c-.112.033-.24.064-.383.094-.142.027-.285.051-.427.075l-.388.054a2.665 2.665 0 0 0-.651.174c-.186.08-.33.188-.433.323a.795.795 0 0 0-.154.498c0 .288.105.508.313.661.212.149.481.224.806.224Zm7.107-6.319 1.402 2.669 1.436-2.669h2.173l-2.212 3.818L140.12 503h-2.163l-1.506-2.64-1.482 2.64h-2.187l2.267-3.818-2.188-3.818h2.188Zm12.323 7.76c-.58 0-1.105-.149-1.576-.447-.467-.302-.839-.744-1.114-1.328-.271-.586-.407-1.305-.407-2.157 0-.875.141-1.603.422-2.183.282-.583.657-1.019 1.124-1.307.47-.292.986-.438 1.546-.438.428 0 .784.073 1.069.219.288.142.52.321.696.537.179.212.315.421.408.626h.064v-3.828h2.113V503h-2.088v-1.223h-.089c-.1.212-.241.423-.423.631a2.085 2.085 0 0 1-.701.512c-.285.136-.633.204-1.044.204Zm.671-1.685c.342 0 .63-.093.865-.278.239-.189.421-.453.547-.791.129-.338.194-.734.194-1.188 0-.454-.063-.849-.189-1.183-.126-.335-.308-.594-.547-.776a1.39 1.39 0 0 0-.87-.273c-.348 0-.641.094-.88.283a1.744 1.744 0 0 0-.542.785 3.393 3.393 0 0 0-.184 1.164c0 .444.062.837.184 1.178.126.338.307.603.542.796.239.188.532.283.88.283Zm8.896 1.71c-.786 0-1.462-.159-2.029-.477a3.277 3.277 0 0 1-1.302-1.362c-.305-.59-.458-1.288-.458-2.093 0-.786.153-1.475.458-2.069a3.388 3.388 0 0 1 1.287-1.387c.557-.331 1.21-.497 1.959-.497.504 0 .973.081 1.407.244.438.159.819.399 1.143.721.329.321.584.726.766 1.213.182.484.274 1.05.274 1.7v.582h-6.449v-1.313h4.455c0-.305-.066-.575-.199-.81a1.429 1.429 0 0 0-.552-.552 1.572 1.572 0 0 0-.81-.204c-.322 0-.607.075-.855.224a1.562 1.562 0 0 0-.577.592c-.139.245-.21.518-.214.82v1.248c0 .378.07.704.209.979.143.275.343.487.602.636.258.15.565.224.919.224.236 0 .451-.033.647-.099a1.297 1.297 0 0 0 .82-.786l1.959.129a2.67 2.67 0 0 1-.612 1.233c-.305.348-.699.62-1.183.816-.481.192-1.036.288-1.665.288Zm11.801-7.785L166.07 503h-2.386l-2.67-7.636h2.237l1.586 5.463h.08l1.581-5.463h2.242Zm4.318 7.785c-.786 0-1.462-.159-2.029-.477a3.277 3.277 0 0 1-1.302-1.362c-.305-.59-.458-1.288-.458-2.093 0-.786.153-1.475.458-2.069a3.388 3.388 0 0 1 1.287-1.387c.557-.331 1.21-.497 1.959-.497.504 0 .973.081 1.407.244.438.159.819.399 1.144.721.328.321.583.726.765 1.213.183.484.274 1.05.274 1.7v.582h-6.448v-1.313h4.454c0-.305-.066-.575-.199-.81a1.422 1.422 0 0 0-.552-.552 1.572 1.572 0 0 0-.81-.204c-.322 0-.607.075-.855.224a1.569 1.569 0 0 0-.577.592c-.139.245-.21.518-.214.82v1.248c0 .378.07.704.209.979.143.275.343.487.602.636.258.15.565.224.92.224.235 0 .45-.033.646-.099a1.297 1.297 0 0 0 .82-.786l1.959.129a2.661 2.661 0 0 1-.612 1.233c-.304.348-.699.62-1.183.816-.48.192-1.036.288-1.665.288Zm7.005-10.331V503h-2.118v-10.182h2.118Zm5.147 10.331c-.773 0-1.441-.164-2.004-.492a3.367 3.367 0 0 1-1.298-1.382c-.305-.593-.457-1.281-.457-2.063 0-.789.152-1.479.457-2.069a3.331 3.331 0 0 1 1.298-1.382c.563-.331 1.231-.497 2.004-.497.772 0 1.438.166 1.998.497.564.328.998.789 1.303 1.382.305.59.457 1.28.457 2.069 0 .782-.152 1.47-.457 2.063a3.353 3.353 0 0 1-1.303 1.382c-.56.328-1.226.492-1.998.492Zm.009-1.64c.352 0 .645-.1.88-.299.236-.202.413-.477.532-.825.123-.348.184-.744.184-1.188 0-.444-.061-.84-.184-1.188-.119-.348-.296-.624-.532-.826-.235-.202-.528-.303-.88-.303-.354 0-.652.101-.894.303-.239.202-.42.478-.542.826-.12.348-.179.744-.179 1.188 0 .444.059.84.179 1.188.122.348.303.623.542.825.242.199.54.299.894.299Zm5.126 4.355v-10.5h2.088v1.282h.095c.093-.205.227-.414.402-.626a2.11 2.11 0 0 1 .696-.537c.289-.146.647-.219 1.074-.219.557 0 1.071.146 1.541.438.471.288.847.724 1.129 1.307.282.58.423 1.308.423 2.183 0 .852-.138 1.571-.413 2.157-.272.584-.643 1.026-1.114 1.328a2.86 2.86 0 0 1-1.571.447c-.411 0-.76-.068-1.049-.204a2.157 2.157 0 0 1-.701-.512 2.587 2.587 0 0 1-.417-.631h-.065v4.087h-2.118Zm2.073-6.682c0 .454.063.85.189 1.188.126.338.308.602.547.791.239.185.529.278.87.278.345 0 .637-.095.875-.283.239-.193.419-.458.542-.796a3.39 3.39 0 0 0 .189-1.178 3.37 3.37 0 0 0-.184-1.164 1.736 1.736 0 0 0-.542-.785c-.239-.189-.532-.283-.88-.283-.345 0-.636.091-.875.273-.235.182-.416.441-.542.776-.126.334-.189.729-.189 1.183Zm6.787 3.818v-7.636h2.018v1.347h.089c.16-.448.425-.8.796-1.059.371-.259.815-.388 1.332-.388.524 0 .97.131 1.338.393.368.258.613.61.735 1.054h.08c.156-.438.438-.787.845-1.049.411-.265.897-.398 1.457-.398.712 0 1.291.227 1.735.681.447.451.671 1.091.671 1.919V503h-2.113v-4.718c0-.424-.112-.742-.338-.955a1.185 1.185 0 0 0-.845-.318c-.384 0-.684.123-.9.368-.215.242-.323.562-.323.96V503h-2.053v-4.763c0-.374-.108-.673-.323-.895-.213-.222-.493-.333-.841-.333-.235 0-.447.06-.636.179-.186.116-.333.28-.442.492-.11.209-.165.454-.165.736V503h-2.117Zm16.249.149c-.785 0-1.461-.159-2.028-.477a3.273 3.273 0 0 1-1.303-1.362c-.305-.59-.457-1.288-.457-2.093 0-.786.152-1.475.457-2.069a3.384 3.384 0 0 1 1.288-1.387c.557-.331 1.21-.497 1.959-.497.503 0 .972.081 1.407.244.437.159.818.399 1.143.721.328.321.583.726.766 1.213.182.484.273 1.05.273 1.7v.582h-6.448v-1.313h4.455c0-.305-.067-.575-.199-.81a1.435 1.435 0 0 0-.552-.552 1.573 1.573 0 0 0-.811-.204c-.321 0-.606.075-.855.224a1.566 1.566 0 0 0-.576.592c-.14.245-.211.518-.214.82v1.248c0 .378.069.704.209.979.142.275.343.487.601.636.259.15.565.224.92.224.235 0 .451-.033.646-.099a1.287 1.287 0 0 0 .821-.786l1.958.129a2.669 2.669 0 0 1-.611 1.233c-.305.348-.699.62-1.183.816-.481.192-1.036.288-1.666.288Zm7.005-4.564V503h-2.118v-7.636h2.019v1.347h.089c.169-.444.453-.796.85-1.054.398-.262.88-.393 1.447-.393.53 0 .993.116 1.387.348.395.232.701.564.92.995.219.427.328.938.328 1.531V503h-2.118v-4.484c.003-.468-.116-.832-.358-1.094-.242-.265-.575-.398-.999-.398-.285 0-.537.061-.756.184a1.291 1.291 0 0 0-.507.537 1.86 1.86 0 0 0-.184.84Zm10.653-3.221v1.591h-4.599v-1.591h4.599Zm-3.555-1.83h2.118v7.119c0 .196.03.348.09.458.059.106.142.18.248.224.11.043.236.064.378.064.1 0 .199-.008.298-.025.1-.02.176-.035.229-.044l.333 1.576a6.018 6.018 0 0 1-.447.114 3.626 3.626 0 0 1-.701.084c-.511.02-.958-.048-1.343-.203a1.873 1.873 0 0 1-.889-.726c-.213-.328-.317-.743-.314-1.243v-7.398Z" fill="#fff"/>
  <rect x="96" y="565" width="178" height="90" rx="26" fill="#1DA1F2"/>
  <path d="M127.866 601.239c-1.272 0-2.406-.219-3.4-.657-.989-.443-1.77-1.051-2.344-1.823-.568-.779-.861-1.677-.878-2.694h3.716c.023.426.162.801.418 1.125a2.56 2.56 0 0 0 1.04.742c.431.176.917.264 1.457.264.563 0 1.06-.099 1.491-.298.432-.199.77-.475 1.015-.827.244-.352.366-.759.366-1.219 0-.466-.131-.878-.392-1.236-.256-.363-.625-.647-1.108-.852-.477-.204-1.045-.307-1.704-.307h-1.628v-2.71h1.628c.556 0 1.048-.096 1.474-.29.432-.193.767-.46 1.006-.801.238-.346.358-.75.358-1.21a2.09 2.09 0 0 0-.316-1.151 2.083 2.083 0 0 0-.869-.784c-.369-.187-.801-.281-1.295-.281-.5 0-.958.091-1.373.273a2.406 2.406 0 0 0-.997.758c-.25.33-.383.716-.4 1.159h-3.537c.017-1.005.304-1.892.861-2.659.556-.767 1.306-1.366 2.25-1.798.948-.437 2.019-.656 3.213-.656 1.204 0 2.258.219 3.162.656.903.438 1.605 1.028 2.105 1.773.505.738.755 1.568.75 2.488.005.978-.299 1.793-.912 2.446-.608.654-1.401 1.069-2.378 1.245v.136c1.284.165 2.261.611 2.932 1.338.676.722 1.011 1.625 1.005 2.71.006.995-.281 1.878-.86 2.651-.574.773-1.367 1.381-2.378 1.824-1.012.443-2.171.665-3.478.665Zm18.923-3.512v-.92c0-.699.148-1.341.443-1.926a3.512 3.512 0 0 1 1.304-1.415c.574-.358 1.273-.537 2.097-.537.835 0 1.537.176 2.105.528a3.376 3.376 0 0 1 1.295 1.415c.296.585.444 1.23.444 1.935v.92a4.26 4.26 0 0 1-.444 1.935 3.445 3.445 0 0 1-1.304 1.406c-.573.358-1.272.537-2.096.537-.835 0-1.537-.179-2.105-.537-.568-.352-1-.821-1.296-1.406a4.272 4.272 0 0 1-.443-1.935Zm2.48-.92v.92c0 .404.097.784.29 1.142.199.358.557.537 1.074.537s.869-.176 1.057-.528c.193-.352.289-.736.289-1.151v-.92c0-.415-.091-.801-.272-1.159-.182-.358-.54-.537-1.074-.537-.512 0-.867.179-1.066.537a2.356 2.356 0 0 0-.298 1.159Zm-11.437-9.068v-.921c0-.704.15-1.349.451-1.934a3.519 3.519 0 0 1 1.304-1.415c.574-.353 1.267-.529 2.08-.529.841 0 1.545.176 2.114.529.568.352 1 .824 1.295 1.415.295.585.443 1.23.443 1.934v.921c0 .704-.15 1.349-.452 1.934a3.447 3.447 0 0 1-1.304 1.407c-.568.346-1.267.519-2.096.519-.83 0-1.531-.176-2.105-.528a3.55 3.55 0 0 1-1.296-1.406 4.292 4.292 0 0 1-.434-1.926Zm2.497-.921v.921c0 .414.096.798.29 1.15.198.352.548.529 1.048.529.523 0 .878-.177 1.065-.529.193-.352.29-.736.29-1.15v-.921a2.52 2.52 0 0 0-.273-1.159c-.182-.358-.542-.537-1.082-.537-.506 0-.855.182-1.048.546-.194.363-.29.747-.29 1.15ZM138.957 601l12-17.455h2.233l-12 17.455h-2.233ZM120.497 619.593v-1.775h8.362v1.775h-3.117V628h-2.128v-8.407h-3.117Zm10.838 8.551a3.18 3.18 0 0 1-1.302-.253 2.101 2.101 0 0 1-.905-.761c-.219-.338-.328-.759-.328-1.263 0-.424.078-.78.233-1.069.156-.288.368-.52.637-.696.268-.175.573-.308.915-.397.344-.09.705-.153 1.083-.189.444-.047.802-.09 1.074-.13.272-.043.469-.106.592-.189a.415.415 0 0 0 .184-.367v-.03c0-.315-.1-.559-.299-.731-.195-.172-.473-.259-.835-.259-.381 0-.684.085-.91.254a1.168 1.168 0 0 0-.447.626l-1.959-.159c.1-.464.295-.865.587-1.203a2.814 2.814 0 0 1 1.128-.785c.464-.186 1.001-.279 1.611-.279.424 0 .83.05 1.218.149.391.1.738.254 1.039.463.305.209.545.477.721.805.176.325.264.714.264 1.168V628h-2.009v-1.059h-.06a2.126 2.126 0 0 1-1.232 1.054 3.08 3.08 0 0 1-1 .149Zm.607-1.461c.311 0 .586-.062.825-.184.239-.126.426-.295.562-.508.136-.212.204-.452.204-.72v-.811a1.177 1.177 0 0 1-.274.12c-.112.033-.24.064-.383.094-.142.027-.285.051-.427.075l-.388.054a2.665 2.665 0 0 0-.651.174c-.186.08-.33.188-.433.323a.795.795 0 0 0-.154.498c0 .288.105.508.313.661.212.149.481.224.806.224Zm7.107-6.319 1.402 2.669 1.436-2.669h2.173l-2.212 3.818L144.12 628h-2.163l-1.506-2.64-1.482 2.64h-2.187l2.267-3.818-2.188-3.818h2.188Zm9.549-2.546h2.655l2.804 6.841h.119l2.804-6.841h2.655V628h-2.088v-6.627h-.085l-2.635 6.577h-1.422l-2.635-6.602h-.084V628h-2.088v-10.182Zm14.948 10.326a3.18 3.18 0 0 1-1.302-.253 2.096 2.096 0 0 1-.905-.761c-.219-.338-.328-.759-.328-1.263 0-.424.078-.78.233-1.069.156-.288.368-.52.637-.696.268-.175.573-.308.914-.397.345-.09.706-.153 1.084-.189.444-.047.802-.09 1.074-.13.272-.043.469-.106.592-.189a.415.415 0 0 0 .184-.367v-.03c0-.315-.1-.559-.299-.731-.195-.172-.474-.259-.835-.259-.381 0-.684.085-.91.254a1.168 1.168 0 0 0-.447.626l-1.959-.159c.1-.464.295-.865.587-1.203a2.814 2.814 0 0 1 1.128-.785c.464-.186 1.001-.279 1.611-.279.424 0 .83.05 1.218.149.391.1.738.254 1.039.463.305.209.545.477.721.805.176.325.264.714.264 1.168V628h-2.009v-1.059h-.06a2.126 2.126 0 0 1-1.233 1.054 3.07 3.07 0 0 1-.999.149Zm.607-1.461c.311 0 .586-.062.825-.184.239-.126.426-.295.562-.508.136-.212.204-.452.204-.72v-.811a1.177 1.177 0 0 1-.274.12c-.113.033-.24.064-.383.094-.142.027-.285.051-.427.075l-.388.054a2.653 2.653 0 0 0-.651.174c-.186.08-.33.188-.433.323a.789.789 0 0 0-.154.498c0 .288.104.508.313.661.212.149.481.224.806.224ZM169.49 628v-7.636h2.053v1.332h.08c.139-.474.372-.832.701-1.074a1.842 1.842 0 0 1 1.133-.368c.106 0 .22.007.343.02.123.013.23.032.323.055v1.879a2.725 2.725 0 0 0-.412-.079 3.586 3.586 0 0 0-.483-.035c-.311 0-.59.068-.835.204a1.503 1.503 0 0 0-.577.556 1.612 1.612 0 0 0-.208.826V628h-2.118Zm7.647-2.197.005-2.541h.308l2.446-2.898h2.432l-3.287 3.838h-.502l-1.402 1.601ZM175.218 628v-10.182h2.118V628h-2.118Zm4.773 0-2.247-3.326 1.412-1.496 3.316 4.822h-2.481Zm6.541.149c-.785 0-1.461-.159-2.028-.477a3.273 3.273 0 0 1-1.303-1.362c-.305-.59-.457-1.288-.457-2.093 0-.786.152-1.475.457-2.069a3.384 3.384 0 0 1 1.288-1.387c.557-.331 1.21-.497 1.959-.497.504 0 .973.081 1.407.244.437.159.818.399 1.143.721.328.321.584.726.766 1.213.182.484.273 1.05.273 1.7v.582h-6.448v-1.313h4.455c0-.305-.067-.575-.199-.81a1.435 1.435 0 0 0-.552-.552 1.572 1.572 0 0 0-.81-.204c-.322 0-.607.075-.856.224a1.566 1.566 0 0 0-.576.592 1.667 1.667 0 0 0-.214.82v1.248c0 .378.07.704.209.979.142.275.343.487.601.636.259.15.565.224.92.224.235 0 .451-.033.646-.099.196-.067.363-.166.503-.299.139-.132.245-.295.318-.487l1.959.129a2.68 2.68 0 0 1-.612 1.233c-.305.348-.699.62-1.183.816-.481.192-1.036.288-1.666.288Zm8.949-7.785v1.591h-4.599v-1.591h4.599Zm-3.555-1.83h2.118v7.119c0 .196.03.348.09.458.06.106.142.18.248.224.11.043.236.064.378.064.1 0 .199-.008.299-.025.099-.02.175-.035.228-.044l.333 1.576a6.018 6.018 0 0 1-.447.114 3.626 3.626 0 0 1-.701.084c-.51.02-.958-.048-1.342-.203a1.871 1.871 0 0 1-.89-.726c-.212-.328-.317-.743-.314-1.243v-7.398Zm4.935 9.466v-7.636h2.118V628h-2.118Zm1.064-8.621c-.315 0-.585-.104-.811-.313a1.016 1.016 0 0 1-.333-.761c0-.291.111-.542.333-.75.226-.212.496-.318.811-.318.315 0 .583.106.805.318a.988.988 0 0 1 .338.75c0 .295-.113.549-.338.761-.222.209-.49.313-.805.313Zm4.868 4.206V628h-2.118v-7.636h2.019v1.347h.089c.169-.444.453-.796.85-1.054.398-.262.88-.393 1.447-.393.53 0 .993.116 1.387.348.395.232.701.564.92.995.219.427.328.938.328 1.531V628h-2.118v-4.484c.003-.468-.116-.832-.358-1.094-.242-.265-.575-.398-.999-.398-.285 0-.537.061-.756.184a1.291 1.291 0 0 0-.507.537 1.86 1.86 0 0 0-.184.84Zm10.032 7.438c-.687 0-1.275-.095-1.765-.284-.488-.185-.875-.439-1.164-.76a2.342 2.342 0 0 1-.561-1.084l1.958-.264c.06.153.154.295.284.428.129.133.3.239.512.318.215.083.477.124.785.124.461 0 .84-.112 1.139-.338.301-.222.452-.595.452-1.118v-1.397h-.089a2.01 2.01 0 0 1-.418.601 2.116 2.116 0 0 1-.716.463c-.291.119-.639.179-1.044.179a3.139 3.139 0 0 1-1.566-.398c-.467-.269-.84-.678-1.119-1.228-.275-.554-.412-1.253-.412-2.098 0-.865.141-1.588.422-2.168.282-.58.657-1.014 1.124-1.302a2.899 2.899 0 0 1 1.546-.433c.428 0 .786.073 1.074.219.288.142.52.321.696.537.179.212.317.421.413.626h.079v-1.282h2.103v7.711c0 .649-.159 1.193-.477 1.63-.318.438-.759.766-1.322.985-.561.222-1.205.333-1.934.333Zm.044-4.723c.342 0 .63-.085.865-.254.239-.172.421-.417.547-.736.13-.321.194-.706.194-1.153 0-.447-.063-.835-.189-1.163-.126-.332-.308-.589-.547-.771a1.39 1.39 0 0 0-.87-.273c-.348 0-.641.094-.88.283a1.71 1.71 0 0 0-.542.776 3.311 3.311 0 0 0-.184 1.148c0 .441.062.822.184 1.143.126.319.307.566.542.741.239.173.532.259.88.259Z" fill="#fff"/>
  <rect x="96" y="690" width="178" height="90" rx="26" fill="#1DA1F2"/>
  <path d="M129.009 711.545V729h-3.691v-13.952h-.102l-3.997 2.506v-3.273l4.321-2.736h3.469Zm7.191 15.069-.094.937c-.074.75-.216 1.497-.426 2.242-.205.75-.421 1.429-.648 2.037a66.286 66.286 0 0 1-.537 1.431h-2.352c.085-.335.201-.804.349-1.406a30 30 0 0 0 .418-2.011c.13-.745.213-1.503.247-2.276l.043-.954h3Zm9.426 2.77c-1.466-.006-2.728-.367-3.784-1.083-1.052-.716-1.861-1.753-2.429-3.111-.563-1.358-.841-2.991-.836-4.9 0-1.904.282-3.526.844-4.867.568-1.341 1.378-2.361 2.429-3.059 1.057-.705 2.315-1.057 3.776-1.057 1.46 0 2.716.352 3.767 1.057 1.057.704 1.869 1.727 2.437 3.068.568 1.335.85 2.954.844 4.858 0 1.915-.284 3.551-.852 4.909-.563 1.358-1.37 2.395-2.421 3.111-1.051.716-2.309 1.074-3.775 1.074Zm0-3.06c1 0 1.798-.503 2.395-1.509.596-1.005.892-2.514.886-4.525 0-1.324-.136-2.426-.409-3.307-.267-.881-.648-1.543-1.142-1.986a2.493 2.493 0 0 0-1.73-.665c-.995 0-1.79.498-2.387 1.492-.596.994-.897 2.483-.903 4.466 0 1.341.133 2.46.401 3.358.272.892.656 1.562 1.15 2.011a2.522 2.522 0 0 0 1.739.665Zm16.523 3.06c-1.466-.006-2.727-.367-3.784-1.083-1.051-.716-1.861-1.753-2.429-3.111-.562-1.358-.841-2.991-.835-4.9 0-1.904.281-3.526.844-4.867.568-1.341 1.377-2.361 2.429-3.059 1.056-.705 2.315-1.057 3.775-1.057s2.716.352 3.767 1.057c1.057.704 1.87 1.727 2.438 3.068.568 1.335.849 2.954.843 4.858 0 1.915-.284 3.551-.852 4.909-.562 1.358-1.369 2.395-2.42 3.111-1.051.716-2.31 1.074-3.776 1.074Zm0-3.06c1 0 1.798-.503 2.395-1.509.597-1.005.892-2.514.886-4.525 0-1.324-.136-2.426-.409-3.307-.267-.881-.647-1.543-1.142-1.986a2.49 2.49 0 0 0-1.73-.665c-.994 0-1.79.498-2.386 1.492-.597.994-.898 2.483-.904 4.466 0 1.341.134 2.46.401 3.358.273.892.656 1.562 1.151 2.011a2.52 2.52 0 0 0 1.738.665Zm16.524 3.06c-1.466-.006-2.728-.367-3.785-1.083-1.051-.716-1.86-1.753-2.428-3.111-.563-1.358-.841-2.991-.836-4.9 0-1.904.282-3.526.844-4.867.568-1.341 1.378-2.361 2.429-3.059 1.057-.705 2.315-1.057 3.776-1.057 1.46 0 2.715.352 3.767 1.057 1.056.704 1.869 1.727 2.437 3.068.568 1.335.85 2.954.844 4.858 0 1.915-.284 3.551-.852 4.909-.563 1.358-1.37 2.395-2.421 3.111-1.051.716-2.31 1.074-3.775 1.074Zm0-3.06c1 0 1.798-.503 2.394-1.509.597-1.005.893-2.514.887-4.525 0-1.324-.137-2.426-.409-3.307-.267-.881-.648-1.543-1.142-1.986a2.493 2.493 0 0 0-1.73-.665c-.995 0-1.79.498-2.387 1.492-.596.994-.898 2.483-.903 4.466 0 1.341.133 2.46.4 3.358.273.892.657 1.562 1.151 2.011a2.522 2.522 0 0 0 1.739.665Zm12.956.29-.093.937c-.074.75-.216 1.497-.427 2.242-.204.75-.42 1.429-.647 2.037a66.286 66.286 0 0 1-.537 1.431h-2.353c.086-.335.202-.804.35-1.406.148-.596.287-1.267.417-2.011.131-.745.214-1.503.248-2.276l.042-.954h3Zm9.426 2.77c-1.466-.006-2.727-.367-3.784-1.083-1.051-.716-1.86-1.753-2.429-3.111-.562-1.358-.841-2.991-.835-4.9 0-1.904.281-3.526.844-4.867.568-1.341 1.378-2.361 2.429-3.059 1.057-.705 2.315-1.057 3.775-1.057 1.461 0 2.716.352 3.767 1.057 1.057.704 1.87 1.727 2.438 3.068.568 1.335.849 2.954.844 4.858 0 1.915-.284 3.551-.853 4.909-.562 1.358-1.369 2.395-2.42 3.111-1.051.716-2.31 1.074-3.776 1.074Zm0-3.06c1 0 1.799-.503 2.395-1.509.597-1.005.892-2.514.887-4.525 0-1.324-.137-2.426-.409-3.307-.267-.881-.648-1.543-1.142-1.986a2.494 2.494 0 0 0-1.731-.665c-.994 0-1.789.498-2.386 1.492-.597.994-.898 2.483-.903 4.466 0 1.341.133 2.46.4 3.358.273.892.656 1.562 1.151 2.011a2.522 2.522 0 0 0 1.738.665Zm16.524 3.06c-1.466-.006-2.727-.367-3.784-1.083-1.051-.716-1.861-1.753-2.429-3.111-.563-1.358-.841-2.991-.835-4.9 0-1.904.281-3.526.843-4.867.568-1.341 1.378-2.361 2.429-3.059 1.057-.705 2.316-1.057 3.776-1.057s2.716.352 3.767 1.057c1.057.704 1.869 1.727 2.437 3.068.569 1.335.85 2.954.844 4.858 0 1.915-.284 3.551-.852 4.909-.563 1.358-1.369 2.395-2.421 3.111-1.051.716-2.309 1.074-3.775 1.074Zm0-3.06c1 0 1.798-.503 2.395-1.509.596-1.005.892-2.514.886-4.525 0-1.324-.136-2.426-.409-3.307-.267-.881-.648-1.543-1.142-1.986a2.492 2.492 0 0 0-1.73-.665c-.994 0-1.79.498-2.387 1.492-.596.994-.897 2.483-.903 4.466 0 1.341.134 2.46.401 3.358.272.892.656 1.562 1.15 2.011a2.524 2.524 0 0 0 1.739.665Zm16.523 3.06c-1.466-.006-2.727-.367-3.784-1.083-1.051-.716-1.861-1.753-2.429-3.111-.562-1.358-.841-2.991-.835-4.9 0-1.904.281-3.526.844-4.867.568-1.341 1.378-2.361 2.429-3.059 1.057-.705 2.315-1.057 3.775-1.057 1.461 0 2.716.352 3.767 1.057 1.057.704 1.87 1.727 2.438 3.068.568 1.335.849 2.954.844 4.858 0 1.915-.285 3.551-.853 4.909-.562 1.358-1.369 2.395-2.42 3.111-1.051.716-2.31 1.074-3.776 1.074Zm0-3.06c1 0 1.799-.503 2.395-1.509.597-1.005.892-2.514.887-4.525 0-1.324-.137-2.426-.41-3.307-.267-.881-.647-1.543-1.142-1.986a2.49 2.49 0 0 0-1.73-.665c-.994 0-1.789.498-2.386 1.492-.597.994-.898 2.483-.904 4.466 0 1.341.134 2.46.401 3.358.273.892.656 1.562 1.151 2.011a2.522 2.522 0 0 0 1.738.665ZM120.497 747.593v-1.775h8.362v1.775h-3.117V756h-2.128v-8.407h-3.117Zm12.043 8.556c-.773 0-1.441-.164-2.004-.492a3.367 3.367 0 0 1-1.298-1.382c-.304-.593-.457-1.281-.457-2.063 0-.789.153-1.479.457-2.069a3.331 3.331 0 0 1 1.298-1.382c.563-.331 1.231-.497 2.004-.497.772 0 1.438.166 1.998.497.564.328.998.789 1.303 1.382.305.59.457 1.28.457 2.069 0 .782-.152 1.47-.457 2.063a3.353 3.353 0 0 1-1.303 1.382c-.56.328-1.226.492-1.998.492Zm.01-1.64c.351 0 .644-.1.88-.299.235-.202.412-.477.531-.825.123-.348.184-.744.184-1.188 0-.444-.061-.84-.184-1.188-.119-.348-.296-.624-.531-.826-.236-.202-.529-.303-.88-.303-.355 0-.653.101-.895.303-.239.202-.42.478-.542.826-.12.348-.179.744-.179 1.188 0 .444.059.84.179 1.188.122.348.303.623.542.825.242.199.54.299.895.299Zm9.187-6.145v1.591h-4.599v-1.591h4.599Zm-3.555-1.83h2.118v7.119c0 .196.03.348.09.458.059.106.142.18.248.224.11.043.236.064.378.064.1 0 .199-.008.298-.025.1-.02.176-.035.229-.044l.333 1.576a6.018 6.018 0 0 1-.447.114 3.626 3.626 0 0 1-.701.084c-.511.02-.958-.048-1.343-.203a1.873 1.873 0 0 1-.889-.726c-.213-.328-.317-.743-.314-1.243v-7.398Zm7.112 9.61a3.18 3.18 0 0 1-1.302-.253 2.096 2.096 0 0 1-.905-.761c-.219-.338-.328-.759-.328-1.263 0-.424.078-.78.233-1.069.156-.288.368-.52.637-.696.268-.175.573-.308.915-.397.344-.09.705-.153 1.083-.189.444-.047.802-.09 1.074-.13.272-.043.469-.106.592-.189a.415.415 0 0 0 .184-.367v-.03c0-.315-.1-.559-.299-.731-.195-.172-.474-.259-.835-.259-.381 0-.684.085-.91.254a1.168 1.168 0 0 0-.447.626l-1.959-.159c.1-.464.295-.865.587-1.203a2.814 2.814 0 0 1 1.128-.785c.464-.186 1.001-.279 1.611-.279.424 0 .83.05 1.218.149.391.1.738.254 1.039.463.305.209.545.477.721.805.176.325.264.714.264 1.168V756h-2.009v-1.059h-.06a2.126 2.126 0 0 1-1.232 1.054 3.08 3.08 0 0 1-1 .149Zm.607-1.461c.311 0 .586-.062.825-.184.239-.126.426-.295.562-.508.136-.212.204-.452.204-.72v-.811a1.177 1.177 0 0 1-.274.12c-.112.033-.24.064-.383.094-.142.027-.285.051-.427.075l-.388.054a2.653 2.653 0 0 0-.651.174c-.186.08-.33.188-.433.323a.795.795 0 0 0-.154.498c0 .288.105.508.313.661.212.149.481.224.806.224Zm7.455-8.865V756h-2.118v-10.182h2.118Zm8.337 11.455v-12.728h.815v12.728h-.815Zm2.163-8.527c-.04-.401-.211-.712-.512-.934-.302-.222-.711-.333-1.228-.333-.352 0-.648.049-.89.149-.242.096-.428.23-.557.403a.966.966 0 0 0-.189.586.832.832 0 0 0 .114.477c.086.136.204.254.353.353.149.097.322.181.517.254.196.07.405.129.627.179l.915.219c.444.099.851.232 1.223.397.371.166.692.37.964.612s.482.527.631.855c.153.328.231.704.234 1.129-.003.623-.162 1.163-.477 1.62-.312.454-.763.807-1.352 1.059-.587.249-1.295.373-2.123.373-.822 0-1.538-.126-2.148-.378-.607-.252-1.081-.624-1.422-1.118-.338-.497-.515-1.112-.532-1.845h2.083c.023.342.121.627.294.855.175.226.409.396.7.512.295.113.629.169 1 .169.364 0 .681-.053.949-.159.272-.106.483-.253.632-.442.149-.189.223-.406.223-.651a.846.846 0 0 0-.203-.577c-.133-.156-.328-.288-.587-.398a5.928 5.928 0 0 0-.94-.298l-1.108-.278c-.859-.209-1.537-.536-2.034-.98-.497-.444-.744-1.042-.74-1.795-.004-.616.16-1.155.492-1.615.334-.461.794-.821 1.377-1.079.583-.259 1.246-.388 1.989-.388.755 0 1.415.129 1.978.388.567.258 1.008.618 1.323 1.079.315.46.477.994.487 1.6h-2.063Zm3.65 7.254v-10.182h4.077c.749 0 1.374.111 1.874.333.501.222.877.531 1.129.925.251.391.377.842.377 1.352 0 .398-.079.748-.238 1.049a2.055 2.055 0 0 1-.656.736c-.276.189-.59.323-.945.403v.099a2.335 2.335 0 0 1 1.919 1.178c.212.362.318.793.318 1.293 0 .54-.134 1.023-.403 1.447-.265.421-.657.754-1.178.999-.52.245-1.162.368-1.924.368h-4.35Zm2.153-1.76h1.755c.6 0 1.037-.114 1.312-.343.275-.232.413-.54.413-.925 0-.281-.068-.53-.204-.745a1.386 1.386 0 0 0-.582-.508 1.999 1.999 0 0 0-.89-.183h-1.804v2.704Zm0-4.161h1.596c.295 0 .556-.052.785-.154.232-.106.414-.255.547-.448.136-.192.204-.422.204-.691 0-.368-.131-.664-.393-.89-.258-.225-.626-.338-1.104-.338h-1.635v2.521Zm8.858 5.921h-2.307l3.515-10.182h2.774l3.51 10.182h-2.307l-2.55-7.855h-.08L178.517 756Zm-.144-4.002h5.449v1.68h-5.449v-1.68Zm8.862 4.002v-10.182h4.017c.769 0 1.425.138 1.968.413.547.272.963.658 1.248 1.158.289.497.433 1.082.433 1.755 0 .676-.146 1.258-.438 1.745-.291.484-.714.855-1.268 1.114-.55.258-1.216.388-1.998.388h-2.69v-1.73h2.342c.411 0 .752-.057 1.024-.17.272-.112.474-.281.607-.507.135-.225.203-.505.203-.84 0-.338-.068-.623-.203-.855a1.252 1.252 0 0 0-.612-.527c-.272-.123-.615-.184-1.029-.184h-1.452V756h-2.152Zm5.498-4.634 2.531 4.634h-2.377l-2.476-4.634h2.322Zm3.689 4.634v-10.182h2.153v4.49h.134l3.664-4.49h2.58l-3.778 4.559 3.823 5.623h-2.575l-2.789-4.186-1.059 1.293V756h-2.153Zm19.207-5.459-1.939.12a1.019 1.019 0 0 0-.214-.448 1.134 1.134 0 0 0-.433-.323 1.464 1.464 0 0 0-.631-.124c-.328 0-.605.069-.83.208-.226.136-.338.319-.338.547a.59.59 0 0 0 .218.463c.146.126.396.227.751.303l1.382.278c.743.153 1.296.398 1.661.736.364.338.547.782.547 1.333 0 .5-.148.939-.443 1.317-.292.378-.693.673-1.203.885-.507.209-1.092.313-1.755.313-1.011 0-1.816-.21-2.416-.631a2.46 2.46 0 0 1-1.049-1.73l2.083-.11c.063.309.215.544.457.706.242.159.552.239.93.239.371 0 .669-.071.895-.214.229-.146.345-.333.348-.562a.585.585 0 0 0-.244-.472c-.159-.126-.404-.222-.736-.288l-1.322-.264c-.746-.149-1.301-.408-1.665-.775-.362-.368-.542-.837-.542-1.407 0-.491.132-.913.397-1.268.269-.355.645-.628 1.129-.82.487-.193 1.057-.289 1.71-.289.965 0 1.724.204 2.277.612.557.407.882.963.975 1.665Zm6.404 2.208v-4.385h2.118V756h-2.033v-1.387h-.08a2.256 2.256 0 0 1-.86 1.079c-.398.272-.883.407-1.457.407-.51 0-.959-.116-1.347-.348a2.39 2.39 0 0 1-.91-.989c-.215-.427-.324-.94-.328-1.536v-4.862h2.118v4.484c.003.451.124.807.363 1.069.239.262.558.393.96.393.255 0 .493-.058.715-.174.223-.12.401-.295.537-.527.14-.232.208-.519.204-.86Zm3.812 6.115v-10.5h2.088v1.282h.095c.093-.205.227-.414.402-.626a2.11 2.11 0 0 1 .696-.537c.289-.146.647-.219 1.074-.219.557 0 1.071.146 1.541.438.471.288.847.724 1.129 1.307.282.58.423 1.308.423 2.183 0 .852-.138 1.571-.413 2.157-.272.584-.643 1.026-1.114 1.328a2.86 2.86 0 0 1-1.571.447c-.411 0-.76-.068-1.049-.204a2.157 2.157 0 0 1-.701-.512 2.587 2.587 0 0 1-.417-.631h-.065v4.087h-2.118Zm2.073-6.682c0 .454.063.85.189 1.188.126.338.308.602.547.791.239.185.529.278.87.278.345 0 .637-.095.875-.283.239-.193.419-.458.542-.796a3.39 3.39 0 0 0 .189-1.178 3.37 3.37 0 0 0-.184-1.164 1.736 1.736 0 0 0-.542-.785c-.239-.189-.532-.283-.88-.283-.345 0-.636.091-.875.273-.235.182-.416.441-.542.776-.126.334-.189.729-.189 1.183Zm6.787 6.682v-10.5h2.088v1.282h.094c.093-.205.227-.414.403-.626a2.11 2.11 0 0 1 .696-.537c.288-.146.646-.219 1.074-.219.556 0 1.07.146 1.541.438.47.288.847.724 1.128 1.307.282.58.423 1.308.423 2.183 0 .852-.138 1.571-.413 2.157-.271.584-.643 1.026-1.113 1.328a2.862 2.862 0 0 1-1.571.447c-.411 0-.761-.068-1.049-.204a2.147 2.147 0 0 1-.701-.512 2.564 2.564 0 0 1-.418-.631h-.065v4.087h-2.117Zm2.073-6.682c0 .454.063.85.189 1.188.126.338.308.602.546.791.239.185.529.278.871.278.344 0 .636-.095.875-.283a1.77 1.77 0 0 0 .541-.796 3.39 3.39 0 0 0 .189-1.178 3.37 3.37 0 0 0-.184-1.164 1.728 1.728 0 0 0-.542-.785c-.238-.189-.531-.283-.879-.283-.345 0-.637.091-.875.273-.236.182-.416.441-.542.776-.126.334-.189.729-.189 1.183Zm8.904-6.364V756h-2.118v-10.182h2.118Zm3.004 13.046c-.269 0-.52-.022-.756-.065a2.75 2.75 0 0 1-.576-.154l.477-1.581c.248.076.472.118.671.124a.853.853 0 0 0 .522-.139c.149-.099.27-.268.363-.507l.124-.323-2.739-7.855h2.227l1.581 5.608h.08l1.596-5.608h2.242l-2.968 8.461a3.572 3.572 0 0 1-.582 1.074 2.392 2.392 0 0 1-.92.711c-.371.169-.818.254-1.342.254Z" fill="#fff"/>
</svg>
