<svg fill="none" xmlns="http://www.w3.org/2000/svg" viewBox="0 0 985 165">
  <path fill-rule="evenodd" clip-rule="evenodd" d="M55 0C24.624 0 0 24.624 0 55v40.159c0 30.375 24.624 55 55 55h846.818L911.199 165l6.253-14.841h11.917c30.376 0 55-24.625 55-55V55c0-30.376-24.624-55-55-55H55Z" fill="#1DA1F2"/>
  <path d="M81.25 34.55H69.9V64h-6.85V34.55H51.7V28.5h29.55v6.05ZM109.357 64h-6.7V49.3c0-2.033-.4-3.55-1.2-4.55-.767-1-1.833-1.5-3.2-1.5-.8 0-1.65.233-2.55.7-.9.467-1.717 1.117-2.45 1.95-.7.8-1.217 1.733-1.55 2.8V64h-6.7V27.5h6.7v15.15a10.323 10.323 0 0 1 3.95-3.9c1.667-.933 3.483-1.4 5.45-1.4 1.7 0 3.083.3 4.15.9a6.293 6.293 0 0 1 2.5 2.35c.6.967 1.017 2.067 1.25 3.3.233 1.2.35 2.45.35 3.75V64Zm17.976.5c-2.1 0-4-.35-5.7-1.05-1.7-.733-3.15-1.717-4.35-2.95a14.063 14.063 0 0 1-2.8-4.3 14.106 14.106 0 0 1-.95-5.15c0-2.5.55-4.783 1.65-6.85 1.133-2.067 2.733-3.717 4.8-4.95 2.1-1.267 4.566-1.9 7.4-1.9 2.866 0 5.316.633 7.35 1.9 2.033 1.233 3.583 2.883 4.65 4.95 1.1 2.033 1.65 4.233 1.65 6.6 0 .4-.017.817-.05 1.25-.034.4-.067.733-.1 1h-20.25c.133 1.333.516 2.5 1.15 3.5.666 1 1.5 1.767 2.5 2.3 1.033.5 2.133.75 3.3.75a7.742 7.742 0 0 0 3.75-.95c1.2-.667 2.016-1.533 2.45-2.6l5.75 1.6c-.634 1.333-1.55 2.517-2.75 3.55-1.167 1.033-2.55 1.85-4.15 2.45-1.6.567-3.367.85-5.3.85Zm-6.85-15.7h13.7c-.134-1.333-.517-2.483-1.15-3.45-.6-1-1.4-1.767-2.4-2.3-1-.567-2.117-.85-3.35-.85-1.2 0-2.3.283-3.3.85-.967.533-1.767 1.3-2.4 2.3-.6.967-.967 2.117-1.1 3.45Zm38.243-4.5h-3.45v-5.1h3.45v-1.6c0-1.467.234-2.833.7-4.1a10.55 10.55 0 0 1 2.1-3.35 9.41 9.41 0 0 1 3.35-2.3c1.334-.567 2.834-.85 4.5-.85a15.035 15.035 0 0 1 6.75 1.55 23.32 23.32 0 0 1 2.95 1.7l-2.65 5c-.866-.767-1.883-1.383-3.05-1.85a9.482 9.482 0 0 0-3.55-.7c-.966 0-1.783.217-2.45.65-.666.433-1.166 1-1.5 1.7-.3.7-.45 1.467-.45 2.3v1.85h14.05V64h-6.7V44.3h-7.35V64h-6.7V44.3Zm42.418-.7c-2.033 0-3.85.4-5.45 1.2-1.6.767-2.75 1.883-3.45 3.35V64h-6.7V37.8h6.15v5.6c.933-1.8 2.117-3.217 3.55-4.25 1.433-1.033 2.95-1.6 4.55-1.7h.85c.2 0 .367.017.5.05v6.1Zm13.386 20.9a18.72 18.72 0 0 1-6.4-1.1c-2.033-.733-3.783-1.817-5.25-3.25l2.4-4.35c1.567 1.267 3.1 2.2 4.6 2.8 1.533.6 3 .9 4.4.9 1.3 0 2.333-.233 3.1-.7.8-.467 1.2-1.167 1.2-2.1 0-.633-.217-1.117-.65-1.45-.433-.367-1.067-.683-1.9-.95a72.49 72.49 0 0 0-2.95-.9c-1.933-.633-3.55-1.25-4.85-1.85-1.3-.6-2.283-1.35-2.95-2.25-.633-.933-.95-2.117-.95-3.55 0-1.733.433-3.217 1.3-4.45.9-1.267 2.133-2.25 3.7-2.95 1.6-.7 3.467-1.05 5.6-1.05 1.867 0 3.633.3 5.3.9 1.667.567 3.183 1.5 4.55 2.8l-2.7 4.25c-1.333-1.033-2.6-1.783-3.8-2.25-1.2-.5-2.417-.75-3.65-.75-.7 0-1.367.083-2 .25-.6.167-1.1.45-1.5.85-.367.367-.55.9-.55 1.6 0 .633.167 1.133.5 1.5.367.333.9.633 1.6.9.733.267 1.617.567 2.65.9 2.1.6 3.867 1.217 5.3 1.85 1.467.633 2.567 1.417 3.3 2.35.733.9 1.1 2.15 1.1 3.75 0 2.6-.95 4.633-2.85 6.1-1.9 1.467-4.45 2.2-7.65 2.2Zm30.611-1.85c-.567.233-1.25.5-2.05.8-.8.3-1.667.533-2.6.7-.9.2-1.817.3-2.75.3-1.234 0-2.367-.217-3.4-.65a5.557 5.557 0 0 1-2.5-2.05c-.6-.967-.9-2.217-.9-3.75V42.95h-3.45V37.8h3.45v-8.5h6.7v8.5h5.5v5.15h-5.5v12.8c.033.9.283 1.55.75 1.95.466.4 1.05.6 1.75.6s1.383-.117 2.05-.35c.666-.233 1.2-.433 1.6-.6l1.35 5.3Zm25.151 1.85c-2.234 0-4.367-.367-6.4-1.1-2.034-.733-3.784-1.817-5.25-3.25l2.4-4.35c1.566 1.267 3.1 2.2 4.6 2.8 1.533.6 3 .9 4.4.9 1.3 0 2.333-.233 3.1-.7.8-.467 1.2-1.167 1.2-2.1 0-.633-.217-1.117-.65-1.45-.434-.367-1.067-.683-1.9-.95-.8-.267-1.784-.567-2.95-.9-1.934-.633-3.55-1.25-4.85-1.85-1.3-.6-2.284-1.35-2.95-2.25-.634-.933-.95-2.117-.95-3.55 0-1.733.433-3.217 1.3-4.45.9-1.267 2.133-2.25 3.7-2.95 1.6-.7 3.466-1.05 5.6-1.05 1.866 0 3.633.3 5.3.9 1.666.567 3.183 1.5 4.55 2.8l-2.7 4.25c-1.334-1.033-2.6-1.783-3.8-2.25-1.2-.5-2.417-.75-3.65-.75-.7 0-1.367.083-2 .25-.6.167-1.1.45-1.5.85-.367.367-.55.9-.55 1.6 0 .633.166 1.133.5 1.5.366.333.9.633 1.6.9a76.88 76.88 0 0 0 2.65.9c2.1.6 3.866 1.217 5.3 1.85 1.466.633 2.566 1.417 3.3 2.35.733.9 1.1 2.15 1.1 3.75 0 2.6-.95 4.633-2.85 6.1-1.9 1.467-4.45 2.2-7.65 2.2Zm27.157 0c-2.134 0-4.05-.35-5.75-1.05-1.7-.733-3.15-1.733-4.35-3a13.625 13.625 0 0 1-2.7-4.35 14.106 14.106 0 0 1-.95-5.15c0-1.833.316-3.567.95-5.2a13.625 13.625 0 0 1 2.7-4.35c1.2-1.267 2.65-2.25 4.35-2.95 1.7-.733 3.616-1.1 5.75-1.1 2.133 0 4.033.367 5.7 1.1 1.7.7 3.15 1.683 4.35 2.95 1.2 1.267 2.1 2.717 2.7 4.35.633 1.633.95 3.367.95 5.2 0 1.8-.317 3.517-.95 5.15-.6 1.633-1.5 3.083-2.7 4.35-1.167 1.267-2.6 2.267-4.3 3-1.7.7-3.617 1.05-5.75 1.05Zm-6.85-13.55c0 1.533.3 2.9.9 4.1.6 1.167 1.416 2.083 2.45 2.75 1.033.667 2.2 1 3.5 1 1.266 0 2.416-.333 3.45-1 1.033-.7 1.85-1.633 2.45-2.8.633-1.2.95-2.567.95-4.1 0-1.5-.317-2.85-.95-4.05-.6-1.2-1.417-2.133-2.45-2.8-1.034-.667-2.184-1-3.45-1-1.3 0-2.467.35-3.5 1.05-1.034.667-1.85 1.6-2.45 2.8-.6 1.167-.9 2.517-.9 4.05Zm37.272 13.55c-2.133 0-4.05-.35-5.75-1.05-1.7-.733-3.15-1.733-4.35-3a14.541 14.541 0 0 1-2.8-4.4 14.127 14.127 0 0 1-.95-5.15c0-2.467.55-4.717 1.65-6.75 1.133-2.067 2.733-3.717 4.8-4.95 2.067-1.233 4.517-1.85 7.35-1.85 2.833 0 5.267.617 7.3 1.85 2.033 1.233 3.55 2.85 4.55 4.85l-6.55 2c-.567-.967-1.317-1.7-2.25-2.2-.933-.533-1.967-.8-3.1-.8a6.476 6.476 0 0 0-3.5 1c-1.033.633-1.85 1.55-2.45 2.75-.6 1.167-.9 2.533-.9 4.1 0 1.533.3 2.9.9 4.1.633 1.167 1.467 2.1 2.5 2.8 1.033.667 2.183 1 3.45 1 .8 0 1.55-.133 2.25-.4a6.58 6.58 0 0 0 1.95-1.1c.567-.467.983-1 1.25-1.6l6.55 2c-.6 1.3-1.483 2.467-2.65 3.5-1.133 1.033-2.483 1.85-4.05 2.45-1.533.567-3.267.85-5.2.85Zm16.023-.5V37.8h6.7V64h-6.7Zm0-29.85V27.5h6.7v6.65h-6.7Zm10.944 22.1c0-1.7.467-3.183 1.4-4.45.967-1.3 2.3-2.3 4-3 1.7-.7 3.65-1.05 5.85-1.05 1.1 0 2.217.083 3.35.25 1.133.167 2.117.433 2.95.8v-1.4c0-1.667-.5-2.95-1.5-3.85-.967-.9-2.417-1.35-4.35-1.35-1.433 0-2.8.25-4.1.75-1.3.5-2.667 1.233-4.1 2.2l-2.15-4.4c1.733-1.133 3.5-1.983 5.3-2.55 1.833-.567 3.75-.85 5.75-.85 3.733 0 6.633.933 8.7 2.8 2.1 1.867 3.15 4.533 3.15 8v8.35c0 .7.117 1.2.35 1.5.267.3.683.483 1.25.55V64c-.6.1-1.15.183-1.65.25-.467.067-.867.1-1.2.1-1.333 0-2.35-.3-3.05-.9a3.874 3.874 0 0 1-1.25-2.2l-.15-1.35a11.451 11.451 0 0 1-4.25 3.4c-1.7.8-3.433 1.2-5.2 1.2-1.733 0-3.3-.35-4.7-1.05-1.367-.733-2.45-1.717-3.25-2.95-.767-1.267-1.15-2.683-1.15-4.25Zm16.3 1.35c.367-.4.667-.8.9-1.2.233-.4.35-.767.35-1.1v-2.65c-.8-.333-1.667-.583-2.6-.75-.933-.2-1.817-.3-2.65-.3-1.733 0-3.167.383-4.3 1.15-1.1.733-1.65 1.717-1.65 2.95 0 .667.183 1.3.55 1.9.367.6.9 1.083 1.6 1.45.7.367 1.533.55 2.5.55 1 0 1.983-.183 2.95-.55.967-.4 1.75-.883 2.35-1.45Zm14.161-30.1h6.7v28.1c0 1.2.2 2.017.6 2.45.4.4.95.6 1.65.6.533 0 1.083-.067 1.65-.2a7.935 7.935 0 0 0 1.5-.5l.9 5.1c-.9.433-1.95.767-3.15 1-1.2.233-2.284.35-3.25.35-2.1 0-3.734-.55-4.9-1.65-1.134-1.133-1.7-2.733-1.7-4.8V27.5ZM436.213 64h-6.7V49.3c0-2.1-.367-3.633-1.1-4.6-.734-.967-1.75-1.45-3.05-1.45-.9 0-1.817.233-2.75.7-.9.467-1.717 1.117-2.45 1.95a7.305 7.305 0 0 0-1.6 2.8V64h-6.7V37.8h6.05v4.85a9.496 9.496 0 0 1 2.55-2.85c1.033-.8 2.216-1.4 3.55-1.8a14.14 14.14 0 0 1 4.3-.65c1.633 0 2.966.3 4 .9 1.066.567 1.866 1.35 2.4 2.35.566.967.95 2.067 1.15 3.3.233 1.233.35 2.483.35 3.75V64Zm17.975.5c-2.1 0-4-.35-5.7-1.05-1.7-.733-3.15-1.717-4.35-2.95a14.082 14.082 0 0 1-2.8-4.3 14.127 14.127 0 0 1-.95-5.15c0-2.5.55-4.783 1.65-6.85 1.134-2.067 2.734-3.717 4.8-4.95 2.1-1.267 4.567-1.9 7.4-1.9 2.867 0 5.317.633 7.35 1.9 2.034 1.233 3.584 2.883 4.65 4.95 1.1 2.033 1.65 4.233 1.65 6.6 0 .4-.016.817-.05 1.25-.033.4-.066.733-.1 1h-20.25c.134 1.333.517 2.5 1.15 3.5.667 1 1.5 1.767 2.5 2.3 1.034.5 2.134.75 3.3.75a7.737 7.737 0 0 0 3.75-.95c1.2-.667 2.017-1.533 2.45-2.6l5.75 1.6c-.633 1.333-1.55 2.517-2.75 3.55-1.166 1.033-2.55 1.85-4.15 2.45-1.6.567-3.366.85-5.3.85Zm-6.85-15.7h13.7c-.133-1.333-.516-2.483-1.15-3.45-.6-1-1.4-1.767-2.4-2.3-1-.567-2.116-.85-3.35-.85-1.2 0-2.3.283-3.3.85-.966.533-1.766 1.3-2.4 2.3-.6.967-.966 2.117-1.1 3.45Zm40.088 13.85c-.567.233-1.25.5-2.05.8-.8.3-1.667.533-2.6.7-.9.2-1.817.3-2.75.3-1.234 0-2.367-.217-3.4-.65a5.557 5.557 0 0 1-2.5-2.05c-.6-.967-.9-2.217-.9-3.75V42.95h-3.45V37.8h3.45v-8.5h6.7v8.5h5.5v5.15h-5.5v12.8c.033.9.283 1.55.75 1.95.466.4 1.05.6 1.75.6s1.383-.117 2.05-.35c.666-.233 1.2-.433 1.6-.6l1.35 5.3Zm35.892-24.85h6.35L518.718 64h-5.6l-4.4-11.25-4.3 11.25h-5.65l-10.9-26.2h6.3l7.8 19.8 3.05-8.55-4.55-11.2h5.55l2.7 8 2.75-8h5.55l-4.55 11.2 3.1 8.55 7.75-19.8Zm20.664 26.7c-2.133 0-4.05-.35-5.75-1.05-1.7-.733-3.15-1.733-4.35-3a13.625 13.625 0 0 1-2.7-4.35 14.127 14.127 0 0 1-.95-5.15c0-1.833.317-3.567.95-5.2a13.625 13.625 0 0 1 2.7-4.35c1.2-1.267 2.65-2.25 4.35-2.95 1.7-.733 3.617-1.1 5.75-1.1s4.033.367 5.7 1.1c1.7.7 3.15 1.683 4.35 2.95 1.2 1.267 2.1 2.717 2.7 4.35.633 1.633.95 3.367.95 5.2 0 1.8-.317 3.517-.95 5.15-.6 1.633-1.5 3.083-2.7 4.35-1.167 1.267-2.6 2.267-4.3 3-1.7.7-3.617 1.05-5.75 1.05Zm-6.85-13.55c0 1.533.3 2.9.9 4.1.6 1.167 1.417 2.083 2.45 2.75 1.033.667 2.2 1 3.5 1 1.267 0 2.417-.333 3.45-1 1.033-.7 1.85-1.633 2.45-2.8.633-1.2.95-2.567.95-4.1 0-1.5-.317-2.85-.95-4.05-.6-1.2-1.417-2.133-2.45-2.8-1.033-.667-2.183-1-3.45-1-1.3 0-2.467.35-3.5 1.05-1.033.667-1.85 1.6-2.45 2.8-.6 1.167-.9 2.517-.9 4.05Zm40.672-7.35c-2.033 0-3.85.4-5.45 1.2-1.6.767-2.75 1.883-3.45 3.35V64h-6.7V37.8h6.15v5.6c.934-1.8 2.117-3.217 3.55-4.25 1.434-1.033 2.95-1.6 4.55-1.7h.85c.2 0 .367.017.5.05v6.1ZM599.44 64l-7.65-11.3-3.55 3.5V64h-6.7V27.5h6.7v22.1l10.55-11.75h7.1l-9.75 11.1L606.59 64h-7.15Zm37.693.5c-2.034 0-3.834-.45-5.4-1.35a9.958 9.958 0 0 1-3.6-3.75v15.25h-6.7V37.8h5.85v4.5c1-1.533 2.266-2.733 3.8-3.6 1.533-.9 3.283-1.35 5.25-1.35 1.766 0 3.383.35 4.85 1.05 1.5.7 2.8 1.683 3.9 2.95 1.1 1.233 1.95 2.667 2.55 4.3.633 1.6.95 3.333.95 5.2 0 2.533-.5 4.833-1.5 6.9-.967 2.067-2.317 3.717-4.05 4.95-1.7 1.2-3.667 1.8-5.9 1.8Zm-2.25-5.7c1.033 0 1.966-.217 2.8-.65a6.817 6.817 0 0 0 2.15-1.75 7.651 7.651 0 0 0 1.4-2.55c.333-.967.5-1.967.5-3 0-1.1-.184-2.117-.55-3.05a6.868 6.868 0 0 0-1.5-2.45 6.973 6.973 0 0 0-2.35-1.7c-.867-.4-1.817-.6-2.85-.6-.634 0-1.284.117-1.95.35-.634.2-1.25.5-1.85.9-.6.4-1.134.867-1.6 1.4a5.264 5.264 0 0 0-.95 1.75v6.15c.4.967.933 1.85 1.6 2.65.7.8 1.5 1.433 2.4 1.9.9.433 1.816.65 2.75.65Zm30.339 5.7c-2.133 0-4.05-.35-5.75-1.05-1.7-.733-3.15-1.733-4.35-3a13.66 13.66 0 0 1-2.7-4.35 14.127 14.127 0 0 1-.95-5.15c0-1.833.317-3.567.95-5.2a13.66 13.66 0 0 1 2.7-4.35c1.2-1.267 2.65-2.25 4.35-2.95 1.7-.733 3.617-1.1 5.75-1.1 2.134 0 4.034.367 5.7 1.1 1.7.7 3.15 1.683 4.35 2.95 1.2 1.267 2.1 2.717 2.7 4.35.634 1.633.95 3.367.95 5.2 0 1.8-.316 3.517-.95 5.15-.6 1.633-1.5 3.083-2.7 4.35-1.166 1.267-2.6 2.267-4.3 3-1.7.7-3.616 1.05-5.75 1.05Zm-6.85-13.55c0 1.533.3 2.9.9 4.1.6 1.167 1.417 2.083 2.45 2.75 1.034.667 2.2 1 3.5 1 1.267 0 2.417-.333 3.45-1 1.034-.7 1.85-1.633 2.45-2.8.634-1.2.95-2.567.95-4.1 0-1.5-.316-2.85-.95-4.05-.6-1.2-1.416-2.133-2.45-2.8-1.033-.667-2.183-1-3.45-1-1.3 0-2.466.35-3.5 1.05-1.033.667-1.85 1.6-2.45 2.8-.6 1.167-.9 2.517-.9 4.05Zm56.694-13.15h6.35L710.466 64h-5.6l-4.4-11.25-4.3 11.25h-5.65l-10.9-26.2h6.3l7.8 19.8 3.05-8.55-4.55-11.2h5.55l2.7 8 2.75-8h5.55l-4.55 11.2 3.1 8.55 7.75-19.8Zm20.714 26.7c-2.1 0-4-.35-5.7-1.05-1.7-.733-3.15-1.717-4.35-2.95a14.082 14.082 0 0 1-2.8-4.3 14.127 14.127 0 0 1-.95-5.15c0-2.5.55-4.783 1.65-6.85 1.133-2.067 2.733-3.717 4.8-4.95 2.1-1.267 4.567-1.9 7.4-1.9 2.867 0 5.317.633 7.35 1.9 2.033 1.233 3.583 2.883 4.65 4.95 1.1 2.033 1.65 4.233 1.65 6.6 0 .4-.017.817-.05 1.25-.033.4-.067.733-.1 1h-20.25c.133 1.333.517 2.5 1.15 3.5.667 1 1.5 1.767 2.5 2.3 1.033.5 2.133.75 3.3.75a7.742 7.742 0 0 0 3.75-.95c1.2-.667 2.017-1.533 2.45-2.6l5.75 1.6c-.633 1.333-1.55 2.517-2.75 3.55-1.167 1.033-2.55 1.85-4.15 2.45-1.6.567-3.367.85-5.3.85Zm-6.85-15.7h13.7c-.133-1.333-.517-2.483-1.15-3.45-.6-1-1.4-1.767-2.4-2.3-1-.567-2.117-.85-3.35-.85-1.2 0-2.3.283-3.3.85-.967.533-1.767 1.3-2.4 2.3-.6.967-.967 2.117-1.1 3.45Zm40.232-5.2c-2.034 0-3.85.4-5.45 1.2-1.6.767-2.75 1.883-3.45 3.35V64h-6.7V37.8h6.15v5.6c.933-1.8 2.116-3.217 3.55-4.25 1.433-1.033 2.95-1.6 4.55-1.7h.85c.2 0 .366.017.5.05v6.1Zm15.544 20.9c-2.1 0-4-.35-5.7-1.05-1.7-.733-3.15-1.717-4.35-2.95a14.082 14.082 0 0 1-2.8-4.3 14.127 14.127 0 0 1-.95-5.15c0-2.5.55-4.783 1.65-6.85 1.133-2.067 2.733-3.717 4.8-4.95 2.1-1.267 4.567-1.9 7.4-1.9 2.867 0 5.317.633 7.35 1.9 2.033 1.233 3.583 2.883 4.65 4.95 1.1 2.033 1.65 4.233 1.65 6.6 0 .4-.017.817-.05 1.25-.033.4-.067.733-.1 1h-20.25c.133 1.333.517 2.5 1.15 3.5.667 1 1.5 1.767 2.5 2.3 1.033.5 2.133.75 3.3.75a7.742 7.742 0 0 0 3.75-.95c1.2-.667 2.017-1.533 2.45-2.6l5.75 1.6c-.633 1.333-1.55 2.517-2.75 3.55-1.167 1.033-2.55 1.85-4.15 2.45-1.6.567-3.367.85-5.3.85Zm-6.85-15.7h13.7c-.133-1.333-.517-2.483-1.15-3.45-.6-1-1.4-1.767-2.4-2.3-1-.567-2.117-.85-3.35-.85-1.2 0-2.3.283-3.3.85-.967.533-1.767 1.3-2.4 2.3-.6.967-.967 2.117-1.1 3.45Zm23.032 2.1c0-2.533.5-4.817 1.5-6.85 1-2.067 2.383-3.7 4.15-4.9 1.766-1.2 3.783-1.8 6.05-1.8 1.933 0 3.666.483 5.2 1.45 1.566.933 2.783 2.133 3.65 3.6V27.5h6.7v29c0 .7.116 1.2.35 1.5.233.3.633.483 1.2.55V64c-1.167.233-2.117.35-2.85.35-1.2 0-2.2-.3-3-.9a3.301 3.301 0 0 1-1.3-2.35l-.1-1.65a9.728 9.728 0 0 1-3.95 3.75c-1.634.867-3.35 1.3-5.15 1.3-1.8 0-3.467-.35-5-1.05-1.5-.7-2.817-1.667-3.95-2.9-1.1-1.233-1.967-2.667-2.6-4.3-.6-1.667-.9-3.45-.9-5.35Zm20.55 3.5v-6.25a7.07 7.07 0 0 0-1.6-2.6 8.462 8.462 0 0 0-2.45-1.8c-.9-.467-1.8-.7-2.7-.7-1.034 0-1.967.217-2.8.65a7.386 7.386 0 0 0-2.2 1.75 8.206 8.206 0 0 0-1.4 2.55c-.3.967-.45 1.983-.45 3.05 0 1.067.166 2.083.5 3.05a7.46 7.46 0 0 0 1.55 2.45c.666.7 1.433 1.25 2.3 1.65.9.4 1.866.6 2.9.6.633 0 1.266-.1 1.9-.3a8.67 8.67 0 0 0 1.85-.9c.6-.4 1.116-.867 1.55-1.4a6.228 6.228 0 0 0 1.05-1.8ZM68.95 123.5c-2 0-3.783-.45-5.35-1.35a9.854 9.854 0 0 1-3.7-3.7V123h-5.85V86.5h6.7v14.9c.933-1.567 2.15-2.8 3.65-3.7 1.533-.9 3.317-1.35 5.35-1.35 1.7 0 3.25.367 4.65 1.1 1.4.7 2.6 1.683 3.6 2.95 1.033 1.267 1.817 2.717 2.35 4.35.567 1.633.85 3.383.85 5.25s-.317 3.617-.95 5.25a13.863 13.863 0 0 1-2.55 4.35 11.94 11.94 0 0 1-3.9 2.9c-1.467.667-3.083 1-4.85 1Zm-1.85-5.7c1.067 0 2.033-.2 2.9-.6.9-.433 1.667-1 2.3-1.7a6.851 6.851 0 0 0 1.5-2.45c.367-.967.55-1.967.55-3 0-1.433-.3-2.75-.9-3.95-.567-1.233-1.367-2.217-2.4-2.95-1-.733-2.183-1.1-3.55-1.1-.967 0-1.9.233-2.8.7a8.035 8.035 0 0 0-2.35 1.8 9.42 9.42 0 0 0-1.6 2.6v6.25c.2.667.517 1.267.95 1.8.467.533 1 1 1.6 1.4.6.367 1.217.667 1.85.9.667.2 1.317.3 1.95.3Zm18.31 10.3c.6.133 1.15.25 1.65.35.534.1.984.15 1.35.15.634 0 1.15-.167 1.55-.5.434-.3.85-.867 1.25-1.7.4-.8.817-1.933 1.25-3.4L82.11 96.8h6.95l7.05 19.35 6.201-19.35h6.4l-11 31.4a9.13 9.13 0 0 1-1.85 3.15c-.8.967-1.817 1.717-3.05 2.25-1.2.567-2.55.85-4.05.85-.534 0-1.067-.05-1.6-.15a9.998 9.998 0 0 1-1.75-.4v-5.8Zm59.483-31.3c-.233-.233-.667-.55-1.3-.95-.6-.4-1.35-.783-2.25-1.15a20.422 20.422 0 0 0-2.85-.95 11.24 11.24 0 0 0-3.15-.45c-1.867 0-3.283.35-4.25 1.05-.933.7-1.4 1.683-1.4 2.95 0 .967.3 1.733.9 2.3.6.567 1.5 1.05 2.7 1.45 1.2.4 2.7.833 4.5 1.3 2.333.567 4.35 1.267 6.05 2.1 1.733.8 3.05 1.867 3.95 3.2.933 1.3 1.4 3.033 1.4 5.2 0 1.9-.35 3.533-1.05 4.9a8.793 8.793 0 0 1-2.9 3.25c-1.233.833-2.633 1.45-4.2 1.85-1.567.367-3.233.55-5 .55s-3.533-.183-5.3-.55a29.112 29.112 0 0 1-5.1-1.55 24.425 24.425 0 0 1-4.5-2.5l3.05-5.95c.3.3.833.7 1.6 1.2.767.467 1.7.95 2.8 1.45 1.1.467 2.3.867 3.6 1.2 1.3.333 2.617.5 3.95.5 1.867 0 3.283-.317 4.25-.95.967-.633 1.45-1.533 1.45-2.7 0-1.067-.383-1.9-1.15-2.5-.767-.6-1.833-1.117-3.2-1.55a100.917 100.917 0 0 0-4.85-1.5c-2.233-.633-4.1-1.333-5.6-2.1-1.5-.8-2.617-1.8-3.35-3-.733-1.2-1.1-2.7-1.1-4.5 0-2.433.567-4.467 1.7-6.1 1.167-1.667 2.733-2.917 4.7-3.75 1.967-.867 4.15-1.3 6.55-1.3 1.667 0 3.233.183 4.7.55 1.5.367 2.9.85 4.2 1.45 1.3.6 2.467 1.25 3.5 1.95l-3.05 5.6Zm33.116 26.2h-6.7v-14.7c0-2.033-.4-3.55-1.2-4.55-.766-1-1.833-1.5-3.2-1.5-.8 0-1.65.233-2.55.7-.9.467-1.716 1.117-2.45 1.95-.7.8-1.216 1.733-1.55 2.8V123h-6.7V86.5h6.7v15.15a10.329 10.329 0 0 1 3.95-3.9c1.667-.933 3.484-1.4 5.45-1.4 1.7 0 3.084.3 4.15.9a6.293 6.293 0 0 1 2.5 2.35c.6.967 1.017 2.067 1.25 3.3.234 1.2.35 2.45.35 3.75V123Zm5.826 0V96.8h6.7V123h-6.7Zm0-29.85V86.5h6.7v6.65h-6.7Zm27.644 30.35c-2 0-3.783-.45-5.35-1.35a9.86 9.86 0 0 1-3.7-3.7V123h-5.85V86.5h6.7v14.9c.934-1.567 2.15-2.8 3.65-3.7 1.534-.9 3.317-1.35 5.35-1.35 1.7 0 3.25.367 4.65 1.1 1.4.7 2.6 1.683 3.6 2.95 1.034 1.267 1.817 2.717 2.35 4.35.567 1.633.85 3.383.85 5.25s-.316 3.617-.95 5.25a13.863 13.863 0 0 1-2.55 4.35 11.94 11.94 0 0 1-3.9 2.9c-1.466.667-3.083 1-4.85 1Zm-1.85-5.7c1.067 0 2.034-.2 2.9-.6.9-.433 1.667-1 2.3-1.7a6.843 6.843 0 0 0 1.5-2.45c.367-.967.55-1.967.55-3 0-1.433-.3-2.75-.9-3.95-.566-1.233-1.366-2.217-2.4-2.95-1-.733-2.183-1.1-3.55-1.1-.966 0-1.9.233-2.8.7a8.044 8.044 0 0 0-2.35 1.8 9.437 9.437 0 0 0-1.6 2.6v6.25c.2.667.517 1.267.95 1.8.467.533 1 1 1.6 1.4.6.367 1.217.667 1.85.9.667.2 1.317.3 1.95.3Zm16.84-2.55c0-1.7.466-3.183 1.4-4.45.966-1.3 2.3-2.3 4-3 1.7-.7 3.65-1.05 5.85-1.05 1.1 0 2.216.083 3.35.25 1.133.167 2.116.433 2.95.8v-1.4c0-1.667-.5-2.95-1.5-3.85-.967-.9-2.417-1.35-4.35-1.35-1.434 0-2.8.25-4.1.75-1.3.5-2.667 1.233-4.1 2.2l-2.15-4.4c1.733-1.133 3.5-1.983 5.3-2.55 1.833-.567 3.75-.85 5.75-.85 3.733 0 6.633.933 8.7 2.8 2.1 1.867 3.15 4.533 3.15 8v8.35c0 .7.116 1.2.35 1.5.266.3.683.483 1.25.55V123c-.6.1-1.15.183-1.65.25-.467.067-.867.1-1.2.1-1.334 0-2.35-.3-3.05-.9a3.867 3.867 0 0 1-1.25-2.2l-.15-1.35a11.456 11.456 0 0 1-4.25 3.4c-1.7.8-3.434 1.2-5.2 1.2-1.734 0-3.3-.35-4.7-1.05-1.367-.733-2.45-1.717-3.25-2.95-.767-1.267-1.15-2.683-1.15-4.25Zm16.3 1.35c.366-.4.666-.8.9-1.2.233-.4.35-.767.35-1.1v-2.65a12.46 12.46 0 0 0-2.6-.75c-.934-.2-1.817-.3-2.65-.3-1.734 0-3.167.383-4.3 1.15-1.1.733-1.65 1.717-1.65 2.95 0 .667.183 1.3.55 1.9.366.6.9 1.083 1.6 1.45.7.367 1.533.55 2.5.55 1 0 1.983-.183 2.95-.55.966-.4 1.75-.883 2.35-1.45Zm29.811-14c-2.034 0-3.85.4-5.45 1.2-1.6.767-2.75 1.883-3.45 3.35V123h-6.7V96.8h6.15v5.6c.933-1.8 2.116-3.217 3.55-4.25 1.433-1.033 2.95-1.6 4.55-1.7h.85c.2 0 .366.017.5.05v6.1Zm3.736 20.4V96.8h6.7V123h-6.7Zm0-29.85V86.5h6.7v6.65h-6.7Zm12.494 20.05V96.8h6.7v14.95c0 2 .366 3.517 1.1 4.55.733 1 1.816 1.5 3.25 1.5.866 0 1.716-.167 2.55-.5.866-.367 1.65-.9 2.35-1.6.733-.7 1.35-1.583 1.85-2.65V96.8h6.7v18.7c0 .7.116 1.2.35 1.5.266.3.683.483 1.25.55V123c-.667.1-1.234.167-1.7.2-.434.067-.834.1-1.2.1-1.2 0-2.184-.267-2.95-.8-.734-.567-1.167-1.333-1.3-2.3l-.15-2.1c-1.167 1.767-2.667 3.117-4.5 4.05-1.834.9-3.85 1.35-6.05 1.35-2.7 0-4.75-.867-6.15-2.6-1.4-1.767-2.1-4.333-2.1-7.7Zm71.858 9.8h-6.7v-14.7c0-2.067-.367-3.583-1.1-4.55-.7-1-1.683-1.5-2.95-1.5-1.3 0-2.55.517-3.75 1.55-1.167 1-2 2.317-2.5 3.95V123h-6.7v-14.7c0-2.1-.367-3.633-1.1-4.6-.7-.967-1.683-1.45-2.95-1.45-1.3 0-2.55.5-3.75 1.5-1.167 1-2 2.317-2.5 3.95V123h-6.7V96.8h6.05v4.85c1-1.7 2.333-3 4-3.9 1.667-.933 3.583-1.4 5.75-1.4s3.85.533 5.05 1.6c1.233 1.067 2.017 2.383 2.35 3.95 1.067-1.8 2.417-3.167 4.05-4.1 1.667-.967 3.533-1.45 5.6-1.45 1.633 0 2.95.3 3.95.9a6.036 6.036 0 0 1 2.4 2.35c.567.967.95 2.067 1.15 3.3.233 1.233.35 2.483.35 3.75V123Z" fill="#fff"/>
</svg>
