<svg fill="none" xmlns="http://www.w3.org/2000/svg" viewBox="0 0 286 78">
  <rect width="286" height="71" rx="35.5" fill="#1DA1F2"/>
  <path d="M34.1 18.22h-4.54V30h-2.74V18.22h-4.54V15.8H34.1v2.42ZM45.343 30h-2.68v-5.88c0-.813-.16-1.42-.48-1.82-.307-.4-.733-.6-1.28-.6-.32 0-.66.093-1.02.28-.36.187-.687.447-.98.78-.28.32-.487.693-.62 1.12V30h-2.68V15.4h2.68v6.06a4.129 4.129 0 0 1 1.58-1.56 4.387 4.387 0 0 1 2.18-.56c.68 0 1.233.12 1.66.36.426.227.76.54 1 .94.24.387.406.827.5 1.32.093.48.14.98.14 1.5V30Zm7.19.2c-.84 0-1.6-.14-2.28-.42a5.354 5.354 0 0 1-1.74-1.18 5.631 5.631 0 0 1-1.12-1.72 5.649 5.649 0 0 1-.38-2.06c0-1 .22-1.913.66-2.74a5.165 5.165 0 0 1 1.92-1.98c.84-.507 1.827-.76 2.96-.76 1.147 0 2.127.253 2.94.76a4.917 4.917 0 0 1 1.86 1.98c.44.813.66 1.693.66 2.64 0 .16-.006.327-.02.5-.013.16-.026.293-.04.4h-8.1c.053.533.207 1 .46 1.4.267.4.6.707 1 .92.413.2.853.3 1.32.3.533 0 1.033-.127 1.5-.38.48-.267.807-.613.98-1.04l2.3.64a4.302 4.302 0 0 1-1.1 1.42 5.26 5.26 0 0 1-1.66.98c-.64.227-1.346.34-2.12.34Zm-2.74-6.28h5.48c-.053-.533-.207-.993-.46-1.38-.24-.4-.56-.707-.96-.92a2.67 2.67 0 0 0-1.34-.34c-.48 0-.92.113-1.32.34-.386.213-.706.52-.96.92-.24.387-.386.847-.44 1.38Zm15.298-1.8h-1.38v-2.04h1.38v-.64c0-.587.093-1.133.28-1.64.2-.507.48-.953.84-1.34.373-.4.82-.707 1.34-.92.533-.227 1.133-.34 1.8-.34a6.014 6.014 0 0 1 2.7.62c.413.2.806.427 1.18.68l-1.06 2a4.148 4.148 0 0 0-1.22-.74 3.794 3.794 0 0 0-1.42-.28c-.387 0-.714.087-.98.26-.267.173-.467.4-.6.68-.12.28-.18.587-.18.92v.74h5.62V30h-2.68v-7.88h-2.94V30h-2.68v-7.88Zm16.967-.28c-.814 0-1.54.16-2.18.48-.64.307-1.1.753-1.38 1.34V30h-2.68V19.52h2.46v2.24c.373-.72.846-1.287 1.42-1.7.573-.413 1.18-.64 1.82-.68h.34c.08 0 .146.007.2.02v2.44Zm5.354 8.36a7.489 7.489 0 0 1-2.56-.44 5.756 5.756 0 0 1-2.1-1.3l.96-1.74c.627.507 1.24.88 1.84 1.12.613.24 1.2.36 1.76.36.52 0 .933-.093 1.24-.28a.912.912 0 0 0 .48-.84c0-.253-.087-.447-.26-.58-.173-.147-.427-.273-.76-.38-.32-.107-.713-.227-1.18-.36-.773-.253-1.42-.5-1.94-.74s-.913-.54-1.18-.9c-.253-.373-.38-.847-.38-1.42 0-.693.173-1.287.52-1.78.36-.507.853-.9 1.48-1.18.64-.28 1.387-.42 2.24-.42.747 0 1.453.12 2.12.36.667.227 1.273.6 1.82 1.12l-1.08 1.7c-.533-.413-1.04-.713-1.52-.9-.48-.2-.967-.3-1.46-.3-.28 0-.547.033-.8.1-.24.067-.44.18-.6.34-.147.147-.22.36-.22.64 0 .253.067.453.2.6.147.133.36.253.64.36.293.107.647.227 1.06.36.84.24 1.547.487 2.12.74.587.253 1.027.567 1.32.94.293.36.44.86.44 1.5 0 1.04-.38 1.853-1.14 2.44-.76.587-1.78.88-3.06.88Zm12.244-.74c-.226.093-.5.2-.82.32-.32.12-.666.213-1.04.28-.36.08-.726.12-1.1.12-.493 0-.946-.087-1.36-.26a2.224 2.224 0 0 1-1-.82c-.24-.387-.36-.887-.36-1.5v-6.02h-1.38v-2.06h1.38v-3.4h2.68v3.4h2.2v2.06h-2.2v5.12c.014.36.114.62.3.78.187.16.42.24.7.24.28 0 .554-.047.82-.14.267-.093.48-.173.64-.24l.54 2.12Zm14.921-9.94a3.336 3.336 0 0 0-.52-.38c-.24-.16-.54-.313-.9-.46a8.186 8.186 0 0 0-1.14-.38 4.504 4.504 0 0 0-1.26-.18c-.747 0-1.314.14-1.7.42-.374.28-.56.673-.56 1.18 0 .387.12.693.36.92.24.227.6.42 1.08.58.48.16 1.08.333 1.8.52.933.227 1.74.507 2.42.84.693.32 1.22.747 1.58 1.28.373.52.56 1.213.56 2.08 0 .76-.14 1.413-.42 1.96-.28.533-.667.967-1.16 1.3a5.341 5.341 0 0 1-1.68.74 8.761 8.761 0 0 1-2 .22c-.707 0-1.414-.073-2.12-.22a11.634 11.634 0 0 1-2.04-.62 9.724 9.724 0 0 1-1.8-1l1.22-2.38c.12.12.333.28.64.48.306.187.68.38 1.12.58.44.187.92.347 1.44.48.52.133 1.046.2 1.58.2.746 0 1.313-.127 1.7-.38.386-.253.58-.613.58-1.08 0-.427-.154-.76-.46-1-.307-.24-.734-.447-1.28-.62a40.957 40.957 0 0 0-1.94-.6c-.894-.253-1.64-.533-2.24-.84-.6-.32-1.047-.72-1.34-1.2-.294-.48-.44-1.08-.44-1.8 0-.973.226-1.787.68-2.44a4.27 4.27 0 0 1 1.88-1.5c.786-.347 1.66-.52 2.62-.52.666 0 1.293.073 1.88.22.6.147 1.16.34 1.68.58.52.24.986.5 1.4.78l-1.22 2.24Zm8.385 10.68c-.853 0-1.62-.14-2.3-.42a5.202 5.202 0 0 1-1.74-1.2 5.479 5.479 0 0 1-1.08-1.74 5.655 5.655 0 0 1-.38-2.06c0-.733.127-1.427.38-2.08a5.479 5.479 0 0 1 1.08-1.74c.48-.507 1.06-.9 1.74-1.18.68-.293 1.447-.44 2.3-.44.854 0 1.614.147 2.28.44.68.28 1.26.673 1.74 1.18.48.507.84 1.087 1.08 1.74.254.653.38 1.347.38 2.08 0 .72-.126 1.407-.38 2.06-.24.653-.6 1.233-1.08 1.74a4.983 4.983 0 0 1-1.72 1.2c-.68.28-1.446.42-2.3.42Zm-2.74-5.42c0 .613.12 1.16.36 1.64.24.467.567.833.98 1.1.414.267.88.4 1.4.4a2.49 2.49 0 0 0 1.38-.4c.414-.28.74-.653.98-1.12.254-.48.38-1.027.38-1.64 0-.6-.126-1.14-.38-1.62a2.77 2.77 0 0 0-.98-1.12 2.49 2.49 0 0 0-1.38-.4c-.52 0-.986.14-1.4.42-.413.267-.74.64-.98 1.12-.24.467-.36 1.007-.36 1.62Zm14.909 5.42c-.853 0-1.62-.14-2.3-.42a5.202 5.202 0 0 1-1.74-1.2 5.82 5.82 0 0 1-1.12-1.76 5.655 5.655 0 0 1-.38-2.06c0-.987.22-1.887.66-2.7a5.173 5.173 0 0 1 1.92-1.98c.827-.493 1.807-.74 2.94-.74 1.134 0 2.107.247 2.92.74.814.493 1.42 1.14 1.82 1.94l-2.62.8a2.273 2.273 0 0 0-.9-.88 2.453 2.453 0 0 0-1.24-.32c-.506 0-.973.133-1.4.4-.413.253-.74.62-.98 1.1-.24.467-.36 1.013-.36 1.64 0 .613.12 1.16.36 1.64.254.467.587.84 1 1.12.414.267.874.4 1.38.4.32 0 .62-.053.9-.16.294-.107.554-.253.78-.44.227-.187.394-.4.5-.64l2.62.8c-.24.52-.593.987-1.06 1.4-.453.413-.993.74-1.62.98-.613.227-1.306.34-2.08.34Zm6.409-.2V19.52h2.68V30h-2.68Zm0-11.94V15.4h2.68v2.66h-2.68Zm4.378 8.84c0-.68.187-1.273.56-1.78.387-.52.92-.92 1.6-1.2.68-.28 1.46-.42 2.34-.42.44 0 .887.033 1.34.1.453.067.847.173 1.18.32v-.56c0-.667-.2-1.18-.6-1.54-.387-.36-.967-.54-1.74-.54-.573 0-1.12.1-1.64.3-.52.2-1.067.493-1.64.88l-.86-1.76a8.581 8.581 0 0 1 2.12-1.02c.733-.227 1.5-.34 2.3-.34 1.493 0 2.653.373 3.48 1.12.84.747 1.26 1.813 1.26 3.2V27c0 .28.047.48.14.6.107.12.273.193.5.22V30c-.24.04-.46.073-.66.1-.187.027-.347.04-.48.04-.533 0-.94-.12-1.22-.36a1.55 1.55 0 0 1-.5-.88l-.06-.54a4.579 4.579 0 0 1-1.7 1.36c-.68.32-1.373.48-2.08.48-.693 0-1.32-.14-1.88-.42a3.473 3.473 0 0 1-1.3-1.18 3.216 3.216 0 0 1-.46-1.7Zm6.52.54c.147-.16.267-.32.36-.48a.891.891 0 0 0 .14-.44v-1.06a4.976 4.976 0 0 0-1.04-.3 5.066 5.066 0 0 0-1.06-.12c-.693 0-1.267.153-1.72.46-.44.293-.66.687-.66 1.18 0 .267.073.52.22.76.147.24.36.433.64.58.28.147.613.22 1 .22.4 0 .793-.073 1.18-.22.387-.16.7-.353.94-.58Zm5.664-12.04h2.68v11.24c0 .48.08.807.24.98.16.16.38.24.66.24.214 0 .434-.027.66-.08.227-.053.427-.12.6-.2l.36 2.04c-.36.173-.78.307-1.26.4-.48.093-.913.14-1.3.14-.84 0-1.493-.22-1.96-.66-.453-.453-.68-1.093-.68-1.92V15.4Zm13.646 5.48V30h-2.76V15.8h2.2l7.34 9.36v-9.34h2.76V30h-2.3l-7.24-9.12Zm16.918 9.32c-.84 0-1.6-.14-2.28-.42a5.354 5.354 0 0 1-1.74-1.18 5.637 5.637 0 0 1-1.12-1.72 5.655 5.655 0 0 1-.38-2.06c0-1 .22-1.913.66-2.74a5.159 5.159 0 0 1 1.92-1.98c.84-.507 1.827-.76 2.96-.76 1.147 0 2.127.253 2.94.76a4.923 4.923 0 0 1 1.86 1.98c.44.813.66 1.693.66 2.64a6.7 6.7 0 0 1-.02.5c-.013.16-.027.293-.04.4h-8.1c.053.533.207 1 .46 1.4.267.4.6.707 1 .92.413.2.853.3 1.32.3.533 0 1.033-.127 1.5-.38.48-.267.807-.613.98-1.04l2.3.64a4.298 4.298 0 0 1-1.1 1.42c-.467.413-1.02.74-1.66.98-.64.227-1.347.34-2.12.34Zm-2.74-6.28h5.48c-.053-.533-.207-.993-.46-1.38-.24-.4-.56-.707-.96-.92a2.67 2.67 0 0 0-1.34-.34c-.48 0-.92.113-1.32.34-.387.213-.707.52-.96.92-.24.387-.387.847-.44 1.38Zm16.035 5.54c-.227.093-.5.2-.82.32-.32.12-.667.213-1.04.28-.36.08-.727.12-1.1.12-.493 0-.947-.087-1.36-.26a2.225 2.225 0 0 1-1-.82c-.24-.387-.36-.887-.36-1.5v-6.02h-1.38v-2.06h1.38v-3.4h2.68v3.4h2.2v2.06h-2.2v5.12c.013.36.113.62.3.78.187.16.42.24.7.24.28 0 .553-.047.82-.14.267-.093.48-.173.64-.24l.54 2.12Zm14.357-9.94h2.54L214.478 30h-2.24l-1.76-4.5-1.72 4.5h-2.26l-4.36-10.48h2.52l3.12 7.92 1.22-3.42-1.82-4.48h2.22l1.08 3.2 1.1-3.2h2.22l-1.82 4.48 1.24 3.42 3.1-7.92Zm8.265 10.68c-.853 0-1.62-.14-2.3-.42a5.202 5.202 0 0 1-1.74-1.2 5.479 5.479 0 0 1-1.08-1.74 5.655 5.655 0 0 1-.38-2.06c0-.733.127-1.427.38-2.08a5.479 5.479 0 0 1 1.08-1.74c.48-.507 1.06-.9 1.74-1.18.68-.293 1.447-.44 2.3-.44.854 0 1.614.147 2.28.44.68.28 1.26.673 1.74 1.18.48.507.84 1.087 1.08 1.74.254.653.38 1.347.38 2.08 0 .72-.126 1.407-.38 2.06-.24.653-.6 1.233-1.08 1.74a4.983 4.983 0 0 1-1.72 1.2c-.68.28-1.446.42-2.3.42Zm-2.74-5.42c0 .613.12 1.16.36 1.64.24.467.567.833.98 1.1.414.267.88.4 1.4.4a2.49 2.49 0 0 0 1.38-.4c.414-.28.74-.653.98-1.12.254-.48.38-1.027.38-1.64 0-.6-.126-1.14-.38-1.62a2.77 2.77 0 0 0-.98-1.12 2.49 2.49 0 0 0-1.38-.4c-.52 0-.986.14-1.4.42-.413.267-.74.64-.98 1.12-.24.467-.36 1.007-.36 1.62Zm16.269-2.94c-.813 0-1.54.16-2.18.48-.64.307-1.1.753-1.38 1.34V30h-2.68V19.52h2.46v2.24c.374-.72.847-1.287 1.42-1.7.574-.413 1.18-.64 1.82-.68h.34c.08 0 .147.007.2.02v2.44Zm8.655 8.16-3.06-4.52-1.42 1.4V30h-2.68V15.4h2.68v8.84l4.22-4.7h2.84l-3.9 4.44 4.18 6.02h-2.86ZM29.5 53.2c-.813 0-1.533-.18-2.16-.54a3.987 3.987 0 0 1-1.44-1.5v6.1h-2.68V42.52h2.34v1.8c.4-.613.907-1.093 1.52-1.44.613-.36 1.313-.54 2.1-.54.707 0 1.353.14 1.94.42.6.28 1.12.673 1.56 1.18.44.493.78 1.067 1.02 1.72.253.64.38 1.333.38 2.08 0 1.013-.2 1.933-.6 2.76-.387.827-.927 1.487-1.62 1.98-.68.48-1.467.72-2.36.72Zm-.9-2.28c.413 0 .787-.087 1.12-.26.333-.173.62-.407.86-.7.253-.307.44-.647.56-1.02.133-.387.2-.787.2-1.2 0-.44-.073-.847-.22-1.22a2.74 2.74 0 0 0-.6-.98 2.788 2.788 0 0 0-.94-.68 2.687 2.687 0 0 0-1.14-.24c-.253 0-.513.047-.78.14-.253.08-.5.2-.74.36a3.22 3.22 0 0 0-.64.56 2.11 2.11 0 0 0-.38.7v2.46c.16.387.373.74.64 1.06.28.32.6.573.96.76.36.173.727.26 1.1.26Zm12.136 2.28c-.854 0-1.62-.14-2.3-.42a5.202 5.202 0 0 1-1.74-1.2 5.454 5.454 0 0 1-1.08-1.74 5.646 5.646 0 0 1-.38-2.06c0-.733.126-1.427.38-2.08a5.454 5.454 0 0 1 1.08-1.74c.48-.507 1.06-.9 1.74-1.18.68-.293 1.446-.44 2.3-.44.853 0 1.613.147 2.28.44.68.28 1.26.673 1.74 1.18.48.507.84 1.087 1.08 1.74.253.653.38 1.347.38 2.08 0 .72-.127 1.407-.38 2.06-.24.653-.6 1.233-1.08 1.74a4.99 4.99 0 0 1-1.72 1.2c-.68.28-1.447.42-2.3.42Zm-2.74-5.42c0 .613.12 1.16.36 1.64.24.467.566.833.98 1.1.413.267.88.4 1.4.4.506 0 .966-.133 1.38-.4.413-.28.74-.653.98-1.12.253-.48.38-1.027.38-1.64 0-.6-.127-1.14-.38-1.62a2.775 2.775 0 0 0-.98-1.12 2.492 2.492 0 0 0-1.38-.4c-.52 0-.987.14-1.4.42-.414.267-.74.64-.98 1.12-.24.467-.36 1.007-.36 1.62Zm22.677-5.26h2.54L58.833 53h-2.24l-1.76-4.5-1.72 4.5h-2.26l-4.36-10.48h2.52l3.12 7.92 1.22-3.42-1.82-4.48h2.22l1.08 3.2 1.1-3.2h2.22l-1.82 4.48 1.24 3.42 3.1-7.92ZM68.96 53.2c-.84 0-1.6-.14-2.28-.42a5.354 5.354 0 0 1-1.74-1.18 5.631 5.631 0 0 1-1.12-1.72 5.649 5.649 0 0 1-.38-2.06c0-1 .22-1.913.66-2.74a5.163 5.163 0 0 1 1.92-1.98c.84-.507 1.827-.76 2.96-.76 1.147 0 2.127.253 2.94.76a4.919 4.919 0 0 1 1.86 1.98c.44.813.66 1.693.66 2.64 0 .16-.007.327-.02.5-.013.16-.027.293-.04.4h-8.1c.053.533.207 1 .46 1.4.267.4.6.707 1 .92.413.2.853.3 1.32.3.533 0 1.033-.127 1.5-.38.48-.267.807-.613.98-1.04l2.3.64a4.302 4.302 0 0 1-1.1 1.42 5.26 5.26 0 0 1-1.66.98c-.64.227-1.347.34-2.12.34Zm-2.74-6.28h5.48c-.053-.533-.207-.993-.46-1.38-.24-.4-.56-.707-.96-.92a2.67 2.67 0 0 0-1.34-.34c-.48 0-.92.113-1.32.34-.387.213-.707.52-.96.92-.24.387-.387.847-.44 1.38Zm16.093-2.08c-.814 0-1.54.16-2.18.48-.64.307-1.1.753-1.38 1.34V53h-2.68V42.52h2.46v2.24c.373-.72.846-1.287 1.42-1.7.573-.413 1.18-.64 1.82-.68h.34c.08 0 .146.007.2.02v2.44Zm6.217 8.36c-.84 0-1.6-.14-2.28-.42a5.354 5.354 0 0 1-1.74-1.18 5.631 5.631 0 0 1-1.12-1.72 5.649 5.649 0 0 1-.38-2.06c0-1 .22-1.913.66-2.74a5.165 5.165 0 0 1 1.92-1.98c.84-.507 1.827-.76 2.96-.76 1.147 0 2.127.253 2.94.76a4.917 4.917 0 0 1 1.86 1.98c.44.813.66 1.693.66 2.64 0 .16-.006.327-.02.5-.013.16-.026.293-.04.4h-8.1c.054.533.207 1 .46 1.4.267.4.6.707 1 .92.414.2.854.3 1.32.3.534 0 1.034-.127 1.5-.38.48-.267.807-.613.98-1.04l2.3.64a4.302 4.302 0 0 1-1.1 1.42 5.26 5.26 0 0 1-1.66.98c-.64.227-1.346.34-2.12.34Zm-2.74-6.28h5.48c-.053-.533-.206-.993-.46-1.38-.24-.4-.56-.707-.96-.92a2.67 2.67 0 0 0-1.34-.34c-.48 0-.92.113-1.32.34-.386.213-.706.52-.96.92-.24.387-.386.847-.44 1.38Zm9.213.84c0-1.013.2-1.927.6-2.74.4-.827.953-1.48 1.66-1.96s1.513-.72 2.42-.72c.773 0 1.467.193 2.08.58a4.086 4.086 0 0 1 1.46 1.44V38.4h2.68V50c0 .28.047.48.14.6.093.12.253.193.48.22V53c-.467.093-.847.14-1.14.14-.48 0-.88-.12-1.2-.36a1.32 1.32 0 0 1-.52-.94l-.04-.66a3.889 3.889 0 0 1-1.58 1.5c-.653.347-1.34.52-2.06.52s-1.387-.14-2-.42a4.998 4.998 0 0 1-1.58-1.16 5.596 5.596 0 0 1-1.04-1.72 6.27 6.27 0 0 1-.36-2.14Zm8.22 1.4v-2.5a2.823 2.823 0 0 0-.64-1.04 3.376 3.376 0 0 0-.98-.72c-.36-.187-.72-.28-1.08-.28-.413 0-.787.087-1.12.26a2.958 2.958 0 0 0-.88.7c-.24.293-.427.633-.56 1.02-.12.387-.18.793-.18 1.22 0 .427.067.833.2 1.22a2.99 2.99 0 0 0 1.54 1.64c.36.16.747.24 1.16.24.253 0 .507-.04.76-.12.267-.093.513-.213.74-.36.24-.16.447-.347.62-.56.187-.227.327-.467.42-.72Zm16.075 4.04c-.8 0-1.513-.18-2.14-.54a3.947 3.947 0 0 1-1.48-1.48V53h-2.34V38.4h2.68v5.96c.374-.627.86-1.12 1.46-1.48.614-.36 1.327-.54 2.14-.54.68 0 1.3.147 1.86.44.56.28 1.04.673 1.44 1.18.414.507.727 1.087.94 1.74.227.653.34 1.353.34 2.1 0 .747-.126 1.447-.38 2.1a5.543 5.543 0 0 1-1.02 1.74c-.44.493-.96.88-1.56 1.16a4.63 4.63 0 0 1-1.94.4Zm-.74-2.28c.427 0 .814-.08 1.16-.24.36-.173.667-.4.92-.68a2.73 2.73 0 0 0 .6-.98 3.35 3.35 0 0 0 .22-1.2c0-.573-.12-1.1-.36-1.58a2.885 2.885 0 0 0-.96-1.18c-.4-.293-.873-.44-1.42-.44-.386 0-.76.093-1.12.28-.346.173-.66.413-.94.72-.266.307-.48.653-.64 1.04v2.5c.08.267.207.507.38.72.187.213.4.4.64.56.24.147.487.267.74.36.267.08.527.12.78.12Zm7.324 4.12c.24.053.46.1.66.14.214.04.394.06.54.06.254 0 .46-.067.62-.2.174-.12.34-.347.5-.68.16-.32.327-.773.5-1.36l-4.14-10.48h2.78l2.82 7.74 2.48-7.74h2.56l-4.4 12.56c-.16.467-.406.887-.74 1.26a3.2 3.2 0 0 1-1.22.9c-.48.227-1.02.34-1.62.34-.213 0-.426-.02-.64-.06a4.01 4.01 0 0 1-.7-.16v-2.32Zm23.793-12.52a3.239 3.239 0 0 0-.52-.38c-.24-.16-.54-.313-.9-.46a8.099 8.099 0 0 0-1.14-.38 4.494 4.494 0 0 0-1.26-.18c-.746 0-1.313.14-1.7.42-.373.28-.56.673-.56 1.18 0 .387.12.693.36.92.24.227.6.42 1.08.58.48.16 1.08.333 1.8.52.934.227 1.74.507 2.42.84.694.32 1.22.747 1.58 1.28.374.52.56 1.213.56 2.08 0 .76-.14 1.413-.42 1.96a3.51 3.51 0 0 1-1.16 1.3 5.32 5.32 0 0 1-1.68.74 8.748 8.748 0 0 1-2 .22c-.706 0-1.413-.073-2.12-.22a11.686 11.686 0 0 1-2.04-.62 9.789 9.789 0 0 1-1.8-1l1.22-2.38c.12.12.334.28.64.48.307.187.68.38 1.12.58.44.187.92.347 1.44.48.52.133 1.047.2 1.58.2.747 0 1.314-.127 1.7-.38.387-.253.58-.613.58-1.08 0-.427-.153-.76-.46-1-.306-.24-.733-.447-1.28-.62a40.24 40.24 0 0 0-1.94-.6c-.893-.253-1.64-.533-2.24-.84-.6-.32-1.046-.72-1.34-1.2-.293-.48-.44-1.08-.44-1.8 0-.973.227-1.787.68-2.44a4.281 4.281 0 0 1 1.88-1.5c.787-.347 1.66-.52 2.62-.52.667 0 1.294.073 1.88.22.6.147 1.16.34 1.68.58.52.24.987.5 1.4.78l-1.22 2.24ZM162.921 53h-2.68v-5.88c0-.813-.16-1.42-.48-1.82-.307-.4-.733-.6-1.28-.6-.32 0-.66.093-1.02.28a3.37 3.37 0 0 0-.98.78c-.28.32-.487.693-.62 1.12V53h-2.68V38.4h2.68v6.06a4.129 4.129 0 0 1 1.58-1.56 4.387 4.387 0 0 1 2.18-.56c.68 0 1.233.12 1.66.36.427.227.76.54 1 .94.24.387.407.827.5 1.32.093.48.14.98.14 1.5V53Zm2.33 0V42.52h2.68V53h-2.68Zm0-11.94V38.4h2.68v2.66h-2.68Zm11.058 12.14c-.8 0-1.513-.18-2.14-.54a3.94 3.94 0 0 1-1.48-1.48V53h-2.34V38.4h2.68v5.96c.373-.627.86-1.12 1.46-1.48.613-.36 1.327-.54 2.14-.54.68 0 1.3.147 1.86.44.56.28 1.04.673 1.44 1.18.413.507.727 1.087.94 1.74.227.653.34 1.353.34 2.1 0 .747-.127 1.447-.38 2.1a5.543 5.543 0 0 1-1.02 1.74c-.44.493-.96.88-1.56 1.16-.587.267-1.233.4-1.94.4Zm-.74-2.28c.427 0 .813-.08 1.16-.24.36-.173.667-.4.92-.68a2.73 2.73 0 0 0 .6-.98 3.35 3.35 0 0 0 .22-1.2c0-.573-.12-1.1-.36-1.58a2.901 2.901 0 0 0-.96-1.18c-.4-.293-.873-.44-1.42-.44-.387 0-.76.093-1.12.28-.347.173-.66.413-.94.72a3.76 3.76 0 0 0-.64 1.04v2.5c.08.267.207.507.38.72.187.213.4.4.64.56.24.147.487.267.74.36.267.08.527.12.78.12Zm6.736-1.02c0-.68.186-1.273.56-1.78.386-.52.92-.92 1.6-1.2.68-.28 1.46-.42 2.34-.42.44 0 .886.033 1.34.1.453.067.846.173 1.18.32v-.56c0-.667-.2-1.18-.6-1.54-.387-.36-.967-.54-1.74-.54-.574 0-1.12.1-1.64.3-.52.2-1.067.493-1.64.88l-.86-1.76a8.581 8.581 0 0 1 2.12-1.02c.733-.227 1.5-.34 2.3-.34 1.493 0 2.653.373 3.48 1.12.84.747 1.26 1.813 1.26 3.2V50c0 .28.046.48.14.6.106.12.273.193.5.22V53c-.24.04-.46.073-.66.1-.187.027-.347.04-.48.04-.534 0-.94-.12-1.22-.36a1.544 1.544 0 0 1-.5-.88l-.06-.54a4.587 4.587 0 0 1-1.7 1.36 4.84 4.84 0 0 1-2.08.48c-.694 0-1.32-.14-1.88-.42a3.473 3.473 0 0 1-1.3-1.18 3.216 3.216 0 0 1-.46-1.7Zm6.52.54c.146-.16.266-.32.36-.48a.891.891 0 0 0 .14-.44v-1.06a4.976 4.976 0 0 0-1.04-.3 5.074 5.074 0 0 0-1.06-.12c-.694 0-1.267.153-1.72.46-.44.293-.66.687-.66 1.18 0 .267.073.52.22.76.146.24.36.433.64.58.28.147.613.22 1 .22.4 0 .793-.073 1.18-.22.386-.16.7-.353.94-.58Zm11.924-5.6c-.813 0-1.54.16-2.18.48-.64.307-1.1.753-1.38 1.34V53h-2.68V42.52h2.46v2.24c.373-.72.847-1.287 1.42-1.7.573-.413 1.18-.64 1.82-.68h.34c.08 0 .147.007.2.02v2.44Zm1.494 8.16V42.52h2.68V53h-2.68Zm0-11.94V38.4h2.68v2.66h-2.68Zm4.998 8.02v-6.56h2.68v5.98c0 .8.147 1.407.44 1.82.293.4.727.6 1.3.6.347 0 .687-.067 1.02-.2.347-.147.66-.36.94-.64.293-.28.54-.633.74-1.06v-6.5h2.68V50c0 .28.047.48.14.6.107.12.273.193.5.22V53a9.03 9.03 0 0 1-.68.08c-.173.027-.333.04-.48.04-.48 0-.873-.107-1.18-.32a1.348 1.348 0 0 1-.52-.92l-.06-.84a4.67 4.67 0 0 1-1.8 1.62c-.733.36-1.54.54-2.42.54-1.08 0-1.9-.347-2.46-1.04-.56-.707-.84-1.733-.84-3.08ZM235.984 53h-2.68v-5.88c0-.827-.146-1.433-.44-1.82-.28-.4-.673-.6-1.18-.6-.52 0-1.02.207-1.5.62-.466.4-.8.927-1 1.58V53h-2.68v-5.88c0-.84-.146-1.453-.44-1.84-.28-.387-.673-.58-1.18-.58-.52 0-1.02.2-1.5.6-.466.4-.8.927-1 1.58V53h-2.68V42.52h2.42v1.94c.4-.68.934-1.2 1.6-1.56.667-.373 1.434-.56 2.3-.56.867 0 1.54.213 2.02.64.494.427.807.953.94 1.58.427-.72.967-1.267 1.62-1.64.667-.387 1.414-.58 2.24-.58.654 0 1.18.12 1.58.36.414.227.734.54.96.94.227.387.38.827.46 1.32.094.493.14.993.14 1.5V53Z" fill="#fff"/>
  <path d="m246.8 78 5.2-13h-13l7.8 13Z" fill="#1DA1F2"/>
</svg>
