<svg fill="none" xmlns="http://www.w3.org/2000/svg" viewBox="0 0 286 78">
  <rect width="286" height="71" rx="35.5" fill="#1DA1F2"/>
  <path d="M23.48 30V15.8h2.76V30h-2.76Zm11.586-.54c-.226.093-.5.2-.82.32-.32.12-.666.213-1.04.28-.36.08-.726.12-1.1.12-.493 0-.946-.087-1.36-.26a2.225 2.225 0 0 1-1-.82c-.24-.387-.36-.887-.36-1.5v-6.02h-1.38v-2.06h1.38v-3.4h2.68v3.4h2.2v2.06h-2.2v5.12c.014.36.114.62.3.78.187.16.42.24.7.24.28 0 .554-.047.82-.14.267-.093.48-.173.64-.24l.54 2.12Zm.502-8.92.46-2.44h-.8v-2.7h2.68v2.74l-.7 2.4h-1.64Zm6.961 9.66a7.489 7.489 0 0 1-2.56-.44 5.756 5.756 0 0 1-2.1-1.3l.96-1.74c.627.507 1.24.88 1.84 1.12.614.24 1.2.36 1.76.36.52 0 .934-.093 1.24-.28a.912.912 0 0 0 .48-.84c0-.253-.086-.447-.26-.58-.173-.147-.426-.273-.76-.38-.32-.107-.713-.227-1.18-.36-.773-.253-1.42-.5-1.94-.74s-.913-.54-1.18-.9c-.253-.373-.38-.847-.38-1.42 0-.693.174-1.287.52-1.78.36-.507.854-.9 1.48-1.18.64-.28 1.387-.42 2.24-.42.747 0 1.454.12 2.12.36.667.227 1.274.6 1.82 1.12l-1.08 1.7c-.533-.413-1.04-.713-1.52-.9-.48-.2-.966-.3-1.46-.3-.28 0-.546.033-.8.1-.24.067-.44.18-.6.34-.146.147-.22.36-.22.64 0 .253.067.453.2.6.147.133.36.253.64.36.294.107.647.227 1.06.36.84.24 1.547.487 2.12.74.587.253 1.027.567 1.32.94.294.36.44.86.44 1.5 0 1.04-.38 1.853-1.14 2.44-.76.587-1.78.88-3.06.88Zm10.108-3.3c0-.68.186-1.273.56-1.78.386-.52.92-.92 1.6-1.2.68-.28 1.46-.42 2.34-.42.44 0 .886.033 1.34.1.453.067.846.173 1.18.32v-.56c0-.667-.2-1.18-.6-1.54-.387-.36-.967-.54-1.74-.54-.574 0-1.12.1-1.64.3-.52.2-1.067.493-1.64.88l-.86-1.76a8.588 8.588 0 0 1 2.12-1.02c.733-.227 1.5-.34 2.3-.34 1.493 0 2.653.373 3.48 1.12.84.747 1.26 1.813 1.26 3.2V27c0 .28.046.48.14.6.106.12.273.193.5.22V30c-.24.04-.46.073-.66.1-.187.027-.347.04-.48.04-.534 0-.94-.12-1.22-.36a1.55 1.55 0 0 1-.5-.88l-.06-.54a4.581 4.581 0 0 1-1.7 1.36c-.68.32-1.374.48-2.08.48-.694 0-1.32-.14-1.88-.42a3.476 3.476 0 0 1-1.3-1.18 3.22 3.22 0 0 1-.46-1.7Zm6.52.54c.146-.16.266-.32.36-.48a.887.887 0 0 0 .14-.44v-1.06a4.969 4.969 0 0 0-1.04-.3 5.066 5.066 0 0 0-1.06-.12c-.694 0-1.267.153-1.72.46-.44.293-.66.687-.66 1.18 0 .267.073.52.22.76.146.24.36.433.64.58.28.147.613.22 1 .22.4 0 .793-.073 1.18-.22.386-.16.7-.353.94-.58ZM64.82 15.4h2.68v11.24c0 .48.08.807.24.98.16.16.38.24.66.24.213 0 .433-.027.66-.08.227-.053.427-.12.6-.2l.36 2.04c-.36.173-.78.307-1.26.4-.48.093-.913.14-1.3.14-.84 0-1.493-.22-1.96-.66-.453-.453-.68-1.093-.68-1.92V15.4ZM87.47 30h-2.68v-5.88c0-.827-.147-1.433-.44-1.82-.28-.4-.674-.6-1.18-.6-.52 0-1.02.207-1.5.62-.467.4-.8.927-1 1.58V30h-2.68v-5.88c0-.84-.147-1.453-.44-1.84-.28-.387-.674-.58-1.18-.58-.52 0-1.02.2-1.5.6-.467.4-.8.927-1 1.58V30h-2.68V19.52h2.42v1.94c.4-.68.933-1.2 1.6-1.56.666-.373 1.433-.56 2.3-.56.866 0 1.54.213 2.02.64.493.427.806.953.94 1.58.426-.72.966-1.267 1.62-1.64.666-.387 1.413-.58 2.24-.58.653 0 1.18.12 1.58.36.413.227.733.54.96.94.226.387.38.827.46 1.32.093.493.14.993.14 1.5V30Zm7.173.2c-.853 0-1.62-.14-2.3-.42a5.202 5.202 0 0 1-1.74-1.2 5.457 5.457 0 0 1-1.08-1.74 5.649 5.649 0 0 1-.38-2.06c0-.733.127-1.427.38-2.08a5.457 5.457 0 0 1 1.08-1.74c.48-.507 1.06-.9 1.74-1.18.68-.293 1.447-.44 2.3-.44.853 0 1.613.147 2.28.44.68.28 1.26.673 1.74 1.18.48.507.84 1.087 1.08 1.74.253.653.38 1.347.38 2.08 0 .72-.127 1.407-.38 2.06-.24.653-.6 1.233-1.08 1.74a4.988 4.988 0 0 1-1.72 1.2c-.68.28-1.447.42-2.3.42Zm-2.74-5.42c0 .613.12 1.16.36 1.64.24.467.567.833.98 1.1.413.267.88.4 1.4.4.507 0 .967-.133 1.38-.4.413-.28.74-.653.98-1.12.253-.48.38-1.027.38-1.64 0-.6-.127-1.14-.38-1.62a2.774 2.774 0 0 0-.98-1.12 2.492 2.492 0 0 0-1.38-.4c-.52 0-.987.14-1.4.42-.413.267-.74.64-.98 1.12-.24.467-.36 1.007-.36 1.62Zm13.889 5.42a7.488 7.488 0 0 1-2.56-.44 5.761 5.761 0 0 1-2.1-1.3l.96-1.74c.627.507 1.24.88 1.84 1.12.613.24 1.2.36 1.76.36.52 0 .933-.093 1.24-.28a.912.912 0 0 0 .48-.84c0-.253-.087-.447-.26-.58-.173-.147-.427-.273-.76-.38-.32-.107-.713-.227-1.18-.36a18.36 18.36 0 0 1-1.94-.74c-.52-.24-.913-.54-1.18-.9-.253-.373-.38-.847-.38-1.42 0-.693.173-1.287.52-1.78.36-.507.853-.9 1.48-1.18.64-.28 1.387-.42 2.24-.42.747 0 1.453.12 2.12.36.667.227 1.273.6 1.82 1.12l-1.08 1.7c-.533-.413-1.04-.713-1.52-.9-.48-.2-.967-.3-1.46-.3-.28 0-.547.033-.8.1-.24.067-.44.18-.6.34-.147.147-.22.36-.22.64 0 .253.067.453.2.6.147.133.36.253.64.36.293.107.647.227 1.06.36.84.24 1.547.487 2.12.74.587.253 1.027.567 1.32.94.293.36.44.86.44 1.5 0 1.04-.38 1.853-1.14 2.44-.76.587-1.78.88-3.06.88Zm12.244-.74c-.227.093-.5.2-.82.32-.32.12-.667.213-1.04.28-.36.08-.727.12-1.1.12-.493 0-.947-.087-1.36-.26a2.225 2.225 0 0 1-1-.82c-.24-.387-.36-.887-.36-1.5v-6.02h-1.38v-2.06h1.38v-3.4h2.68v3.4h2.2v2.06h-2.2v5.12c.013.36.113.62.3.78.187.16.42.24.7.24.28 0 .553-.047.82-.14.267-.093.48-.173.64-.24l.54 2.12Zm15.941.54h-2.68v-5.88c0-.813-.16-1.42-.48-1.82-.307-.4-.734-.6-1.28-.6-.32 0-.66.093-1.02.28a3.37 3.37 0 0 0-.98.78c-.28.32-.487.693-.62 1.12V30h-2.68V15.4h2.68v6.06a4.122 4.122 0 0 1 1.58-1.56 4.385 4.385 0 0 1 2.18-.56c.68 0 1.233.12 1.66.36.426.227.76.54 1 .94.24.387.406.827.5 1.32.093.48.14.98.14 1.5V30Zm7.19.2c-.84 0-1.6-.14-2.28-.42a5.354 5.354 0 0 1-1.74-1.18 5.637 5.637 0 0 1-1.12-1.72 5.655 5.655 0 0 1-.38-2.06c0-1 .22-1.913.66-2.74a5.159 5.159 0 0 1 1.92-1.98c.84-.507 1.827-.76 2.96-.76 1.147 0 2.127.253 2.94.76a4.923 4.923 0 0 1 1.86 1.98c.44.813.66 1.693.66 2.64a6.7 6.7 0 0 1-.02.5c-.013.16-.027.293-.04.4h-8.1c.053.533.207 1 .46 1.4.267.4.6.707 1 .92.413.2.853.3 1.32.3.533 0 1.033-.127 1.5-.38.48-.267.807-.613.98-1.04l2.3.64a4.298 4.298 0 0 1-1.1 1.42c-.467.413-1.02.74-1.66.98-.64.227-1.347.34-2.12.34Zm-2.74-6.28h5.48c-.053-.533-.207-.993-.46-1.38-.24-.4-.56-.707-.96-.92a2.67 2.67 0 0 0-1.34-.34c-.48 0-.92.113-1.32.34-.387.213-.707.52-.96.92-.24.387-.387.847-.44 1.38Zm16.093-2.08c-.814 0-1.54.16-2.18.48-.64.307-1.1.753-1.38 1.34V30h-2.68V19.52h2.46v2.24c.373-.72.846-1.287 1.42-1.7.573-.413 1.18-.64 1.82-.68h.34c.08 0 .146.007.2.02v2.44Zm6.217 8.36c-.84 0-1.6-.14-2.28-.42a5.354 5.354 0 0 1-1.74-1.18 5.637 5.637 0 0 1-1.12-1.72 5.655 5.655 0 0 1-.38-2.06c0-1 .22-1.913.66-2.74a5.173 5.173 0 0 1 1.92-1.98c.84-.507 1.827-.76 2.96-.76 1.147 0 2.127.253 2.94.76a4.91 4.91 0 0 1 1.86 1.98c.44.813.66 1.693.66 2.64 0 .16-.006.327-.02.5a8.47 8.47 0 0 1-.04.4h-8.1c.054.533.207 1 .46 1.4.267.4.6.707 1 .92.414.2.854.3 1.32.3.534 0 1.034-.127 1.5-.38.48-.267.807-.613.98-1.04l2.3.64a4.298 4.298 0 0 1-1.1 1.42c-.466.413-1.02.74-1.66.98a6.31 6.31 0 0 1-2.12.34Zm-2.74-6.28h5.48c-.053-.533-.206-.993-.46-1.38-.24-.4-.56-.707-.96-.92-.4-.227-.846-.34-1.34-.34-.48 0-.92.113-1.32.34-.386.213-.706.52-.96.92-.24.387-.386.847-.44 1.38Zm10.373.74v-9h2.68v9h-2.68Zm0 5.34v-3.02h2.68V30h-2.68Zm9.817-7.2c0-.867.154-1.713.46-2.54.32-.84.78-1.6 1.38-2.28a6.441 6.441 0 0 1 2.2-1.64c.867-.413 1.854-.62 2.96-.62 1.307 0 2.434.287 3.38.86.96.573 1.674 1.32 2.14 2.24l-2.12 1.46c-.24-.533-.553-.953-.94-1.26-.386-.32-.8-.54-1.24-.66-.44-.133-.873-.2-1.3-.2-.693 0-1.3.14-1.82.42-.506.28-.933.647-1.28 1.1a4.86 4.86 0 0 0-.78 1.52 6.09 6.09 0 0 0-.24 1.68c0 .627.1 1.233.3 1.82.2.573.48 1.087.84 1.54.374.44.814.793 1.32 1.06a3.83 3.83 0 0 0 1.7.38c.44 0 .887-.073 1.34-.22.454-.147.874-.38 1.26-.7a3.17 3.17 0 0 0 .9-1.24l2.26 1.3a4.204 4.204 0 0 1-1.38 1.8 6.72 6.72 0 0 1-2.12 1.12 7.595 7.595 0 0 1-2.34.38c-1.013 0-1.94-.207-2.78-.62a7.298 7.298 0 0 1-2.18-1.68 8.505 8.505 0 0 1-1.42-2.36 7.466 7.466 0 0 1-.5-2.66Zm24.051 7.2h-2.68v-5.88c0-.813-.16-1.42-.48-1.82-.306-.4-.733-.6-1.28-.6-.32 0-.66.093-1.02.28-.36.187-.686.447-.98.78-.28.32-.486.693-.62 1.12V30h-2.68V15.4h2.68v6.06a4.135 4.135 0 0 1 1.58-1.56 4.39 4.39 0 0 1 2.18-.56c.68 0 1.234.12 1.66.36.427.227.76.54 1 .94.24.387.407.827.5 1.32.094.48.14.98.14 1.5V30Zm7.191.2c-.84 0-1.6-.14-2.28-.42a5.354 5.354 0 0 1-1.74-1.18 5.618 5.618 0 0 1-1.12-1.72 5.634 5.634 0 0 1-.38-2.06c0-1 .22-1.913.66-2.74a5.159 5.159 0 0 1 1.92-1.98c.84-.507 1.826-.76 2.96-.76 1.146 0 2.126.253 2.94.76a4.923 4.923 0 0 1 1.86 1.98c.44.813.66 1.693.66 2.64a6.7 6.7 0 0 1-.02.5c-.014.16-.027.293-.04.4h-8.1c.053.533.206 1 .46 1.4.266.4.6.707 1 .92.413.2.853.3 1.32.3.533 0 1.033-.127 1.5-.38.48-.267.806-.613.98-1.04l2.3.64a4.311 4.311 0 0 1-1.1 1.42c-.467.413-1.02.74-1.66.98-.64.227-1.347.34-2.12.34Zm-2.74-6.28h5.48c-.054-.533-.207-.993-.46-1.38-.24-.4-.56-.707-.96-.92a2.67 2.67 0 0 0-1.34-.34c-.48 0-.92.113-1.32.34-.387.213-.707.52-.96.92-.24.387-.387.847-.44 1.38Zm14.732 6.28c-.853 0-1.62-.14-2.3-.42a5.202 5.202 0 0 1-1.74-1.2 5.82 5.82 0 0 1-1.12-1.76 5.655 5.655 0 0 1-.38-2.06c0-.987.22-1.887.66-2.7a5.173 5.173 0 0 1 1.92-1.98c.827-.493 1.807-.74 2.94-.74 1.134 0 2.107.247 2.92.74.814.493 1.42 1.14 1.82 1.94l-2.62.8a2.273 2.273 0 0 0-.9-.88 2.453 2.453 0 0 0-1.24-.32c-.506 0-.973.133-1.4.4-.413.253-.74.62-.98 1.1-.24.467-.36 1.013-.36 1.64 0 .613.12 1.16.36 1.64.254.467.587.84 1 1.12.414.267.874.4 1.38.4.32 0 .62-.053.9-.16.294-.107.554-.253.78-.44.227-.187.394-.4.5-.64l2.62.8c-.24.52-.593.987-1.06 1.4-.453.413-.993.74-1.62.98-.613.227-1.306.34-2.08.34Zm13.569-.2-3.06-4.52-1.42 1.4V30h-2.68V15.4h2.68v8.84l4.22-4.7h2.84l-3.9 4.44 4.18 6.02h-2.86ZM29.5 52.46c-.227.093-.5.2-.82.32-.32.12-.667.213-1.04.28-.36.08-.727.12-1.1.12-.493 0-.947-.087-1.36-.26a2.225 2.225 0 0 1-1-.82c-.24-.387-.36-.887-.36-1.5v-6.02h-1.38v-2.06h1.38v-3.4h2.68v3.4h2.2v2.06h-2.2v5.12c.013.36.113.62.3.78.187.16.42.24.7.24.28 0 .553-.047.82-.14.267-.093.48-.173.64-.24l.54 2.12Zm11.136.54h-2.68v-5.88c0-.813-.16-1.42-.48-1.82-.307-.4-.734-.6-1.28-.6-.32 0-.66.093-1.02.28-.36.187-.687.447-.98.78-.28.32-.487.693-.62 1.12V53h-2.68V38.4h2.68v6.06a4.128 4.128 0 0 1 1.58-1.56 4.387 4.387 0 0 1 2.18-.56c.68 0 1.233.12 1.66.36.426.227.76.54 1 .94.24.387.406.827.5 1.32.093.48.14.98.14 1.5V53Zm7.19.2c-.84 0-1.6-.14-2.28-.42a5.354 5.354 0 0 1-1.74-1.18 5.631 5.631 0 0 1-1.12-1.72 5.649 5.649 0 0 1-.38-2.06c0-1 .22-1.913.66-2.74a5.163 5.163 0 0 1 1.92-1.98c.84-.507 1.827-.76 2.96-.76 1.147 0 2.127.253 2.94.76a4.919 4.919 0 0 1 1.86 1.98c.44.813.66 1.693.66 2.64 0 .16-.007.327-.02.5-.013.16-.027.293-.04.4h-8.1c.053.533.207 1 .46 1.4.267.4.6.707 1 .92.413.2.853.3 1.32.3.533 0 1.033-.127 1.5-.38.48-.267.807-.613.98-1.04l2.3.64a4.302 4.302 0 0 1-1.1 1.42 5.26 5.26 0 0 1-1.66.98c-.64.227-1.347.34-2.12.34Zm-2.74-6.28h5.48c-.053-.533-.207-.993-.46-1.38-.24-.4-.56-.707-.96-.92a2.67 2.67 0 0 0-1.34-.34c-.48 0-.92.113-1.32.34-.387.213-.707.52-.96.92-.24.387-.387.847-.44 1.38Zm20.897-2.08c-.813 0-1.54.16-2.18.48-.64.307-1.1.753-1.38 1.34V53h-2.68V42.52h2.46v2.24c.374-.72.847-1.287 1.42-1.7.574-.413 1.18-.64 1.82-.68h.34c.08 0 .147.007.2.02v2.44Zm6.198 8.36c-.853 0-1.62-.14-2.3-.42a5.202 5.202 0 0 1-1.74-1.2 5.454 5.454 0 0 1-1.08-1.74 5.649 5.649 0 0 1-.38-2.06c0-.733.127-1.427.38-2.08a5.454 5.454 0 0 1 1.08-1.74c.48-.507 1.06-.9 1.74-1.18.68-.293 1.447-.44 2.3-.44.853 0 1.613.147 2.28.44.68.28 1.26.673 1.74 1.18.48.507.84 1.087 1.08 1.74.253.653.38 1.347.38 2.08 0 .72-.127 1.407-.38 2.06-.24.653-.6 1.233-1.08 1.74a4.99 4.99 0 0 1-1.72 1.2c-.68.28-1.447.42-2.3.42Zm-2.74-5.42c0 .613.12 1.16.36 1.64.24.467.567.833.98 1.1.413.267.88.4 1.4.4.507 0 .967-.133 1.38-.4.413-.28.74-.653.98-1.12.253-.48.38-1.027.38-1.64 0-.6-.127-1.14-.38-1.62a2.775 2.775 0 0 0-.98-1.12 2.492 2.492 0 0 0-1.38-.4c-.52 0-.987.14-1.4.42-.413.267-.74.64-.98 1.12-.24.467-.36 1.007-.36 1.62Zm9.309 2.12c0-.68.187-1.273.56-1.78.387-.52.92-.92 1.6-1.2.68-.28 1.46-.42 2.34-.42.44 0 .887.033 1.34.1.453.067.847.173 1.18.32v-.56c0-.667-.2-1.18-.6-1.54-.387-.36-.967-.54-1.74-.54-.573 0-1.12.1-1.64.3a8.29 8.29 0 0 0-1.64.88l-.86-1.76a8.586 8.586 0 0 1 2.12-1.02c.733-.227 1.5-.34 2.3-.34 1.493 0 2.653.373 3.48 1.12.84.747 1.26 1.813 1.26 3.2V50c0 .28.047.48.14.6.107.12.273.193.5.22V53c-.24.04-.46.073-.66.1-.187.027-.347.04-.48.04-.533 0-.94-.12-1.22-.36a1.55 1.55 0 0 1-.5-.88l-.06-.54a4.581 4.581 0 0 1-1.7 1.36c-.68.32-1.373.48-2.08.48-.693 0-1.32-.14-1.88-.42a3.475 3.475 0 0 1-1.3-1.18 3.219 3.219 0 0 1-.46-1.7Zm6.52.54c.147-.16.267-.32.36-.48a.888.888 0 0 0 .14-.44v-1.06a4.97 4.97 0 0 0-1.04-.3 5.066 5.066 0 0 0-1.06-.12c-.693 0-1.267.153-1.72.46-.44.293-.66.687-.66 1.18 0 .267.073.52.22.76.147.24.36.433.64.58.28.147.613.22 1 .22.4 0 .793-.073 1.18-.22.387-.16.7-.353.94-.58Zm5.044-2.68c0-1.013.2-1.927.6-2.74.4-.827.954-1.48 1.66-1.96.707-.48 1.514-.72 2.42-.72.774 0 1.467.193 2.08.58a4.086 4.086 0 0 1 1.46 1.44V38.4h2.68V50c0 .28.047.48.14.6.094.12.254.193.48.22V53c-.466.093-.846.14-1.14.14-.48 0-.88-.12-1.2-.36a1.32 1.32 0 0 1-.52-.94l-.04-.66a3.89 3.89 0 0 1-1.58 1.5c-.653.347-1.34.52-2.06.52s-1.386-.14-2-.42a4.998 4.998 0 0 1-1.58-1.16 5.596 5.596 0 0 1-1.04-1.72 6.27 6.27 0 0 1-.36-2.14Zm8.22 1.4v-2.5a2.824 2.824 0 0 0-.64-1.04 3.381 3.381 0 0 0-.98-.72c-.36-.187-.72-.28-1.08-.28-.413 0-.786.087-1.12.26a2.958 2.958 0 0 0-.88.7c-.24.293-.426.633-.56 1.02-.12.387-.18.793-.18 1.22 0 .427.067.833.2 1.22a2.99 2.99 0 0 0 1.54 1.64c.36.16.747.24 1.16.24.254 0 .507-.04.76-.12a3.46 3.46 0 0 0 .74-.36c.24-.16.447-.347.62-.56.187-.227.327-.467.42-.72ZM120.125 53h-2.68v-5.88c0-.827-.147-1.433-.44-1.82-.28-.4-.673-.6-1.18-.6-.52 0-1.02.207-1.5.62-.467.4-.8.927-1 1.58V53h-2.68v-5.88c0-.84-.147-1.453-.44-1.84-.28-.387-.673-.58-1.18-.58-.52 0-1.02.2-1.5.6-.467.4-.8.927-1 1.58V53h-2.68V42.52h2.42v1.94c.4-.68.933-1.2 1.6-1.56.667-.373 1.433-.56 2.3-.56.867 0 1.54.213 2.02.64.493.427.807.953.94 1.58.427-.72.967-1.267 1.62-1.64.667-.387 1.413-.58 2.24-.58.653 0 1.18.12 1.58.36.413.227.733.54.96.94.227.387.38.827.46 1.32.093.493.14.993.14 1.5V53Zm1.613-3.1c0-.68.187-1.273.56-1.78.387-.52.92-.92 1.6-1.2.68-.28 1.46-.42 2.34-.42.44 0 .887.033 1.34.1.454.067.847.173 1.18.32v-.56c0-.667-.2-1.18-.6-1.54-.386-.36-.966-.54-1.74-.54-.573 0-1.12.1-1.64.3a8.31 8.31 0 0 0-1.64.88l-.86-1.76a8.598 8.598 0 0 1 2.12-1.02c.734-.227 1.5-.34 2.3-.34 1.494 0 2.654.373 3.48 1.12.84.747 1.26 1.813 1.26 3.2V50c0 .28.047.48.14.6.107.12.274.193.5.22V53c-.24.04-.46.073-.66.1a3.45 3.45 0 0 1-.48.04c-.533 0-.94-.12-1.22-.36a1.555 1.555 0 0 1-.5-.88l-.06-.54a4.579 4.579 0 0 1-1.7 1.36c-.68.32-1.373.48-2.08.48-.693 0-1.32-.14-1.88-.42a3.48 3.48 0 0 1-1.3-1.18 3.225 3.225 0 0 1-.46-1.7Zm6.52.54c.147-.16.267-.32.36-.48a.881.881 0 0 0 .14-.44v-1.06a4.958 4.958 0 0 0-1.04-.3 5.06 5.06 0 0 0-1.06-.12c-.693 0-1.266.153-1.72.46-.44.293-.66.687-.66 1.18 0 .267.074.52.22.76.147.24.36.433.64.58.28.147.614.22 1 .22a3.3 3.3 0 0 0 1.18-.22c.387-.16.7-.353.94-.58Zm11.965 2.76c-.814 0-1.534-.18-2.16-.54a3.977 3.977 0 0 1-1.44-1.5v6.1h-2.68V42.52h2.34v1.8c.4-.613.906-1.093 1.52-1.44.613-.36 1.313-.54 2.1-.54.706 0 1.353.14 1.94.42.6.28 1.12.673 1.56 1.18.44.493.78 1.067 1.02 1.72.253.64.38 1.333.38 2.08 0 1.013-.2 1.933-.6 2.76-.387.827-.927 1.487-1.62 1.98-.68.48-1.467.72-2.36.72Zm-.9-2.28c.413 0 .786-.087 1.12-.26.333-.173.62-.407.86-.7.253-.307.44-.647.56-1.02.133-.387.2-.787.2-1.2 0-.44-.074-.847-.22-1.22a2.759 2.759 0 0 0-.6-.98 2.791 2.791 0 0 0-.94-.68 2.69 2.69 0 0 0-1.14-.24c-.254 0-.514.047-.78.14-.254.08-.5.2-.74.36a3.2 3.2 0 0 0-.64.56c-.174.213-.3.447-.38.7v2.46c.16.387.373.74.64 1.06.28.32.6.573.96.76.36.173.726.26 1.1.26Zm18.06 2.28c-.8 0-1.513-.18-2.14-.54a3.94 3.94 0 0 1-1.48-1.48V53h-2.34V38.4h2.68v5.96c.373-.627.86-1.12 1.46-1.48.613-.36 1.327-.54 2.14-.54.68 0 1.3.147 1.86.44.56.28 1.04.673 1.44 1.18.413.507.727 1.087.94 1.74.227.653.34 1.353.34 2.1 0 .747-.127 1.447-.38 2.1a5.543 5.543 0 0 1-1.02 1.74c-.44.493-.96.88-1.56 1.16-.587.267-1.233.4-1.94.4Zm-.74-2.28c.427 0 .813-.08 1.16-.24.36-.173.667-.4.92-.68a2.73 2.73 0 0 0 .6-.98 3.35 3.35 0 0 0 .22-1.2c0-.573-.12-1.1-.36-1.58a2.901 2.901 0 0 0-.96-1.18c-.4-.293-.873-.44-1.42-.44-.387 0-.76.093-1.12.28-.347.173-.66.413-.94.72a3.76 3.76 0 0 0-.64 1.04v2.5c.08.267.207.507.38.72.187.213.4.4.64.56.24.147.487.267.74.36.267.08.527.12.78.12Zm12.316 2.28c-.84 0-1.6-.14-2.28-.42a5.354 5.354 0 0 1-1.74-1.18 5.637 5.637 0 0 1-1.12-1.72 5.655 5.655 0 0 1-.38-2.06c0-1 .22-1.913.66-2.74a5.159 5.159 0 0 1 1.92-1.98c.84-.507 1.827-.76 2.96-.76 1.147 0 2.127.253 2.94.76a4.923 4.923 0 0 1 1.86 1.98c.44.813.66 1.693.66 2.64a6.7 6.7 0 0 1-.02.5c-.013.16-.027.293-.04.4h-8.1c.053.533.207 1 .46 1.4.267.4.6.707 1 .92.413.2.853.3 1.32.3.533 0 1.033-.127 1.5-.38.48-.267.807-.613.98-1.04l2.3.64a4.298 4.298 0 0 1-1.1 1.42c-.467.413-1.02.74-1.66.98-.64.227-1.347.34-2.12.34Zm-2.74-6.28h5.48c-.053-.533-.207-.993-.46-1.38-.24-.4-.56-.707-.96-.92a2.67 2.67 0 0 0-1.34-.34c-.48 0-.92.113-1.32.34-.387.213-.707.52-.96.92-.24.387-.387.847-.44 1.38Zm9.833-8.52h2.68v11.24c0 .48.08.807.24.98.16.16.38.24.66.24.213 0 .433-.027.66-.08.226-.053.426-.12.6-.2l.36 2.04c-.36.173-.78.307-1.26.4-.48.093-.914.14-1.3.14-.84 0-1.494-.22-1.96-.66-.454-.453-.68-1.093-.68-1.92V38.4Zm11.207 14.8c-.853 0-1.62-.14-2.3-.42a5.202 5.202 0 0 1-1.74-1.2 5.479 5.479 0 0 1-1.08-1.74 5.655 5.655 0 0 1-.38-2.06c0-.733.127-1.427.38-2.08a5.479 5.479 0 0 1 1.08-1.74c.48-.507 1.06-.9 1.74-1.18.68-.293 1.447-.44 2.3-.44.854 0 1.614.147 2.28.44.68.28 1.26.673 1.74 1.18.48.507.84 1.087 1.08 1.74.254.653.38 1.347.38 2.08 0 .72-.126 1.407-.38 2.06-.24.653-.6 1.233-1.08 1.74a4.983 4.983 0 0 1-1.72 1.2c-.68.28-1.446.42-2.3.42Zm-2.74-5.42c0 .613.12 1.16.36 1.64.24.467.567.833.98 1.1.414.267.88.4 1.4.4a2.49 2.49 0 0 0 1.38-.4c.414-.28.74-.653.98-1.12.254-.48.38-1.027.38-1.64 0-.6-.126-1.14-.38-1.62a2.77 2.77 0 0 0-.98-1.12 2.49 2.49 0 0 0-1.38-.4c-.52 0-.986.14-1.4.42-.413.267-.74.64-.98 1.12-.24.467-.36 1.007-.36 1.62Zm22.678-5.26h2.54L205.357 53h-2.24l-1.76-4.5-1.72 4.5h-2.26l-4.36-10.48h2.52l3.12 7.92 1.22-3.42-1.82-4.48h2.22l1.08 3.2 1.1-3.2h2.22l-1.82 4.48 1.24 3.42 3.1-7.92Zm4.297 5.14v-9h2.68v9h-2.68Zm0 5.34v-3.02h2.68V53h-2.68Z" fill="#fff"/>
  <path d="m246.8 78 5.2-13h-13l7.8 13Z" fill="#1DA1F2"/>
</svg>
