<svg fill="none" xmlns="http://www.w3.org/2000/svg" viewBox="0 0 984 149">
  <rect y="5" width="984" height="135" rx="55" fill="#1DA1F2"/>
  <path d="m913.381 148.5 6.254-8.5H904l9.381 8.5Z" fill="#1DA1F2"/>
  <path d="M50.7 65V29.5h6.9V65h-6.9Zm28.966-1.35c-.567.233-1.25.5-2.05.8-.8.3-1.667.533-2.6.7-.9.2-1.817.3-2.75.3-1.233 0-2.367-.217-3.4-.65a5.562 5.562 0 0 1-2.5-2.05c-.6-.967-.9-2.217-.9-3.75V43.95h-3.45V38.8h3.45v-8.5h6.7v8.5h5.5v5.15h-5.5v12.8c.033.9.283 1.55.75 1.95.467.4 1.05.6 1.75.6s1.383-.117 2.05-.35a30.67 30.67 0 0 0 1.6-.6l1.35 5.3Zm1.255-22.3 1.15-6.1h-2V28.5h6.7v6.85l-1.75 6h-4.1ZM98.323 65.5a18.72 18.72 0 0 1-6.4-1.1c-2.033-.733-3.783-1.817-5.25-3.25l2.4-4.35c1.567 1.267 3.1 2.2 4.6 2.8 1.533.6 3 .9 4.4.9 1.3 0 2.333-.233 3.1-.7.8-.467 1.2-1.167 1.2-2.1 0-.633-.217-1.117-.65-1.45-.433-.367-1.067-.683-1.9-.95-.8-.267-1.783-.567-2.95-.9-1.933-.633-3.55-1.25-4.85-1.85-1.3-.6-2.283-1.35-2.95-2.25-.633-.933-.95-2.117-.95-3.55 0-1.733.433-3.217 1.3-4.45.9-1.267 2.133-2.25 3.7-2.95 1.6-.7 3.467-1.05 5.6-1.05 1.867 0 3.633.3 5.3.9 1.667.567 3.183 1.5 4.55 2.8l-2.7 4.25c-1.333-1.033-2.6-1.783-3.8-2.25-1.2-.5-2.417-.75-3.65-.75-.7 0-1.367.083-2 .25-.6.167-1.1.45-1.5.85-.367.367-.55.9-.55 1.6 0 .633.167 1.133.5 1.5.367.333.9.633 1.6.9.733.267 1.617.567 2.65.9 2.1.6 3.867 1.217 5.3 1.85 1.467.633 2.567 1.417 3.3 2.35.733.9 1.1 2.15 1.1 3.75 0 2.6-.95 4.633-2.85 6.1-1.9 1.467-4.45 2.2-7.65 2.2Zm25.269-8.25c0-1.7.466-3.183 1.4-4.45.966-1.3 2.3-2.3 4-3 1.7-.7 3.65-1.05 5.85-1.05 1.1 0 2.216.083 3.35.25 1.133.167 2.116.433 2.95.8v-1.4c0-1.667-.5-2.95-1.5-3.85-.967-.9-2.417-1.35-4.35-1.35-1.434 0-2.8.25-4.1.75-1.3.5-2.667 1.233-4.1 2.2l-2.15-4.4c1.733-1.133 3.5-1.983 5.3-2.55 1.833-.567 3.75-.85 5.75-.85 3.733 0 6.633.933 8.7 2.8 2.1 1.867 3.15 4.533 3.15 8v8.35c0 .7.116 1.2.35 1.5.266.3.683.483 1.25.55V65c-.6.1-1.15.183-1.65.25-.467.067-.867.1-1.2.1-1.334 0-2.35-.3-3.05-.9a3.868 3.868 0 0 1-1.25-2.2l-.15-1.35a11.46 11.46 0 0 1-4.25 3.4c-1.7.8-3.434 1.2-5.2 1.2-1.734 0-3.3-.35-4.7-1.05-1.367-.733-2.45-1.717-3.25-2.95-.767-1.267-1.15-2.683-1.15-4.25Zm16.3 1.35c.366-.4.666-.8.9-1.2.233-.4.35-.767.35-1.1v-2.65c-.8-.333-1.667-.583-2.6-.75-.934-.2-1.817-.3-2.65-.3-1.734 0-3.167.383-4.3 1.15-1.1.733-1.65 1.717-1.65 2.95 0 .667.183 1.3.55 1.9.366.6.9 1.083 1.6 1.45.7.367 1.533.55 2.5.55 1 0 1.983-.183 2.95-.55.966-.4 1.75-.883 2.35-1.45Zm14.161-30.1h6.7v28.1c0 1.2.2 2.017.6 2.45.4.4.95.6 1.65.6.533 0 1.083-.067 1.65-.2a7.935 7.935 0 0 0 1.5-.5l.9 5.1c-.9.433-1.95.767-3.15 1-1.2.233-2.284.35-3.25.35-2.1 0-3.734-.55-4.9-1.65-1.134-1.133-1.7-2.733-1.7-4.8V28.5ZM210.672 65h-6.7V50.3c0-2.067-.367-3.583-1.1-4.55-.7-1-1.683-1.5-2.95-1.5-1.3 0-2.55.517-3.75 1.55-1.167 1-2 2.317-2.5 3.95V65h-6.7V50.3c0-2.1-.367-3.633-1.1-4.6-.7-.967-1.683-1.45-2.95-1.45-1.3 0-2.55.5-3.75 1.5-1.167 1-2 2.317-2.5 3.95V65h-6.7V38.8h6.05v4.85c1-1.7 2.333-3 4-3.9 1.667-.933 3.583-1.4 5.75-1.4s3.85.533 5.05 1.6c1.233 1.067 2.017 2.383 2.35 3.95 1.067-1.8 2.417-3.167 4.05-4.1 1.667-.967 3.533-1.45 5.6-1.45 1.633 0 2.95.3 3.95.9a6.036 6.036 0 0 1 2.4 2.35c.567.967.95 2.067 1.15 3.3.233 1.233.35 2.483.35 3.75V65Zm17.933.5c-2.133 0-4.05-.35-5.75-1.05-1.7-.733-3.15-1.733-4.35-3a13.625 13.625 0 0 1-2.7-4.35 14.127 14.127 0 0 1-.95-5.15c0-1.833.317-3.567.95-5.2a13.625 13.625 0 0 1 2.7-4.35c1.2-1.267 2.65-2.25 4.35-2.95 1.7-.733 3.617-1.1 5.75-1.1s4.033.367 5.7 1.1c1.7.7 3.15 1.683 4.35 2.95 1.2 1.267 2.1 2.717 2.7 4.35.633 1.633.95 3.367.95 5.2 0 1.8-.317 3.517-.95 5.15-.6 1.633-1.5 3.083-2.7 4.35-1.167 1.267-2.6 2.267-4.3 3-1.7.7-3.617 1.05-5.75 1.05Zm-6.85-13.55c0 1.533.3 2.9.9 4.1.6 1.167 1.417 2.083 2.45 2.75 1.033.667 2.2 1 3.5 1 1.267 0 2.417-.333 3.45-1 1.033-.7 1.85-1.633 2.45-2.8.633-1.2.95-2.567.95-4.1 0-1.5-.317-2.85-.95-4.05-.6-1.2-1.417-2.133-2.45-2.8-1.033-.667-2.183-1-3.45-1-1.3 0-2.467.35-3.5 1.05-1.033.667-1.85 1.6-2.45 2.8-.6 1.167-.9 2.517-.9 4.05Zm34.722 13.55c-2.233 0-4.366-.367-6.4-1.1-2.033-.733-3.783-1.817-5.25-3.25l2.4-4.35c1.567 1.267 3.1 2.2 4.6 2.8 1.534.6 3 .9 4.4.9 1.3 0 2.334-.233 3.1-.7.8-.467 1.2-1.167 1.2-2.1 0-.633-.216-1.117-.65-1.45-.433-.367-1.066-.683-1.9-.95a72.49 72.49 0 0 0-2.95-.9c-1.933-.633-3.55-1.25-4.85-1.85-1.3-.6-2.283-1.35-2.95-2.25-.633-.933-.95-2.117-.95-3.55 0-1.733.434-3.217 1.3-4.45.9-1.267 2.134-2.25 3.7-2.95 1.6-.7 3.467-1.05 5.6-1.05 1.867 0 3.634.3 5.3.9 1.667.567 3.184 1.5 4.55 2.8l-2.7 4.25c-1.333-1.033-2.6-1.783-3.8-2.25-1.2-.5-2.416-.75-3.65-.75-.7 0-1.366.083-2 .25-.6.167-1.1.45-1.5.85-.366.367-.55.9-.55 1.6 0 .633.167 1.133.5 1.5.367.333.9.633 1.6.9a78.38 78.38 0 0 0 2.65.9c2.1.6 3.867 1.217 5.3 1.85 1.467.633 2.567 1.417 3.3 2.35.734.9 1.1 2.15 1.1 3.75 0 2.6-.95 4.633-2.85 6.1-1.9 1.467-4.45 2.2-7.65 2.2Zm30.611-1.85c-.567.233-1.25.5-2.05.8-.8.3-1.667.533-2.6.7-.9.2-1.817.3-2.75.3-1.233 0-2.367-.217-3.4-.65a5.562 5.562 0 0 1-2.5-2.05c-.6-.967-.9-2.217-.9-3.75V43.95h-3.45V38.8h3.45v-8.5h6.7v8.5h5.5v5.15h-5.5v12.8c.033.9.283 1.55.75 1.95.467.4 1.05.6 1.75.6s1.383-.117 2.05-.35c.667-.233 1.2-.433 1.6-.6l1.35 5.3ZM326.939 65h-6.7V50.3c0-2.033-.4-3.55-1.2-4.55-.767-1-1.833-1.5-3.2-1.5-.8 0-1.65.233-2.55.7-.9.467-1.717 1.117-2.45 1.95-.7.8-1.217 1.733-1.55 2.8V65h-6.7V28.5h6.7v15.15a10.322 10.322 0 0 1 3.95-3.9c1.667-.933 3.483-1.4 5.45-1.4 1.7 0 3.083.3 4.15.9a6.293 6.293 0 0 1 2.5 2.35c.6.967 1.017 2.067 1.25 3.3.233 1.2.35 2.45.35 3.75V65Zm17.976.5c-2.1 0-4-.35-5.7-1.05-1.7-.733-3.15-1.717-4.35-2.95a14.082 14.082 0 0 1-2.8-4.3 14.127 14.127 0 0 1-.95-5.15c0-2.5.55-4.783 1.65-6.85 1.133-2.067 2.733-3.717 4.8-4.95 2.1-1.267 4.567-1.9 7.4-1.9 2.867 0 5.317.633 7.35 1.9 2.033 1.233 3.583 2.883 4.65 4.95 1.1 2.033 1.65 4.233 1.65 6.6 0 .4-.017.817-.05 1.25-.033.4-.067.733-.1 1h-20.25c.133 1.333.517 2.5 1.15 3.5.667 1 1.5 1.767 2.5 2.3 1.033.5 2.133.75 3.3.75a7.742 7.742 0 0 0 3.75-.95c1.2-.667 2.017-1.533 2.45-2.6l5.75 1.6c-.633 1.333-1.55 2.517-2.75 3.55-1.167 1.033-2.55 1.85-4.15 2.45-1.6.567-3.367.85-5.3.85Zm-6.85-15.7h13.7c-.133-1.333-.517-2.483-1.15-3.45-.6-1-1.4-1.767-2.4-2.3-1-.567-2.117-.85-3.35-.85-1.2 0-2.3.283-3.3.85-.967.533-1.767 1.3-2.4 2.3-.6.967-.967 2.117-1.1 3.45Zm40.231-5.2c-2.033 0-3.85.4-5.45 1.2-1.6.767-2.75 1.883-3.45 3.35V65h-6.7V38.8h6.15v5.6c.934-1.8 2.117-3.217 3.55-4.25 1.434-1.033 2.95-1.6 4.55-1.7h.85c.2 0 .367.017.5.05v6.1Zm15.545 20.9c-2.1 0-4-.35-5.7-1.05-1.7-.733-3.15-1.717-4.35-2.95a14.063 14.063 0 0 1-2.8-4.3 14.106 14.106 0 0 1-.95-5.15c0-2.5.55-4.783 1.65-6.85 1.133-2.067 2.733-3.717 4.8-4.95 2.1-1.267 4.566-1.9 7.4-1.9 2.866 0 5.316.633 7.35 1.9 2.033 1.233 3.583 2.883 4.65 4.95 1.1 2.033 1.65 4.233 1.65 6.6 0 .4-.017.817-.05 1.25-.034.4-.067.733-.1 1h-20.25c.133 1.333.516 2.5 1.15 3.5.666 1 1.5 1.767 2.5 2.3 1.033.5 2.133.75 3.3.75a7.742 7.742 0 0 0 3.75-.95c1.2-.667 2.016-1.533 2.45-2.6l5.75 1.6c-.634 1.333-1.55 2.517-2.75 3.55-1.167 1.033-2.55 1.85-4.15 2.45-1.6.567-3.367.85-5.3.85Zm-6.85-15.7h13.7c-.134-1.333-.517-2.483-1.15-3.45-.6-1-1.4-1.767-2.4-2.3-1-.567-2.117-.85-3.35-.85-1.2 0-2.3.283-3.3.85-.967.533-1.767 1.3-2.4 2.3-.6.967-.967 2.117-1.1 3.45Zm25.231 20.95 1.35-5.95h-2.1v-7h5.8v7l-2.05 5.95h-3Zm35.233-5.25c-2.133 0-4.05-.35-5.75-1.05-1.7-.733-3.15-1.733-4.35-3a14.541 14.541 0 0 1-2.8-4.4 14.127 14.127 0 0 1-.95-5.15c0-2.467.55-4.717 1.65-6.75 1.133-2.067 2.733-3.717 4.8-4.95 2.067-1.233 4.517-1.85 7.35-1.85 2.833 0 5.267.617 7.3 1.85 2.033 1.233 3.55 2.85 4.55 4.85l-6.55 2c-.567-.967-1.317-1.7-2.25-2.2-.933-.533-1.967-.8-3.1-.8a6.476 6.476 0 0 0-3.5 1c-1.033.633-1.85 1.55-2.45 2.75-.6 1.167-.9 2.533-.9 4.1 0 1.533.3 2.9.9 4.1.633 1.167 1.467 2.1 2.5 2.8 1.033.667 2.183 1 3.45 1 .8 0 1.55-.133 2.25-.4a6.58 6.58 0 0 0 1.95-1.1c.567-.467.983-1 1.25-1.6l6.55 2c-.6 1.3-1.483 2.467-2.65 3.5-1.133 1.033-2.483 1.85-4.05 2.45-1.533.567-3.267.85-5.2.85Zm40.373-.5h-6.7V50.3c0-2.033-.4-3.55-1.2-4.55-.767-1-1.834-1.5-3.2-1.5-.8 0-1.65.233-2.55.7-.9.467-1.717 1.117-2.45 1.95-.7.8-1.217 1.733-1.55 2.8V65h-6.7V28.5h6.7v15.15a10.315 10.315 0 0 1 3.95-3.9c1.666-.933 3.483-1.4 5.45-1.4 1.7 0 3.083.3 4.15.9 1.066.567 1.9 1.35 2.5 2.35.6.967 1.016 2.067 1.25 3.3.233 1.2.35 2.45.35 3.75V65Zm17.976.5c-2.1 0-4-.35-5.7-1.05-1.7-.733-3.15-1.717-4.35-2.95a14.063 14.063 0 0 1-2.8-4.3 14.106 14.106 0 0 1-.95-5.15c0-2.5.55-4.783 1.65-6.85 1.133-2.067 2.733-3.717 4.8-4.95 2.1-1.267 4.566-1.9 7.4-1.9 2.866 0 5.316.633 7.35 1.9 2.033 1.233 3.583 2.883 4.65 4.95 1.1 2.033 1.65 4.233 1.65 6.6 0 .4-.017.817-.05 1.25-.034.4-.067.733-.1 1h-20.25c.133 1.333.516 2.5 1.15 3.5.666 1 1.5 1.767 2.5 2.3 1.033.5 2.133.75 3.3.75a7.742 7.742 0 0 0 3.75-.95c1.2-.667 2.016-1.533 2.45-2.6l5.75 1.6c-.634 1.333-1.55 2.517-2.75 3.55-1.167 1.033-2.55 1.85-4.15 2.45-1.6.567-3.367.85-5.3.85Zm-6.85-15.7h13.7c-.134-1.333-.517-2.483-1.15-3.45-.6-1-1.4-1.767-2.4-2.3-1-.567-2.117-.85-3.35-.85-1.2 0-2.3.283-3.3.85-.967.533-1.767 1.3-2.4 2.3-.6.967-.967 2.117-1.1 3.45Zm36.831 15.7c-2.133 0-4.05-.35-5.75-1.05-1.7-.733-3.15-1.733-4.35-3a14.541 14.541 0 0 1-2.8-4.4 14.127 14.127 0 0 1-.95-5.15c0-2.467.55-4.717 1.65-6.75 1.133-2.067 2.733-3.717 4.8-4.95 2.067-1.233 4.517-1.85 7.35-1.85 2.833 0 5.267.617 7.3 1.85 2.033 1.233 3.55 2.85 4.55 4.85l-6.55 2c-.567-.967-1.317-1.7-2.25-2.2-.933-.533-1.967-.8-3.1-.8a6.476 6.476 0 0 0-3.5 1c-1.033.633-1.85 1.55-2.45 2.75-.6 1.167-.9 2.533-.9 4.1 0 1.533.3 2.9.9 4.1.633 1.167 1.467 2.1 2.5 2.8 1.033.667 2.183 1 3.45 1 .8 0 1.55-.133 2.25-.4a6.58 6.58 0 0 0 1.95-1.1c.567-.467.983-1 1.25-1.6l6.55 2c-.6 1.3-1.483 2.467-2.65 3.5-1.133 1.033-2.483 1.85-4.05 2.45-1.533.567-3.267.85-5.2.85Zm33.923-.5-7.65-11.3-3.55 3.5V65h-6.7V28.5h6.7v22.1l10.55-11.75h7.1l-9.75 11.1L576.858 65h-7.15Zm37.692-1.35c-.566.233-1.25.5-2.05.8-.8.3-1.666.533-2.6.7-.9.2-1.816.3-2.75.3-1.233 0-2.366-.217-3.4-.65a5.567 5.567 0 0 1-2.5-2.05c-.6-.967-.9-2.217-.9-3.75V43.95h-3.45V38.8h3.45v-8.5h6.7v8.5h5.5v5.15h-5.5v12.8c.034.9.284 1.55.75 1.95.467.4 1.05.6 1.75.6s1.384-.117 2.05-.35c.667-.233 1.2-.433 1.6-.6l1.35 5.3ZM635.24 65h-6.7V50.3c0-2.033-.4-3.55-1.2-4.55-.767-1-1.833-1.5-3.2-1.5-.8 0-1.65.233-2.55.7-.9.467-1.717 1.117-2.45 1.95-.7.8-1.217 1.733-1.55 2.8V65h-6.7V28.5h6.7v15.15a10.322 10.322 0 0 1 3.95-3.9c1.667-.933 3.483-1.4 5.45-1.4 1.7 0 3.083.3 4.15.9a6.293 6.293 0 0 1 2.5 2.35c.6.967 1.017 2.067 1.25 3.3.233 1.2.35 2.45.35 3.75V65Zm17.976.5c-2.1 0-4-.35-5.7-1.05-1.7-.733-3.15-1.717-4.35-2.95a14.063 14.063 0 0 1-2.8-4.3 14.106 14.106 0 0 1-.95-5.15c0-2.5.55-4.783 1.65-6.85 1.133-2.067 2.733-3.717 4.8-4.95 2.1-1.267 4.566-1.9 7.4-1.9 2.866 0 5.316.633 7.35 1.9 2.033 1.233 3.583 2.883 4.65 4.95 1.1 2.033 1.65 4.233 1.65 6.6 0 .4-.017.817-.05 1.25-.034.4-.067.733-.1 1h-20.25c.133 1.333.516 2.5 1.15 3.5.666 1 1.5 1.767 2.5 2.3 1.033.5 2.133.75 3.3.75a7.742 7.742 0 0 0 3.75-.95c1.2-.667 2.016-1.533 2.45-2.6l5.75 1.6c-.634 1.333-1.55 2.517-2.75 3.55-1.167 1.033-2.55 1.85-4.15 2.45-1.6.567-3.367.85-5.3.85Zm-6.85-15.7h13.7c-.134-1.333-.517-2.483-1.15-3.45-.6-1-1.4-1.767-2.4-2.3-1-.567-2.117-.85-3.35-.85-1.2 0-2.3.283-3.3.85-.967.533-1.767 1.3-2.4 2.3-.6.967-.967 2.117-1.1 3.45Zm52.243-5.2c-2.033 0-3.85.4-5.45 1.2-1.6.767-2.75 1.883-3.45 3.35V65h-6.7V38.8h6.15v5.6c.933-1.8 2.117-3.217 3.55-4.25 1.433-1.033 2.95-1.6 4.55-1.7h.85c.2 0 .367.017.5.05v6.1Zm15.494 20.9c-2.133 0-4.05-.35-5.75-1.05-1.7-.733-3.15-1.733-4.35-3a13.625 13.625 0 0 1-2.7-4.35 14.127 14.127 0 0 1-.95-5.15c0-1.833.317-3.567.95-5.2a13.625 13.625 0 0 1 2.7-4.35c1.2-1.267 2.65-2.25 4.35-2.95 1.7-.733 3.617-1.1 5.75-1.1s4.033.367 5.7 1.1c1.7.7 3.15 1.683 4.35 2.95 1.2 1.267 2.1 2.717 2.7 4.35.633 1.633.95 3.367.95 5.2 0 1.8-.317 3.517-.95 5.15-.6 1.633-1.5 3.083-2.7 4.35-1.167 1.267-2.6 2.267-4.3 3-1.7.7-3.617 1.05-5.75 1.05Zm-6.85-13.55c0 1.533.3 2.9.9 4.1.6 1.167 1.417 2.083 2.45 2.75 1.033.667 2.2 1 3.5 1 1.267 0 2.417-.333 3.45-1 1.033-.7 1.85-1.633 2.45-2.8.633-1.2.95-2.567.95-4.1 0-1.5-.317-2.85-.95-4.05-.6-1.2-1.417-2.133-2.45-2.8-1.033-.667-2.183-1-3.45-1-1.3 0-2.467.35-3.5 1.05-1.033.667-1.85 1.6-2.45 2.8-.6 1.167-.9 2.517-.9 4.05Zm23.272 5.3c0-1.7.467-3.183 1.4-4.45.967-1.3 2.3-2.3 4-3 1.7-.7 3.65-1.05 5.85-1.05 1.1 0 2.217.083 3.35.25 1.134.167 2.117.433 2.95.8v-1.4c0-1.667-.5-2.95-1.5-3.85-.966-.9-2.416-1.35-4.35-1.35-1.433 0-2.8.25-4.1.75-1.3.5-2.666 1.233-4.1 2.2l-2.15-4.4c1.734-1.133 3.5-1.983 5.3-2.55 1.834-.567 3.75-.85 5.75-.85 3.734 0 6.634.933 8.7 2.8 2.1 1.867 3.15 4.533 3.15 8v8.35c0 .7.117 1.2.35 1.5.267.3.684.483 1.25.55V65c-.6.1-1.15.183-1.65.25-.466.067-.866.1-1.2.1-1.333 0-2.35-.3-3.05-.9a3.88 3.88 0 0 1-1.25-2.2l-.15-1.35a11.451 11.451 0 0 1-4.25 3.4c-1.7.8-3.433 1.2-5.2 1.2-1.733 0-3.3-.35-4.7-1.05-1.366-.733-2.45-1.717-3.25-2.95-.766-1.267-1.15-2.683-1.15-4.25Zm16.3 1.35c.367-.4.667-.8.9-1.2.234-.4.35-.767.35-1.1v-2.65c-.8-.333-1.666-.583-2.6-.75-.933-.2-1.816-.3-2.65-.3-1.733 0-3.166.383-4.3 1.15-1.1.733-1.65 1.717-1.65 2.95 0 .667.184 1.3.55 1.9.367.6.9 1.083 1.6 1.45.7.367 1.534.55 2.5.55 1 0 1.984-.183 2.95-.55.967-.4 1.75-.883 2.35-1.45Zm12.611-6.7c0-2.533.5-4.817 1.5-6.85 1-2.067 2.384-3.7 4.15-4.9 1.767-1.2 3.784-1.8 6.05-1.8 1.934 0 3.667.483 5.2 1.45 1.567.933 2.784 2.133 3.65 3.6V28.5h6.7v29c0 .7.117 1.2.35 1.5.234.3.634.483 1.2.55V65c-1.166.233-2.116.35-2.85.35-1.2 0-2.2-.3-3-.9a3.305 3.305 0 0 1-1.3-2.35l-.1-1.65a9.715 9.715 0 0 1-3.95 3.75c-1.633.867-3.35 1.3-5.15 1.3-1.8 0-3.466-.35-5-1.05-1.5-.7-2.816-1.667-3.95-2.9-1.1-1.233-1.966-2.667-2.6-4.3-.6-1.667-.9-3.45-.9-5.35Zm20.55 3.5v-6.25a7.043 7.043 0 0 0-1.6-2.6 8.449 8.449 0 0 0-2.45-1.8c-.9-.467-1.8-.7-2.7-.7-1.033 0-1.966.217-2.8.65a7.411 7.411 0 0 0-2.2 1.75 8.226 8.226 0 0 0-1.4 2.55c-.3.967-.45 1.983-.45 3.05 0 1.067.167 2.083.5 3.05a7.493 7.493 0 0 0 3.85 4.1c.9.4 1.867.6 2.9.6.634 0 1.267-.1 1.9-.3a8.625 8.625 0 0 0 1.85-.9c.6-.4 1.117-.867 1.55-1.4a6.183 6.183 0 0 0 1.05-1.8Zm53.977 9.6h-6.7V50.3c0-2.067-.367-3.583-1.1-4.55-.7-1-1.683-1.5-2.95-1.5-1.3 0-2.55.517-3.75 1.55-1.167 1-2 2.317-2.5 3.95V65h-6.7V50.3c0-2.1-.367-3.633-1.1-4.6-.7-.967-1.683-1.45-2.95-1.45-1.3 0-2.55.5-3.75 1.5-1.167 1-2 2.317-2.5 3.95V65h-6.7V38.8h6.05v4.85c1-1.7 2.333-3 4-3.9 1.667-.933 3.583-1.4 5.75-1.4s3.85.533 5.05 1.6c1.233 1.067 2.017 2.383 2.35 3.95 1.067-1.8 2.417-3.167 4.05-4.1 1.667-.967 3.533-1.45 5.6-1.45 1.633 0 2.95.3 3.95.9a6.036 6.036 0 0 1 2.4 2.35c.567.967.95 2.067 1.15 3.3.233 1.233.35 2.483.35 3.75V65Zm4.033-7.75c0-1.7.467-3.183 1.4-4.45.967-1.3 2.3-2.3 4-3 1.7-.7 3.65-1.05 5.85-1.05 1.1 0 2.217.083 3.35.25 1.133.167 2.117.433 2.95.8v-1.4c0-1.667-.5-2.95-1.5-3.85-.967-.9-2.417-1.35-4.35-1.35-1.433 0-2.8.25-4.1.75-1.3.5-2.667 1.233-4.1 2.2l-2.15-4.4c1.733-1.133 3.5-1.983 5.3-2.55 1.833-.567 3.75-.85 5.75-.85 3.733 0 6.633.933 8.7 2.8 2.1 1.867 3.15 4.533 3.15 8v8.35c0 .7.117 1.2.35 1.5.267.3.683.483 1.25.55V65c-.6.1-1.15.183-1.65.25-.467.067-.867.1-1.2.1-1.333 0-2.35-.3-3.05-.9a3.874 3.874 0 0 1-1.25-2.2l-.15-1.35a11.451 11.451 0 0 1-4.25 3.4c-1.7.8-3.433 1.2-5.2 1.2-1.733 0-3.3-.35-4.7-1.05-1.367-.733-2.45-1.717-3.25-2.95-.767-1.267-1.15-2.683-1.15-4.25Zm16.3 1.35c.367-.4.667-.8.9-1.2.233-.4.35-.767.35-1.1v-2.65c-.8-.333-1.667-.583-2.6-.75-.933-.2-1.817-.3-2.65-.3-1.733 0-3.167.383-4.3 1.15-1.1.733-1.65 1.717-1.65 2.95 0 .667.183 1.3.55 1.9.367.6.9 1.083 1.6 1.45.7.367 1.533.55 2.5.55 1 0 1.983-.183 2.95-.55.967-.4 1.75-.883 2.35-1.45Zm29.911 6.9c-2.033 0-3.833-.45-5.4-1.35a9.973 9.973 0 0 1-3.6-3.75v15.25h-6.7V38.8h5.85v4.5c1-1.533 2.267-2.733 3.8-3.6 1.533-.9 3.283-1.35 5.25-1.35 1.767 0 3.383.35 4.85 1.05 1.5.7 2.8 1.683 3.9 2.95 1.1 1.233 1.95 2.667 2.55 4.3.633 1.6.95 3.333.95 5.2 0 2.533-.5 4.833-1.5 6.9-.967 2.067-2.317 3.717-4.05 4.95-1.7 1.2-3.667 1.8-5.9 1.8Zm-2.25-5.7c1.033 0 1.967-.217 2.8-.65a6.817 6.817 0 0 0 2.15-1.75 7.651 7.651 0 0 0 1.4-2.55c.333-.967.5-1.967.5-3 0-1.1-.183-2.117-.55-3.05a6.84 6.84 0 0 0-1.5-2.45 6.973 6.973 0 0 0-2.35-1.7c-.867-.4-1.817-.6-2.85-.6-.633 0-1.283.117-1.95.35-.633.2-1.25.5-1.85.9-.6.4-1.133.867-1.6 1.4a5.282 5.282 0 0 0-.95 1.75v6.15c.4.967.933 1.85 1.6 2.65.7.8 1.5 1.433 2.4 1.9.9.433 1.817.65 2.75.65ZM76.962 124.5c-2 0-3.784-.45-5.35-1.35a9.855 9.855 0 0 1-3.7-3.7V124h-5.85V87.5h6.7v14.9c.933-1.567 2.15-2.8 3.65-3.7 1.533-.9 3.316-1.35 5.35-1.35 1.7 0 3.25.367 4.65 1.1 1.4.7 2.6 1.683 3.6 2.95 1.033 1.267 1.816 2.717 2.35 4.35.566 1.633.85 3.383.85 5.25s-.317 3.617-.95 5.25a13.863 13.863 0 0 1-2.55 4.35 11.94 11.94 0 0 1-3.9 2.9c-1.467.667-3.084 1-4.85 1Zm-1.85-5.7c1.066 0 2.033-.2 2.9-.6.9-.433 1.666-1 2.3-1.7a6.851 6.851 0 0 0 1.5-2.45c.366-.967.55-1.967.55-3 0-1.433-.3-2.75-.9-3.95-.567-1.233-1.367-2.217-2.4-2.95-1-.733-2.184-1.1-3.55-1.1-.967 0-1.9.233-2.8.7a8.037 8.037 0 0 0-2.35 1.8 9.423 9.423 0 0 0-1.6 2.6v6.25c.2.667.516 1.267.95 1.8.466.533 1 1 1.6 1.4.6.367 1.216.667 1.85.9.666.2 1.316.3 1.95.3Zm30.789 5.7c-2.1 0-4-.35-5.7-1.05-1.7-.733-3.15-1.717-4.35-2.95a14.078 14.078 0 0 1-2.8-4.3 14.117 14.117 0 0 1-.95-5.15c0-2.5.55-4.783 1.65-6.85 1.133-2.067 2.733-3.717 4.8-4.95 2.1-1.267 4.567-1.9 7.4-1.9 2.867 0 5.317.633 7.35 1.9 2.034 1.233 3.584 2.883 4.65 4.95 1.1 2.033 1.65 4.233 1.65 6.6 0 .4-.016.817-.05 1.25-.033.4-.066.733-.1 1h-20.25c.134 1.333.517 2.5 1.15 3.5.667 1 1.5 1.767 2.5 2.3 1.034.5 2.134.75 3.3.75a7.74 7.74 0 0 0 3.75-.95c1.2-.667 2.017-1.533 2.45-2.6l5.75 1.6c-.633 1.333-1.55 2.517-2.75 3.55-1.166 1.033-2.55 1.85-4.15 2.45-1.6.567-3.366.85-5.3.85Zm-6.85-15.7h13.7c-.133-1.333-.516-2.483-1.15-3.45-.6-1-1.4-1.767-2.4-2.3-1-.567-2.116-.85-3.35-.85-1.2 0-2.3.283-3.3.85-.966.533-1.766 1.3-2.4 2.3-.6.967-.966 2.117-1.1 3.45Zm24.582-21.3h6.7v28.1c0 1.2.2 2.017.6 2.45.4.4.95.6 1.65.6.533 0 1.083-.067 1.65-.2a7.914 7.914 0 0 0 1.5-.5l.9 5.1c-.9.433-1.95.767-3.15 1-1.2.233-2.284.35-3.25.35-2.1 0-3.734-.55-4.9-1.65-1.134-1.133-1.7-2.733-1.7-4.8V87.5Zm28.019 37c-2.133 0-4.05-.35-5.75-1.05-1.7-.733-3.15-1.733-4.35-3a13.631 13.631 0 0 1-2.7-4.35 14.126 14.126 0 0 1-.95-5.15c0-1.833.317-3.567.95-5.2a13.631 13.631 0 0 1 2.7-4.35c1.2-1.267 2.65-2.25 4.35-2.95 1.7-.733 3.617-1.1 5.75-1.1s4.033.367 5.7 1.1c1.7.7 3.15 1.683 4.35 2.95 1.2 1.267 2.1 2.717 2.7 4.35.633 1.633.95 3.367.95 5.2 0 1.8-.317 3.517-.95 5.15-.6 1.633-1.5 3.083-2.7 4.35-1.167 1.267-2.6 2.267-4.3 3-1.7.7-3.617 1.05-5.75 1.05Zm-6.85-13.55c0 1.533.3 2.9.9 4.1.6 1.167 1.417 2.083 2.45 2.75 1.033.667 2.2 1 3.5 1 1.267 0 2.417-.333 3.45-1 1.033-.7 1.85-1.633 2.45-2.8.633-1.2.95-2.567.95-4.1 0-1.5-.317-2.85-.95-4.05-.6-1.2-1.417-2.133-2.45-2.8-1.033-.667-2.183-1-3.45-1-1.3 0-2.467.35-3.5 1.05-1.033.667-1.85 1.6-2.45 2.8-.6 1.167-.9 2.517-.9 4.05Zm56.693-13.15h6.35l-10.95 26.2h-5.6l-4.4-11.25-4.3 11.25h-5.65l-10.9-26.2h6.3l7.8 19.8 3.05-8.55-4.55-11.2h5.55l2.7 8 2.75-8h5.55l-4.55 11.2 3.1 8.55 7.75-19.8Z" fill="#fff"/>
  <path d="m284.2 100-5.2-9h13l-7.8 9Z" fill="#1DA1F2"/>
</svg>
