<svg fill="none" xmlns="http://www.w3.org/2000/svg" viewBox="0 0 324 94">
  <path fill-rule="evenodd" clip-rule="evenodd" d="M43 0C19.252 0 0 19.252 0 43s19.252 43 43 43h223l6.6 8 4.4-8h4c23.748 0 43-19.252 43-43S304.748 0 281 0H43Z" fill="#1DA1F2"/>
  <path d="M49.7 59V23.5h6.9v29.45h18.1V59h-25Zm40.504.5c-2.1 0-4-.35-5.7-1.05-1.7-.733-3.15-1.717-4.35-2.95a14.076 14.076 0 0 1-2.8-4.3 14.12 14.12 0 0 1-.95-5.15c0-2.5.55-4.783 1.65-6.85 1.133-2.067 2.733-3.717 4.8-4.95 2.1-1.267 4.567-1.9 7.4-1.9 2.867 0 5.317.633 7.35 1.9 2.033 1.233 3.583 2.883 4.65 4.95 1.1 2.033 1.65 4.233 1.65 6.6 0 .4-.017.817-.05 1.25-.033.4-.067.733-.1 1h-20.25c.133 1.333.517 2.5 1.15 3.5.667 1 1.5 1.767 2.5 2.3 1.033.5 2.133.75 3.3.75a7.74 7.74 0 0 0 3.75-.95c1.2-.667 2.017-1.533 2.45-2.6l5.75 1.6c-.633 1.333-1.55 2.517-2.75 3.55-1.167 1.033-2.55 1.85-4.15 2.45-1.6.567-3.367.85-5.3.85Zm-6.85-15.7h13.7c-.133-1.333-.517-2.483-1.15-3.45-.6-1-1.4-1.767-2.4-2.3-1-.567-2.117-.85-3.35-.85-1.2 0-2.3.283-3.3.85-.967.533-1.767 1.3-2.4 2.3-.6.967-.967 2.117-1.1 3.45Zm40.087 13.85c-.566.233-1.25.5-2.05.8-.8.3-1.666.533-2.6.7-.9.2-1.816.3-2.75.3-1.233 0-2.366-.217-3.4-.65a5.567 5.567 0 0 1-2.5-2.05c-.6-.967-.9-2.217-.9-3.75V37.95h-3.45V32.8h3.45v-8.5h6.7v8.5h5.5v5.15h-5.5v12.8c.034.9.284 1.55.75 1.95.467.4 1.05.6 1.75.6s1.384-.117 2.05-.35c.667-.233 1.2-.433 1.6-.6l1.35 5.3Zm1.255-22.3 1.15-6.1h-2V22.5h6.7v6.85l-1.75 6h-4.1Zm17.402 24.15c-2.233 0-4.366-.367-6.4-1.1-2.033-.733-3.783-1.817-5.25-3.25l2.4-4.35c1.567 1.267 3.1 2.2 4.6 2.8 1.534.6 3 .9 4.4.9 1.3 0 2.334-.233 3.1-.7.8-.467 1.2-1.167 1.2-2.1 0-.633-.216-1.117-.65-1.45-.433-.367-1.066-.683-1.9-.95a72.49 72.49 0 0 0-2.95-.9c-1.933-.633-3.55-1.25-4.85-1.85-1.3-.6-2.283-1.35-2.95-2.25-.633-.933-.95-2.117-.95-3.55 0-1.733.434-3.217 1.3-4.45.9-1.267 2.134-2.25 3.7-2.95 1.6-.7 3.467-1.05 5.6-1.05 1.867 0 3.634.3 5.3.9 1.667.567 3.184 1.5 4.55 2.8l-2.7 4.25c-1.333-1.033-2.6-1.783-3.8-2.25-1.2-.5-2.416-.75-3.65-.75-.7 0-1.366.083-2 .25-.6.167-1.1.45-1.5.85-.366.367-.55.9-.55 1.6 0 .633.167 1.133.5 1.5.367.333.9.633 1.6.9a78.38 78.38 0 0 0 2.65.9c2.1.6 3.867 1.217 5.3 1.85 1.467.633 2.567 1.417 3.3 2.35.734.9 1.1 2.15 1.1 3.75 0 2.6-.95 4.633-2.85 6.1-1.9 1.467-4.45 2.2-7.65 2.2Zm42.769-1.85c-.566.233-1.25.5-2.05.8-.8.3-1.666.533-2.6.7-.9.2-1.816.3-2.75.3-1.233 0-2.366-.217-3.4-.65a5.567 5.567 0 0 1-2.5-2.05c-.6-.967-.9-2.217-.9-3.75V37.95h-3.45V32.8h3.45v-8.5h6.7v8.5h5.5v5.15h-5.5v12.8c.034.9.284 1.55.75 1.95.467.4 1.05.6 1.75.6s1.384-.117 2.05-.35c.667-.233 1.2-.433 1.6-.6l1.35 5.3Zm1.69-6.4c0-1.7.466-3.183 1.4-4.45.966-1.3 2.3-2.3 4-3 1.7-.7 3.65-1.05 5.85-1.05 1.1 0 2.216.083 3.35.25 1.133.167 2.116.433 2.95.8v-1.4c0-1.667-.5-2.95-1.5-3.85-.967-.9-2.417-1.35-4.35-1.35-1.434 0-2.8.25-4.1.75-1.3.5-2.667 1.233-4.1 2.2l-2.15-4.4c1.733-1.133 3.5-1.983 5.3-2.55 1.833-.567 3.75-.85 5.75-.85 3.733 0 6.633.933 8.7 2.8 2.1 1.867 3.15 4.533 3.15 8v8.35c0 .7.116 1.2.35 1.5.266.3.683.483 1.25.55V59c-.6.1-1.15.183-1.65.25-.467.067-.867.1-1.2.1-1.334 0-2.35-.3-3.05-.9a3.868 3.868 0 0 1-1.25-2.2l-.15-1.35a11.46 11.46 0 0 1-4.25 3.4c-1.7.8-3.434 1.2-5.2 1.2-1.734 0-3.3-.35-4.7-1.05-1.367-.733-2.45-1.717-3.25-2.95-.767-1.267-1.15-2.683-1.15-4.25Zm16.3 1.35c.366-.4.666-.8.9-1.2.233-.4.35-.767.35-1.1v-2.65c-.8-.333-1.667-.583-2.6-.75-.934-.2-1.817-.3-2.65-.3-1.734 0-3.167.383-4.3 1.15-1.1.733-1.65 1.717-1.65 2.95 0 .667.183 1.3.55 1.9.366.6.9 1.083 1.6 1.45.7.367 1.533.55 2.5.55 1 0 1.983-.183 2.95-.55.966-.4 1.75-.883 2.35-1.45Zm14.161-30.1h6.7v28.1c0 1.2.2 2.017.6 2.45.4.4.95.6 1.65.6.533 0 1.083-.067 1.65-.2a7.935 7.935 0 0 0 1.5-.5l.9 5.1c-.9.433-1.95.767-3.15 1-1.2.233-2.284.35-3.25.35-2.1 0-3.734-.55-4.9-1.65-1.134-1.133-1.7-2.733-1.7-4.8V22.5ZM250.837 59l-7.65-11.3-3.55 3.5V59h-6.7V22.5h6.7v22.1l10.55-11.75h7.1l-9.75 11.1L257.987 59h-7.15Zm11.281-13.35v-22.5h6.7v22.5h-6.7Zm0 13.35v-7.55h6.7V59h-6.7Z" fill="#fff"/>
</svg>
