<svg fill="none" xmlns="http://www.w3.org/2000/svg" viewBox="0 0 1222 558">
  <path d="M212 43c0-23.748 19.252-43 43-43h693c23.748 0 43 19.252 43 43s-19.252 43-43 43H255c-23.748 0-43-19.252-43-43Z" fill="#1DA1F2"/>
  <path d="M279.85 24.6h6.4l4.05 11.75 4.1-11.75h6.35l-6.1 16.15 4.5 11.3L309.2 24.5h7.5L302.5 60h-5.95l-6.25-14.9-6.2 14.9h-5.95L264 24.5h7.4l10.1 27.55 4.4-11.3-6.05-16.15ZM344.037 60h-6.7V45.3c0-2.033-.4-3.55-1.2-4.55-.767-1-1.834-1.5-3.2-1.5-.8 0-1.65.233-2.55.7-.9.467-1.717 1.117-2.45 1.95-.7.8-1.217 1.733-1.55 2.8V60h-6.7V23.5h6.7v15.15a10.315 10.315 0 0 1 3.95-3.9c1.666-.933 3.483-1.4 5.45-1.4 1.7 0 3.083.3 4.15.9 1.066.567 1.9 1.35 2.5 2.35.6.967 1.016 2.067 1.25 3.3.233 1.2.35 2.45.35 3.75V60Zm4.026-7.75c0-1.7.466-3.183 1.4-4.45.966-1.3 2.3-2.3 4-3 1.7-.7 3.65-1.05 5.849-1.05 1.101 0 2.217.083 3.351.25 1.133.167 2.116.433 2.95.8v-1.4c0-1.667-.5-2.95-1.5-3.85-.967-.9-2.417-1.35-4.35-1.35-1.434 0-2.8.25-4.1.75-1.3.5-2.667 1.233-4.1 2.2l-2.15-4.4c1.733-1.133 3.5-1.983 5.3-2.55 1.833-.567 3.75-.85 5.75-.85 3.733 0 6.633.933 8.7 2.8 2.1 1.867 3.15 4.533 3.15 8v8.35c0 .7.116 1.2.35 1.5.266.3.683.483 1.25.55V60c-.6.1-1.15.183-1.65.25-.467.067-.867.1-1.2.1-1.334 0-2.35-.3-3.05-.9a3.868 3.868 0 0 1-1.25-2.2l-.15-1.35a11.46 11.46 0 0 1-4.25 3.4c-1.7.8-3.434 1.2-5.2 1.2-1.734 0-3.3-.35-4.7-1.05-1.367-.733-2.45-1.717-3.25-2.95-.767-1.267-1.15-2.683-1.15-4.25Zm16.3 1.35c.366-.4.666-.8.9-1.2.233-.4.35-.767.35-1.1v-2.65c-.8-.333-1.667-.583-2.6-.75-.934-.2-1.817-.3-2.65-.3-1.734 0-3.167.383-4.3 1.15-1.1.733-1.65 1.717-1.65 2.95 0 .667.183 1.3.55 1.9.366.6.9 1.083 1.6 1.45.7.367 1.533.55 2.5.55 1 0 1.983-.183 2.95-.55.966-.4 1.75-.883 2.35-1.45Zm29.666 5.05c-.566.233-1.25.5-2.05.8-.8.3-1.666.533-2.6.7-.9.2-1.816.3-2.75.3-1.233 0-2.366-.217-3.4-.65a5.567 5.567 0 0 1-2.5-2.05c-.6-.967-.9-2.217-.9-3.75V38.95h-3.45V33.8h3.45v-8.5h6.7v8.5h5.5v5.15h-5.5v12.8c.034.9.284 1.55.75 1.95.467.4 1.05.6 1.75.6s1.384-.117 2.05-.35c.667-.233 1.2-.433 1.6-.6l1.35 5.3Zm13.701-6.4c0-1.7.467-3.183 1.4-4.45.967-1.3 2.3-2.3 4-3 1.7-.7 3.65-1.05 5.85-1.05 1.1 0 2.217.083 3.35.25 1.134.167 2.117.433 2.95.8v-1.4c0-1.667-.5-2.95-1.5-3.85-.966-.9-2.416-1.35-4.35-1.35-1.433 0-2.8.25-4.1.75-1.3.5-2.666 1.233-4.1 2.2l-2.15-4.4c1.734-1.133 3.5-1.983 5.3-2.55 1.834-.567 3.75-.85 5.75-.85 3.734 0 6.634.933 8.7 2.8 2.1 1.867 3.15 4.533 3.15 8v8.35c0 .7.117 1.2.35 1.5.267.3.684.483 1.25.55V60c-.6.1-1.15.183-1.65.25-.466.067-.866.1-1.2.1-1.333 0-2.35-.3-3.05-.9a3.88 3.88 0 0 1-1.25-2.2l-.15-1.35a11.451 11.451 0 0 1-4.25 3.4c-1.7.8-3.433 1.2-5.2 1.2-1.733 0-3.3-.35-4.7-1.05-1.366-.733-2.45-1.717-3.25-2.95-.766-1.267-1.15-2.683-1.15-4.25Zm16.3 1.35c.367-.4.667-.8.9-1.2.234-.4.35-.767.35-1.1v-2.65c-.8-.333-1.666-.583-2.6-.75-.933-.2-1.816-.3-2.65-.3-1.733 0-3.166.383-4.3 1.15-1.1.733-1.65 1.717-1.65 2.95 0 .667.184 1.3.55 1.9.367.6.9 1.083 1.6 1.45.7.367 1.534.55 2.5.55 1 0 1.984-.183 2.95-.55.967-.4 1.75-.883 2.35-1.45Zm29.111 6.9c-2 0-3.783-.45-5.35-1.35a9.862 9.862 0 0 1-3.7-3.7V60h-5.85V23.5h6.7v14.9c.934-1.567 2.15-2.8 3.65-3.7 1.534-.9 3.317-1.35 5.35-1.35 1.7 0 3.25.367 4.65 1.1 1.4.7 2.6 1.683 3.6 2.95 1.034 1.267 1.817 2.717 2.35 4.35.567 1.633.85 3.383.85 5.25s-.316 3.617-.95 5.25a13.856 13.856 0 0 1-2.55 4.35c-1.1 1.233-2.4 2.2-3.9 2.9-1.466.667-3.083 1-4.85 1Zm-1.85-5.7c1.067 0 2.034-.2 2.9-.6.9-.433 1.667-1 2.3-1.7a6.84 6.84 0 0 0 1.5-2.45c.367-.967.55-1.967.55-3 0-1.433-.3-2.75-.9-3.95-.566-1.233-1.366-2.217-2.4-2.95-1-.733-2.183-1.1-3.55-1.1-.966 0-1.9.233-2.8.7a8.055 8.055 0 0 0-2.35 1.8 9.437 9.437 0 0 0-1.6 2.6v6.25c.2.667.517 1.267.95 1.8.467.533 1 1 1.6 1.4.6.367 1.217.667 1.85.9.667.2 1.317.3 1.95.3Zm30.74 5.7c-2.133 0-4.05-.35-5.75-1.05-1.7-.733-3.15-1.733-4.35-3a13.625 13.625 0 0 1-2.7-4.35 14.127 14.127 0 0 1-.95-5.15c0-1.833.317-3.567.95-5.2a13.625 13.625 0 0 1 2.7-4.35c1.2-1.267 2.65-2.25 4.35-2.95 1.7-.733 3.617-1.1 5.75-1.1s4.033.367 5.7 1.1c1.7.7 3.15 1.683 4.35 2.95 1.2 1.267 2.1 2.717 2.7 4.35.633 1.633.95 3.367.95 5.2 0 1.8-.317 3.517-.95 5.15-.6 1.633-1.5 3.083-2.7 4.35-1.167 1.267-2.6 2.267-4.3 3-1.7.7-3.617 1.05-5.75 1.05Zm-6.85-13.55c0 1.533.3 2.9.9 4.1.6 1.167 1.417 2.083 2.45 2.75 1.033.667 2.2 1 3.5 1 1.267 0 2.417-.333 3.45-1 1.033-.7 1.85-1.633 2.45-2.8.633-1.2.95-2.567.95-4.1 0-1.5-.317-2.85-.95-4.05-.6-1.2-1.417-2.133-2.45-2.8-1.033-.667-2.183-1-3.45-1-1.3 0-2.467.35-3.5 1.05-1.033.667-1.85 1.6-2.45 2.8-.6 1.167-.9 2.517-.9 4.05Zm24.822 3.25V33.8h6.7v14.95c0 2 .367 3.517 1.1 4.55.733 1 1.817 1.5 3.25 1.5.867 0 1.717-.167 2.55-.5a7.36 7.36 0 0 0 2.35-1.6c.733-.7 1.35-1.583 1.85-2.65V33.8h6.7v18.7c0 .7.117 1.2.35 1.5.267.3.683.483 1.25.55V60c-.667.1-1.233.167-1.7.2a7.92 7.92 0 0 1-1.2.1c-1.2 0-2.183-.267-2.95-.8-.733-.567-1.167-1.333-1.3-2.3l-.15-2.1c-1.167 1.767-2.667 3.117-4.5 4.05-1.833.9-3.85 1.35-6.05 1.35-2.7 0-4.75-.867-6.15-2.6-1.4-1.767-2.1-4.333-2.1-7.7Zm46.761 8.45c-.567.233-1.25.5-2.05.8-.8.3-1.667.533-2.6.7-.9.2-1.817.3-2.75.3-1.234 0-2.367-.217-3.4-.65a5.557 5.557 0 0 1-2.5-2.05c-.6-.967-.9-2.217-.9-3.75V38.95h-3.45V33.8h3.45v-8.5h6.7v8.5h5.5v5.15h-5.5v12.8c.033.9.283 1.55.75 1.95.466.4 1.05.6 1.75.6s1.383-.117 2.05-.35c.666-.233 1.2-.433 1.6-.6l1.35 5.3Zm31.201 0c-.567.233-1.25.5-2.05.8-.8.3-1.667.533-2.6.7-.9.2-1.817.3-2.75.3-1.233 0-2.367-.217-3.4-.65a5.562 5.562 0 0 1-2.5-2.05c-.6-.967-.9-2.217-.9-3.75V38.95h-3.45V33.8h3.45v-8.5h6.7v8.5h5.5v5.15h-5.5v12.8c.033.9.283 1.55.75 1.95.467.4 1.05.6 1.75.6s1.383-.117 2.05-.35c.667-.233 1.2-.433 1.6-.6l1.35 5.3ZM605.804 60h-6.7V45.3c0-2.033-.4-3.55-1.2-4.55-.766-1-1.833-1.5-3.2-1.5-.8 0-1.65.233-2.55.7-.9.467-1.716 1.117-2.45 1.95a7.68 7.68 0 0 0-1.55 2.8V60h-6.7V23.5h6.7v15.15a10.329 10.329 0 0 1 3.95-3.9c1.667-.933 3.484-1.4 5.45-1.4 1.7 0 3.084.3 4.15.9a6.293 6.293 0 0 1 2.5 2.35c.6.967 1.017 2.067 1.25 3.3.234 1.2.35 2.45.35 3.75V60Zm17.976.5c-2.1 0-4-.35-5.7-1.05-1.7-.733-3.15-1.717-4.35-2.95a14.082 14.082 0 0 1-2.8-4.3 14.127 14.127 0 0 1-.95-5.15c0-2.5.55-4.783 1.65-6.85 1.133-2.067 2.733-3.717 4.8-4.95 2.1-1.267 4.567-1.9 7.4-1.9 2.867 0 5.317.633 7.35 1.9 2.033 1.233 3.583 2.883 4.65 4.95 1.1 2.033 1.65 4.233 1.65 6.6 0 .4-.017.817-.05 1.25-.033.4-.067.733-.1 1h-20.25c.133 1.333.517 2.5 1.15 3.5.667 1 1.5 1.767 2.5 2.3 1.033.5 2.133.75 3.3.75a7.742 7.742 0 0 0 3.75-.95c1.2-.667 2.017-1.533 2.45-2.6l5.75 1.6c-.633 1.333-1.55 2.517-2.75 3.55-1.167 1.033-2.55 1.85-4.15 2.45-1.6.567-3.367.85-5.3.85Zm-6.85-15.7h13.7c-.133-1.333-.517-2.483-1.15-3.45-.6-1-1.4-1.767-2.4-2.3-1-.567-2.117-.85-3.35-.85-1.2 0-2.3.283-3.3.85-.967.533-1.767 1.3-2.4 2.3-.6.967-.967 2.117-1.1 3.45Zm52.343 13.85c-.566.233-1.25.5-2.05.8-.8.3-1.666.533-2.6.7-.9.2-1.816.3-2.75.3-1.233 0-2.366-.217-3.4-.65a5.567 5.567 0 0 1-2.5-2.05c-.6-.967-.9-2.217-.9-3.75V38.95h-3.45V33.8h3.45v-8.5h6.7v8.5h5.5v5.15h-5.5v12.8c.034.9.284 1.55.75 1.95.467.4 1.05.6 1.75.6s1.384-.117 2.05-.35c.667-.233 1.2-.433 1.6-.6l1.35 5.3Zm15.297 1.85c-2.133 0-4.05-.35-5.75-1.05-1.7-.733-3.15-1.733-4.35-3a13.625 13.625 0 0 1-2.7-4.35 14.127 14.127 0 0 1-.95-5.15c0-1.833.317-3.567.95-5.2a13.625 13.625 0 0 1 2.7-4.35c1.2-1.267 2.65-2.25 4.35-2.95 1.7-.733 3.617-1.1 5.75-1.1s4.033.367 5.7 1.1c1.7.7 3.15 1.683 4.35 2.95 1.2 1.267 2.1 2.717 2.7 4.35.633 1.633.95 3.367.95 5.2 0 1.8-.317 3.517-.95 5.15-.6 1.633-1.5 3.083-2.7 4.35-1.167 1.267-2.6 2.267-4.3 3-1.7.7-3.617 1.05-5.75 1.05Zm-6.85-13.55c0 1.533.3 2.9.9 4.1.6 1.167 1.417 2.083 2.45 2.75 1.033.667 2.2 1 3.5 1 1.267 0 2.417-.333 3.45-1 1.033-.7 1.85-1.633 2.45-2.8.633-1.2.95-2.567.95-4.1 0-1.5-.317-2.85-.95-4.05-.6-1.2-1.417-2.133-2.45-2.8-1.033-.667-2.183-1-3.45-1-1.3 0-2.467.35-3.5 1.05-1.033.667-1.85 1.6-2.45 2.8-.6 1.167-.9 2.517-.9 4.05ZM720.692 60l-7.65-11.3-3.55 3.5V60h-6.7V23.5h6.7v22.1l10.55-11.75h7.1l-9.75 11.1L727.842 60h-7.15Zm20.764.5c-2.1 0-4-.35-5.7-1.05-1.7-.733-3.15-1.717-4.35-2.95a14.082 14.082 0 0 1-2.8-4.3 14.127 14.127 0 0 1-.95-5.15c0-2.5.55-4.783 1.65-6.85 1.133-2.067 2.733-3.717 4.8-4.95 2.1-1.267 4.567-1.9 7.4-1.9 2.867 0 5.317.633 7.35 1.9 2.033 1.233 3.583 2.883 4.65 4.95 1.1 2.033 1.65 4.233 1.65 6.6 0 .4-.017.817-.05 1.25-.033.4-.067.733-.1 1h-20.25c.133 1.333.517 2.5 1.15 3.5.667 1 1.5 1.767 2.5 2.3 1.033.5 2.133.75 3.3.75a7.742 7.742 0 0 0 3.75-.95c1.2-.667 2.017-1.533 2.45-2.6l5.75 1.6c-.633 1.333-1.55 2.517-2.75 3.55-1.167 1.033-2.55 1.85-4.15 2.45-1.6.567-3.367.85-5.3.85Zm-6.85-15.7h13.7c-.133-1.333-.517-2.483-1.15-3.45-.6-1-1.4-1.767-2.4-2.3-1-.567-2.117-.85-3.35-.85-1.2 0-2.3.283-3.3.85-.967.533-1.767 1.3-2.4 2.3-.6.967-.967 2.117-1.1 3.45ZM783.588 60h-6.7V45.3c0-2.1-.367-3.633-1.1-4.6-.734-.967-1.75-1.45-3.05-1.45-.9 0-1.817.233-2.75.7-.9.467-1.717 1.117-2.45 1.95a7.305 7.305 0 0 0-1.6 2.8V60h-6.7V33.8h6.05v4.85a9.496 9.496 0 0 1 2.55-2.85c1.033-.8 2.216-1.4 3.55-1.8a14.14 14.14 0 0 1 4.3-.65c1.633 0 2.966.3 4 .9 1.066.567 1.866 1.35 2.4 2.35.566.967.95 2.067 1.15 3.3.233 1.233.35 2.483.35 3.75V60Zm17.925.5c-2.133 0-4.05-.35-5.75-1.05-1.7-.733-3.15-1.733-4.35-3a13.66 13.66 0 0 1-2.7-4.35 14.127 14.127 0 0 1-.95-5.15c0-1.833.317-3.567.95-5.2a13.66 13.66 0 0 1 2.7-4.35c1.2-1.267 2.65-2.25 4.35-2.95 1.7-.733 3.617-1.1 5.75-1.1 2.134 0 4.034.367 5.7 1.1 1.7.7 3.15 1.683 4.35 2.95 1.2 1.267 2.1 2.717 2.7 4.35.634 1.633.95 3.367.95 5.2 0 1.8-.316 3.517-.95 5.15-.6 1.633-1.5 3.083-2.7 4.35-1.166 1.267-2.6 2.267-4.3 3-1.7.7-3.616 1.05-5.75 1.05Zm-6.85-13.55c0 1.533.3 2.9.9 4.1.6 1.167 1.417 2.083 2.45 2.75 1.034.667 2.2 1 3.5 1 1.267 0 2.417-.333 3.45-1 1.034-.7 1.85-1.633 2.45-2.8.634-1.2.95-2.567.95-4.1 0-1.5-.316-2.85-.95-4.05-.6-1.2-1.416-2.133-2.45-2.8-1.033-.667-2.183-1-3.45-1-1.3 0-2.466.35-3.5 1.05-1.033.667-1.85 1.6-2.45 2.8-.6 1.167-.9 2.517-.9 4.05ZM860.436 60h-6.7V45.3c0-2.067-.367-3.583-1.1-4.55-.7-1-1.684-1.5-2.95-1.5-1.3 0-2.55.517-3.75 1.55-1.167 1-2 2.317-2.5 3.95V60h-6.7V45.3c0-2.1-.367-3.633-1.1-4.6-.7-.967-1.684-1.45-2.95-1.45-1.3 0-2.55.5-3.75 1.5-1.167 1-2 2.317-2.5 3.95V60h-6.7V33.8h6.05v4.85c1-1.7 2.333-3 4-3.9 1.666-.933 3.583-1.4 5.75-1.4 2.166 0 3.85.533 5.05 1.6 1.233 1.067 2.016 2.383 2.35 3.95 1.066-1.8 2.416-3.167 4.05-4.1 1.666-.967 3.533-1.45 5.6-1.45 1.633 0 2.95.3 3.95.9a6.036 6.036 0 0 1 2.4 2.35c.566.967.95 2.067 1.15 3.3.233 1.233.35 2.483.35 3.75V60Zm5.833 0V33.8h6.7V60h-6.7Zm0-29.85V23.5h6.7v6.65h-6.7Zm24.944 30.35c-2.133 0-4.05-.35-5.75-1.05-1.7-.733-3.15-1.733-4.35-3a14.541 14.541 0 0 1-2.8-4.4 14.127 14.127 0 0 1-.95-5.15c0-2.467.55-4.717 1.65-6.75 1.133-2.067 2.733-3.717 4.8-4.95 2.067-1.233 4.517-1.85 7.35-1.85 2.833 0 5.267.617 7.3 1.85 2.033 1.233 3.55 2.85 4.55 4.85l-6.55 2c-.567-.967-1.317-1.7-2.25-2.2-.933-.533-1.967-.8-3.1-.8a6.476 6.476 0 0 0-3.5 1c-1.033.633-1.85 1.55-2.45 2.75-.6 1.167-.9 2.533-.9 4.1 0 1.533.3 2.9.9 4.1.633 1.167 1.467 2.1 2.5 2.8 1.033.667 2.183 1 3.45 1 .8 0 1.55-.133 2.25-.4a6.58 6.58 0 0 0 1.95-1.1c.567-.467.983-1 1.25-1.6l6.55 2c-.6 1.3-1.483 2.467-2.65 3.5-1.133 1.033-2.483 1.85-4.05 2.45-1.533.567-3.267.85-5.2.85Zm25.673 0c-2.234 0-4.367-.367-6.4-1.1-2.034-.733-3.784-1.817-5.25-3.25l2.4-4.35c1.566 1.267 3.1 2.2 4.6 2.8 1.533.6 3 .9 4.4.9 1.3 0 2.333-.233 3.1-.7.8-.467 1.2-1.167 1.2-2.1 0-.633-.217-1.117-.65-1.45-.434-.367-1.067-.683-1.9-.95-.8-.267-1.784-.567-2.95-.9-1.934-.633-3.55-1.25-4.85-1.85-1.3-.6-2.284-1.35-2.95-2.25-.634-.933-.95-2.117-.95-3.55 0-1.733.433-3.217 1.3-4.45.9-1.267 2.133-2.25 3.7-2.95 1.6-.7 3.466-1.05 5.6-1.05 1.866 0 3.633.3 5.3.9 1.666.567 3.183 1.5 4.55 2.8l-2.7 4.25c-1.334-1.033-2.6-1.783-3.8-2.25-1.2-.5-2.417-.75-3.65-.75-.7 0-1.367.083-2 .25-.6.167-1.1.45-1.5.85-.367.367-.55.9-.55 1.6 0 .633.166 1.133.5 1.5.366.333.9.633 1.6.9a76.88 76.88 0 0 0 2.65.9c2.1.6 3.866 1.217 5.3 1.85 1.466.633 2.566 1.417 3.3 2.35.733.9 1.1 2.15 1.1 3.75 0 2.6-.95 4.633-2.85 6.1-1.9 1.467-4.45 2.2-7.65 2.2Zm18.107-12.15c0-1.067.1-2.067.3-3 .233-.967.65-1.85 1.25-2.65.6-.8 1.45-1.517 2.55-2.15.466-.3 1.066-.65 1.8-1.05.766-.4 1.5-.85 2.2-1.35a7.668 7.668 0 0 0 1.75-1.85c.5-.733.75-1.567.75-2.5s-.234-1.717-.7-2.35a4.16 4.16 0 0 0-1.75-1.45c-.7-.333-1.467-.5-2.3-.5-.967 0-1.834.217-2.6.65-.767.4-1.417.9-1.95 1.5-.534.6-.984 1.217-1.35 1.85l-4.35-3c.6-1.367 1.416-2.533 2.45-3.5a11.01 11.01 0 0 1 3.65-2.2c1.4-.5 2.85-.75 4.35-.75 1.266 0 2.516.2 3.75.6 1.233.367 2.35.95 3.35 1.75s1.8 1.817 2.4 3.05c.6 1.233.9 2.717.9 4.45 0 1.067-.134 2.017-.4 2.85a7.372 7.372 0 0 1-1.05 2.25 8.161 8.161 0 0 1-1.65 1.75 27.587 27.587 0 0 1-2.15 1.55 69.2 69.2 0 0 1-2.65 1.55c-.867.5-1.6 1.1-2.2 1.8-.567.667-.85 1.567-.85 2.7h-5.5Zm.1 11.65v-6.9h5.55V60h-5.55Z" fill="#fff"/>
  <path d="m262.2 94-5.2-9h13l-7.8 9ZM842.24 245.52V248h-13.56v-2.48h5.68V228.4c-.213.32-.573.667-1.08 1.04-.507.373-1.093.72-1.76 1.04-.64.32-1.28.587-1.92.8-.64.213-1.227.32-1.76.32v-2.64c.613 0 1.28-.173 2-.52a16.27 16.27 0 0 0 2.08-1.2c.667-.453 1.227-.88 1.68-1.28.453-.4.707-.667.76-.8h2.8v20.36h5.08Zm8.469-14.84c-1.093 0-2.093-.253-3-.76a6.101 6.101 0 0 1-2.2-2.08c-.533-.88-.8-1.84-.8-2.88 0-1.067.267-2.04.8-2.92a6.101 6.101 0 0 1 2.2-2.08c.907-.507 1.907-.76 3-.76 1.094 0 2.094.253 3 .76a5.775 5.775 0 0 1 2.16 2.08c.534.88.8 1.84.8 2.88 0 1.067-.266 2.04-.8 2.92a5.775 5.775 0 0 1-2.16 2.08c-.906.507-1.906.76-3 .76Zm0-1.56c.72 0 1.374-.187 1.96-.56.614-.4 1.094-.92 1.44-1.56.347-.64.52-1.32.52-2.04 0-.773-.186-1.48-.56-2.12a3.937 3.937 0 0 0-1.48-1.48 3.441 3.441 0 0 0-1.88-.56c-.746 0-1.413.2-2 .6a4.392 4.392 0 0 0-1.44 1.52 4.002 4.002 0 0 0-.52 2c0 .773.174 1.48.52 2.12.374.613.854 1.12 1.44 1.52a3.78 3.78 0 0 0 2 .56Zm13.4 19.28c-1.093 0-2.093-.253-3-.76a5.79 5.79 0 0 1-2.16-2.08 5.528 5.528 0 0 1-.8-2.92c0-1.067.267-2.027.8-2.88a5.79 5.79 0 0 1 2.16-2.08c.907-.507 1.907-.76 3-.76 1.12 0 2.134.253 3.04.76a5.775 5.775 0 0 1 2.16 2.08c.534.853.8 1.813.8 2.88s-.266 2.04-.8 2.92a6.209 6.209 0 0 1-2.16 2.08c-.906.507-1.92.76-3.04.76Zm0-1.6c.747 0 1.414-.187 2-.56.614-.4 1.08-.907 1.4-1.52.347-.64.52-1.32.52-2.04 0-.773-.186-1.48-.56-2.12a3.935 3.935 0 0 0-1.44-1.52 3.506 3.506 0 0 0-1.92-.56c-.72 0-1.386.2-2 .6a4.057 4.057 0 0 0-1.4 1.52c-.346.64-.52 1.32-.52 2.04 0 .773.174 1.48.52 2.12a4.51 4.51 0 0 0 1.44 1.48c.614.373 1.267.56 1.96.56Zm-18.44.12 11.2-13.6 10.84-13.88 1.4 1.2-11.12 13.6-10.92 13.92-1.4-1.24Zm47.3-27.32h2.36l11.8 28.4h-2.96l-3.68-8.88h-12.76l-3.64 8.88h-3l11.88-28.4Zm6.88 17.32-5.72-14.04-5.8 14.04h11.52Zm10.162 2.48v-12.24h2.72v11.76c0 2.373.4 4.147 1.2 5.32.827 1.173 2.04 1.76 3.64 1.76a7.302 7.302 0 0 0 3.08-.68 8.507 8.507 0 0 0 2.68-2 9.093 9.093 0 0 0 1.76-3.04v-13.12h2.72v17.56c0 .373.08.653.24.84.16.16.4.253.72.28V248c-.32.027-.573.04-.76.04-.187.027-.36.04-.52.04-.533-.053-1-.267-1.4-.64a2.004 2.004 0 0 1-.6-1.36l-.08-2.8a9.885 9.885 0 0 1-3.72 3.76 9.79 9.79 0 0 1-5.04 1.36c-2.187 0-3.84-.76-4.96-2.28-1.12-1.52-1.68-3.76-1.68-6.72Zm33.95 7.6c-.213.08-.547.227-1 .44-.453.213-1 .4-1.64.56-.64.16-1.333.24-2.08.24a5.594 5.594 0 0 1-2.2-.44 3.69 3.69 0 0 1-1.6-1.32c-.4-.613-.6-1.36-.6-2.24v-14.92h-2.88v-2.16h2.88v-7.04h2.72v7.04h4.8v2.16h-4.8v14.16c.053.747.32 1.307.8 1.68a2.83 2.83 0 0 0 1.72.56c.747 0 1.427-.12 2.04-.36.613-.267.987-.453 1.12-.56l.72 2.2Zm11.927 1.4c-1.494 0-2.88-.28-4.16-.84a10.723 10.723 0 0 1-3.28-2.36 11.395 11.395 0 0 1-2.12-3.44 11.29 11.29 0 0 1-.76-4.12c0-1.493.253-2.88.76-4.16a10.425 10.425 0 0 1 2.16-3.44 9.907 9.907 0 0 1 3.28-2.36c1.28-.587 2.666-.88 4.16-.88 1.493 0 2.866.293 4.12.88a9.928 9.928 0 0 1 3.28 2.36 10.457 10.457 0 0 1 2.16 3.44c.506 1.28.76 2.667.76 4.16 0 1.44-.254 2.813-.76 4.12a11.033 11.033 0 0 1-2.16 3.44c-.907.987-2 1.773-3.28 2.36-1.254.56-2.64.84-4.16.84Zm-7.56-10.72c0 1.547.333 2.96 1 4.24.693 1.253 1.613 2.253 2.76 3a7 7 0 0 0 3.8 1.08 6.819 6.819 0 0 0 3.8-1.12c1.146-.747 2.066-1.76 2.76-3.04a8.913 8.913 0 0 0 1.04-4.24c0-1.547-.347-2.96-1.04-4.24-.694-1.28-1.614-2.293-2.76-3.04a6.819 6.819 0 0 0-3.8-1.12 6.65 6.65 0 0 0-3.8 1.16c-1.12.773-2.027 1.8-2.72 3.08-.694 1.253-1.04 2.667-1.04 4.24ZM981.552 248v-28.4h2.8v25.92h16.398V248h-19.198Zm23.318 0v-28.4h11.76c1.23 0 2.35.253 3.36.76 1.04.507 1.94 1.2 2.68 2.08a9.732 9.732 0 0 1 1.76 2.88c.43 1.04.64 2.107.64 3.2 0 1.547-.34 3.013-1.04 4.4a8.485 8.485 0 0 1-2.84 3.32c-1.22.853-2.66 1.28-4.32 1.28h-9.2V248h-2.8Zm2.8-12.96h9.08c1.12 0 2.1-.307 2.92-.92.83-.613 1.47-1.413 1.92-2.4.46-.987.68-2.053.68-3.2 0-1.173-.26-2.253-.8-3.24-.53-.987-1.24-1.76-2.12-2.32-.85-.587-1.8-.88-2.84-.88h-8.84v12.96ZM17.76 248c0-.907.08-1.813.24-2.72a9.9 9.9 0 0 1 .92-2.76c.453-.907 1.12-1.773 2-2.6.88-.853 2.04-1.653 3.48-2.4.773-.4 1.573-.787 2.4-1.16.827-.4 1.6-.827 2.32-1.28.747-.48 1.333-1.013 1.76-1.6.453-.613.68-1.333.68-2.16 0-.667-.2-1.32-.6-1.96-.373-.64-.96-1.16-1.76-1.56-.773-.4-1.747-.6-2.92-.6-.853 0-1.627.12-2.32.36a7.433 7.433 0 0 0-1.84.92 8.391 8.391 0 0 0-1.36 1.08c-.373.347-.68.64-.92.88l-1.72-1.88c.133-.16.427-.44.88-.84.48-.427 1.08-.867 1.8-1.32.747-.453 1.613-.84 2.6-1.16 1.013-.32 2.12-.48 3.32-.48 1.627 0 3.013.293 4.16.88 1.173.56 2.067 1.32 2.68 2.28.613.96.92 2 .92 3.12 0 1.093-.24 2.04-.72 2.84a7.254 7.254 0 0 1-1.8 2.04c-.72.56-1.48 1.053-2.28 1.48-.773.4-1.48.747-2.12 1.04-1.253.587-2.307 1.173-3.16 1.76-.853.587-1.533 1.187-2.04 1.8a8.596 8.596 0 0 0-1.2 1.76 6.778 6.778 0 0 0-.56 1.76h14.32V248H17.76Zm26.7-17.32c-1.094 0-2.094-.253-3-.76a6.096 6.096 0 0 1-2.2-2.08c-.534-.88-.8-1.84-.8-2.88 0-1.067.266-2.04.8-2.92a6.096 6.096 0 0 1 2.2-2.08c.906-.507 1.906-.76 3-.76 1.093 0 2.093.253 3 .76a5.78 5.78 0 0 1 2.16 2.08c.533.88.8 1.84.8 2.88 0 1.067-.267 2.04-.8 2.92a5.78 5.78 0 0 1-2.16 2.08c-.907.507-1.907.76-3 .76Zm0-1.56c.72 0 1.373-.187 1.96-.56.613-.4 1.093-.92 1.44-1.56.346-.64.52-1.32.52-2.04 0-.773-.187-1.48-.56-2.12a3.945 3.945 0 0 0-1.48-1.48 3.444 3.444 0 0 0-1.88-.56c-.747 0-1.414.2-2 .6a4.379 4.379 0 0 0-1.44 1.52 3.995 3.995 0 0 0-.52 2c0 .773.173 1.48.52 2.12.373.613.853 1.12 1.44 1.52.613.373 1.28.56 2 .56Zm13.4 19.28c-1.094 0-2.094-.253-3-.76a5.78 5.78 0 0 1-2.16-2.08 5.524 5.524 0 0 1-.8-2.92c0-1.067.266-2.027.8-2.88a5.78 5.78 0 0 1 2.16-2.08c.906-.507 1.906-.76 3-.76 1.12 0 2.133.253 3.04.76a5.78 5.78 0 0 1 2.16 2.08c.533.853.8 1.813.8 2.88s-.267 2.04-.8 2.92a6.216 6.216 0 0 1-2.16 2.08c-.907.507-1.92.76-3.04.76Zm0-1.6c.746 0 1.413-.187 2-.56a4.02 4.02 0 0 0 1.4-1.52c.346-.64.52-1.32.52-2.04 0-.773-.187-1.48-.56-2.12a3.945 3.945 0 0 0-1.44-1.52 3.51 3.51 0 0 0-1.92-.56c-.72 0-1.387.2-2 .6a4.048 4.048 0 0 0-1.4 1.52 4.22 4.22 0 0 0-.52 2.04c0 .773.173 1.48.52 2.12a4.497 4.497 0 0 0 1.44 1.48 3.71 3.71 0 0 0 1.96.56Zm-18.44.12 11.2-13.6 10.84-13.88 1.4 1.2-11.12 13.6-10.92 13.92-1.4-1.24Zm49.19.08c-.214.08-.547.227-1 .44-.454.213-1 .4-1.64.56-.64.16-1.334.24-2.08.24a5.594 5.594 0 0 1-2.2-.44 3.691 3.691 0 0 1-1.6-1.32c-.4-.613-.6-1.36-.6-2.24v-14.92h-2.88v-2.16h2.88v-7.04h2.72v7.04h4.8v2.16h-4.8v14.16c.053.747.32 1.307.8 1.68.506.373 1.08.56 1.72.56.746 0 1.426-.12 2.04-.36.613-.267.986-.453 1.12-.56l.72 2.2Zm1.718-5c0-1.307.373-2.427 1.12-3.36.747-.96 1.773-1.693 3.08-2.2 1.333-.533 2.866-.8 4.6-.8 1.013 0 2.066.08 3.16.24 1.093.16 2.066.4 2.92.72v-1.76c0-1.76-.52-3.16-1.56-4.2s-2.48-1.56-4.32-1.56c-1.12 0-2.227.213-3.32.64-1.067.4-2.187 1-3.36 1.8l-1.04-1.92c1.36-.933 2.693-1.627 4-2.08 1.306-.48 2.64-.72 4-.72 2.56 0 4.586.733 6.08 2.2 1.493 1.467 2.24 3.493 2.24 6.08v9.64c0 .373.08.653.24.84.16.16.413.253.76.28V248c-.294.027-.547.053-.76.08-.214.027-.374.027-.48 0-.667-.027-1.174-.24-1.52-.64-.347-.4-.534-.827-.56-1.28l-.04-1.52c-.934 1.2-2.147 2.133-3.64 2.8-1.494.64-3.013.96-4.56.96-1.334 0-2.547-.28-3.64-.84-1.067-.587-1.907-1.36-2.52-2.32a6.225 6.225 0 0 1-.88-3.24Zm13.96 1.6c.293-.373.52-.733.68-1.08.16-.347.24-.653.24-.92v-3.04a16.574 16.574 0 0 0-2.84-.8c-.96-.187-1.934-.28-2.92-.28-1.947 0-3.52.387-4.72 1.16-1.2.773-1.8 1.827-1.8 3.16 0 .773.2 1.507.6 2.2.4.667.986 1.227 1.76 1.68.773.427 1.68.64 2.72.64 1.306 0 2.52-.253 3.64-.76 1.146-.507 2.026-1.16 2.64-1.96Zm10.157-16.44 6.12 8.16.32.6.32-.6 6.08-8.16h3.08l-7.92 10.48 7.92 10.36h-3.08l-6.08-8.12-.32-.56-.32.56-6.08 8.12h-3.08l7.88-10.36-7.88-10.48h3.04ZM144.716 248v-28.4h9.64c3.014 0 5.52.64 7.52 1.92a11.773 11.773 0 0 1 4.56 5.12c1.014 2.133 1.52 4.507 1.52 7.12 0 2.88-.56 5.387-1.68 7.52-1.093 2.133-2.666 3.787-4.72 4.96-2.026 1.173-4.426 1.76-7.2 1.76h-9.64Zm20.44-14.24c0-2.267-.426-4.28-1.28-6.04-.826-1.76-2.04-3.133-3.64-4.12-1.6-1.013-3.56-1.52-5.88-1.52h-6.84v23.44h6.84c2.347 0 4.32-.52 5.92-1.56 1.6-1.04 2.814-2.44 3.64-4.2.827-1.787 1.24-3.787 1.24-6Zm16.594 14.64c-1.493 0-2.88-.28-4.16-.84a10.591 10.591 0 0 1-3.32-2.36 11.502 11.502 0 0 1-2.2-3.48c-.507-1.307-.76-2.707-.76-4.2 0-1.947.44-3.733 1.32-5.36a10.397 10.397 0 0 1 3.72-3.88c1.573-.987 3.36-1.48 5.36-1.48 2.053 0 3.84.493 5.36 1.48a10.494 10.494 0 0 1 3.64 3.92c.88 1.6 1.32 3.36 1.32 5.28v.64c0 .187-.013.333-.04.44h-17.84c.133 1.493.547 2.827 1.24 4a8.523 8.523 0 0 0 2.76 2.76c1.147.667 2.387 1 3.72 1 1.36 0 2.64-.347 3.84-1.04 1.227-.693 2.08-1.6 2.56-2.72l2.36.64c-.427.987-1.08 1.88-1.96 2.68-.88.8-1.92 1.427-3.12 1.88-1.173.427-2.44.64-3.8.64Zm-7.68-11.8h15.4c-.107-1.52-.52-2.853-1.24-4a7.382 7.382 0 0 0-2.76-2.68c-1.12-.667-2.36-1-3.72-1-1.36 0-2.6.333-3.72 1-1.12.64-2.04 1.547-2.76 2.72-.693 1.147-1.093 2.467-1.2 3.96Zm27.81 11.4-8.44-20.84h2.84l7.12 18.12 7.16-18.12h2.68L204.8 248h-2.92Zm23.425.4c-1.494 0-2.88-.28-4.16-.84a10.591 10.591 0 0 1-3.32-2.36 11.483 11.483 0 0 1-2.2-3.48c-.507-1.307-.76-2.707-.76-4.2 0-1.947.44-3.733 1.32-5.36a10.381 10.381 0 0 1 3.72-3.88c1.573-.987 3.36-1.48 5.36-1.48 2.053 0 3.84.493 5.36 1.48a10.502 10.502 0 0 1 3.64 3.92c.88 1.6 1.32 3.36 1.32 5.28v.64c0 .187-.014.333-.04.44h-17.84c.133 1.493.546 2.827 1.24 4a8.523 8.523 0 0 0 2.76 2.76c1.146.667 2.386 1 3.72 1 1.36 0 2.64-.347 3.84-1.04 1.226-.693 2.08-1.6 2.56-2.72l2.36.64c-.427.987-1.08 1.88-1.96 2.68-.88.8-1.92 1.427-3.12 1.88-1.174.427-2.44.64-3.8.64Zm-7.68-11.8h15.4c-.107-1.52-.52-2.853-1.24-4a7.397 7.397 0 0 0-2.76-2.68c-1.12-.667-2.36-1-3.72-1-1.36 0-2.6.333-3.72 1-1.12.64-2.04 1.547-2.76 2.72-.694 1.147-1.094 2.467-1.2 3.96Zm22.276-17.8h2.72v24.48c0 1.04.187 1.72.56 2.04.374.32.827.48 1.36.48a6.6 6.6 0 0 0 1.44-.16c.48-.107.894-.213 1.24-.32l.48 2.2c-.506.213-1.133.387-1.88.52-.72.133-1.346.2-1.88.2-1.226 0-2.213-.36-2.96-1.08-.72-.72-1.08-1.707-1.08-2.96v-25.4Zm19.659 29.6c-1.494 0-2.88-.28-4.16-.84a10.723 10.723 0 0 1-3.28-2.36 11.395 11.395 0 0 1-2.12-3.44 11.29 11.29 0 0 1-.76-4.12c0-1.493.253-2.88.76-4.16a10.425 10.425 0 0 1 2.16-3.44 9.907 9.907 0 0 1 3.28-2.36c1.28-.587 2.666-.88 4.16-.88 1.493 0 2.866.293 4.12.88a9.928 9.928 0 0 1 3.28 2.36 10.457 10.457 0 0 1 2.16 3.44c.506 1.28.76 2.667.76 4.16 0 1.44-.254 2.813-.76 4.12a11.033 11.033 0 0 1-2.16 3.44c-.907.987-2 1.773-3.28 2.36-1.254.56-2.64.84-4.16.84ZM252 237.68c0 1.547.333 2.96 1 4.24.693 1.253 1.613 2.253 2.76 3a7 7 0 0 0 3.8 1.08 6.819 6.819 0 0 0 3.8-1.12c1.146-.747 2.066-1.76 2.76-3.04a8.913 8.913 0 0 0 1.04-4.24c0-1.547-.347-2.96-1.04-4.24-.694-1.28-1.614-2.293-2.76-3.04a6.819 6.819 0 0 0-3.8-1.12 6.65 6.65 0 0 0-3.8 1.16c-1.12.773-2.027 1.8-2.72 3.08-.694 1.253-1.04 2.667-1.04 4.24Zm33.109 10.72c-1.734 0-3.294-.453-4.68-1.36-1.36-.907-2.44-2.027-3.24-3.36v12.84h-2.72v-29.36h2.44v4.04c.826-1.307 1.933-2.36 3.32-3.16 1.386-.827 2.866-1.24 4.44-1.24 1.44 0 2.76.307 3.96.92a9.794 9.794 0 0 1 3.12 2.4 11.077 11.077 0 0 1 2.04 3.48c.506 1.28.76 2.613.76 4 0 1.947-.4 3.747-1.2 5.4-.774 1.627-1.867 2.933-3.28 3.92-1.414.987-3.067 1.48-4.96 1.48Zm-.76-2.4c1.146 0 2.173-.227 3.08-.68a7.343 7.343 0 0 0 2.32-1.92 8.628 8.628 0 0 0 1.52-2.68 9.59 9.59 0 0 0 .52-3.12c0-1.12-.2-2.187-.6-3.2a7.906 7.906 0 0 0-1.64-2.68 8.352 8.352 0 0 0-2.48-1.84 6.873 6.873 0 0 0-3.04-.68c-.694 0-1.414.133-2.16.4a8.496 8.496 0 0 0-2.16 1.16 7.553 7.553 0 0 0-1.68 1.64c-.454.613-.734 1.267-.84 1.96v6.4c.426.987 1 1.88 1.72 2.68.72.773 1.546 1.4 2.48 1.88.96.453 1.946.68 2.96.68Zm45.807 2h-2.72v-11.64c0-2.427-.386-4.213-1.16-5.36-.773-1.147-1.92-1.72-3.44-1.72-1.573 0-2.986.56-4.24 1.68-1.226 1.12-2.093 2.56-2.6 4.32V248h-2.72v-11.64c0-2.453-.373-4.24-1.12-5.36-.746-1.147-1.893-1.72-3.44-1.72-1.546 0-2.946.547-4.2 1.64-1.253 1.093-2.133 2.533-2.64 4.32V248h-2.72v-20.84h2.48v4.72c.88-1.627 2-2.88 3.36-3.76 1.387-.88 2.92-1.32 4.6-1.32 1.734 0 3.134.493 4.2 1.48 1.067.987 1.72 2.28 1.96 3.88.96-1.76 2.107-3.093 3.44-4 1.36-.907 2.894-1.36 4.6-1.36 1.174 0 2.16.213 2.96.64a4.824 4.824 0 0 1 1.96 1.84c.507.773.867 1.72 1.08 2.84.24 1.093.36 2.32.36 3.68V248Zm14.758.4c-1.493 0-2.88-.28-4.16-.84a10.591 10.591 0 0 1-3.32-2.36 11.502 11.502 0 0 1-2.2-3.48c-.507-1.307-.76-2.707-.76-4.2 0-1.947.44-3.733 1.32-5.36a10.397 10.397 0 0 1 3.72-3.88c1.573-.987 3.36-1.48 5.36-1.48 2.053 0 3.84.493 5.36 1.48a10.494 10.494 0 0 1 3.64 3.92c.88 1.6 1.32 3.36 1.32 5.28v.64c0 .187-.013.333-.04.44h-17.84c.133 1.493.547 2.827 1.24 4a8.523 8.523 0 0 0 2.76 2.76c1.147.667 2.387 1 3.72 1 1.36 0 2.64-.347 3.84-1.04 1.227-.693 2.08-1.6 2.56-2.72l2.36.64c-.427.987-1.08 1.88-1.96 2.68-.88.8-1.92 1.427-3.12 1.88-1.173.427-2.44.64-3.8.64Zm-7.68-11.8h15.4c-.107-1.52-.52-2.853-1.24-4a7.382 7.382 0 0 0-2.76-2.68c-1.12-.667-2.36-1-3.72-1-1.36 0-2.6.333-3.72 1-1.12.64-2.04 1.547-2.76 2.72-.693 1.147-1.093 2.467-1.2 3.96Zm39.677 11.4h-2.72v-11.64c0-2.453-.36-4.24-1.08-5.36-.72-1.147-1.854-1.72-3.4-1.72-1.067 0-2.12.267-3.16.8a8.798 8.798 0 0 0-2.76 2.12 8.077 8.077 0 0 0-1.68 3.04V248h-2.72v-20.84h2.48v4.72a9.093 9.093 0 0 1 2.2-2.64 10.17 10.17 0 0 1 3.08-1.8 10.116 10.116 0 0 1 3.56-.64c1.146 0 2.12.213 2.92.64.8.427 1.44 1.04 1.92 1.84.48.773.826 1.72 1.04 2.84.213 1.093.32 2.32.32 3.68V248Zm15.605-1c-.214.08-.547.227-1 .44-.454.213-1 .4-1.64.56-.64.16-1.334.24-2.08.24a5.59 5.59 0 0 1-2.2-.44 3.69 3.69 0 0 1-1.6-1.32c-.4-.613-.6-1.36-.6-2.24v-14.92h-2.88v-2.16h2.88v-7.04h2.72v7.04h4.8v2.16h-4.8v14.16c.053.747.32 1.307.8 1.68.506.373 1.08.56 1.72.56a5.56 5.56 0 0 0 2.04-.36c.613-.267.986-.453 1.12-.56l.72 2.2ZM13.72 350.56c1.2.187 2.227.613 3.08 1.28a6.893 6.893 0 0 1 2 2.52c.48 1.013.72 2.16.72 3.44 0 1.6-.387 3.013-1.16 4.24-.773 1.227-1.853 2.173-3.24 2.84-1.387.667-3 1-4.84 1-2.027 0-3.8-.413-5.32-1.24-1.52-.8-2.667-1.92-3.44-3.36l1.88-1.72c.587 1.147 1.453 2.067 2.6 2.76 1.147.72 2.573 1.08 4.28 1.08 1.973 0 3.533-.493 4.68-1.48 1.173-.96 1.76-2.347 1.76-4.16 0-1.813-.613-3.253-1.84-4.32-1.2-1.093-2.92-1.64-5.16-1.64h-1v-2.32H9.8c2.053 0 3.627-.48 4.72-1.44s1.64-2.187 1.64-3.68c0-1.093-.253-2-.76-2.72-.507-.72-1.2-1.267-2.08-1.64-.853-.373-1.84-.56-2.96-.56-1.52 0-2.867.347-4.04 1.04a6.44 6.44 0 0 0-2.6 2.8l-1.76-1.68a7.15 7.15 0 0 1 1.96-2.44c.853-.693 1.853-1.227 3-1.6 1.147-.4 2.373-.6 3.68-.6 1.653 0 3.107.307 4.36.92 1.253.587 2.24 1.413 2.96 2.48.72 1.067 1.08 2.32 1.08 3.76a6.863 6.863 0 0 1-.64 2.96 6.111 6.111 0 0 1-1.84 2.28c-.773.613-1.707 1.013-2.8 1.2Zm15.247-7.88c-1.093 0-2.093-.253-3-.76a6.096 6.096 0 0 1-2.2-2.08c-.533-.88-.8-1.84-.8-2.88 0-1.067.267-2.04.8-2.92a6.096 6.096 0 0 1 2.2-2.08c.907-.507 1.907-.76 3-.76 1.094 0 2.094.253 3 .76a5.78 5.78 0 0 1 2.16 2.08c.533.88.8 1.84.8 2.88 0 1.067-.267 2.04-.8 2.92a5.78 5.78 0 0 1-2.16 2.08c-.906.507-1.906.76-3 .76Zm0-1.56c.72 0 1.373-.187 1.96-.56.614-.4 1.093-.92 1.44-1.56s.52-1.32.52-2.04c0-.773-.187-1.48-.56-2.12a3.945 3.945 0 0 0-1.48-1.48 3.444 3.444 0 0 0-1.88-.56c-.746 0-1.413.2-2 .6a4.379 4.379 0 0 0-1.44 1.52 3.995 3.995 0 0 0-.52 2c0 .773.173 1.48.52 2.12.373.613.854 1.12 1.44 1.52.614.373 1.28.56 2 .56Zm13.4 19.28c-1.093 0-2.093-.253-3-.76a5.78 5.78 0 0 1-2.16-2.08 5.525 5.525 0 0 1-.8-2.92c0-1.067.267-2.027.8-2.88a5.78 5.78 0 0 1 2.16-2.08c.907-.507 1.907-.76 3-.76 1.12 0 2.134.253 3.04.76a5.78 5.78 0 0 1 2.16 2.08c.533.853.8 1.813.8 2.88s-.267 2.04-.8 2.92a6.214 6.214 0 0 1-2.16 2.08c-.906.507-1.92.76-3.04.76Zm0-1.6c.747 0 1.414-.187 2-.56a4.02 4.02 0 0 0 1.4-1.52c.347-.64.52-1.32.52-2.04 0-.773-.187-1.48-.56-2.12a3.945 3.945 0 0 0-1.44-1.52 3.51 3.51 0 0 0-1.92-.56c-.72 0-1.386.2-2 .6a4.05 4.05 0 0 0-1.4 1.52 4.22 4.22 0 0 0-.52 2.04c0 .773.173 1.48.52 2.12a4.497 4.497 0 0 0 1.44 1.48 3.71 3.71 0 0 0 1.96.56Zm-18.44.12 11.2-13.6 10.84-13.88 1.4 1.2-11.12 13.6-10.92 13.92-1.4-1.24Zm49.19.08c-.213.08-.547.227-1 .44-.453.213-1 .4-1.64.56a8.56 8.56 0 0 1-2.08.24 5.594 5.594 0 0 1-2.2-.44 3.691 3.691 0 0 1-1.6-1.32c-.4-.613-.6-1.36-.6-2.24v-14.92h-2.88v-2.16h2.88v-7.04h2.72v7.04h4.8v2.16h-4.8v14.16c.053.747.32 1.307.8 1.68.507.373 1.08.56 1.72.56.747 0 1.427-.12 2.04-.36.614-.267.987-.453 1.12-.56l.72 2.2Zm1.719-5c0-1.307.373-2.427 1.12-3.36.746-.96 1.773-1.693 3.08-2.2 1.333-.533 2.866-.8 4.6-.8 1.013 0 2.066.08 3.16.24 1.093.16 2.066.4 2.92.72v-1.76c0-1.76-.52-3.16-1.56-4.2s-2.48-1.56-4.32-1.56c-1.12 0-2.227.213-3.32.64-1.067.4-2.187 1-3.36 1.8l-1.04-1.92c1.36-.933 2.693-1.627 4-2.08 1.306-.48 2.64-.72 4-.72 2.56 0 4.586.733 6.08 2.2 1.493 1.467 2.24 3.493 2.24 6.08v9.64c0 .373.08.653.24.84.16.16.413.253.76.28V360c-.294.027-.547.053-.76.08-.214.027-.374.027-.48 0-.667-.027-1.174-.24-1.52-.64-.347-.4-.534-.827-.56-1.28l-.04-1.52c-.934 1.2-2.147 2.133-3.64 2.8-1.494.64-3.014.96-4.56.96-1.334 0-2.547-.28-3.64-.84-1.067-.587-1.907-1.36-2.52-2.32a6.226 6.226 0 0 1-.88-3.24Zm13.96 1.6c.293-.373.52-.733.68-1.08.16-.347.24-.653.24-.92v-3.04a16.545 16.545 0 0 0-2.84-.8c-.96-.187-1.934-.28-2.92-.28-1.947 0-3.52.387-4.72 1.16-1.2.773-1.8 1.827-1.8 3.16 0 .773.2 1.507.6 2.2.4.667.986 1.227 1.76 1.68.773.427 1.68.64 2.72.64 1.306 0 2.52-.253 3.64-.76 1.146-.507 2.026-1.16 2.64-1.96Zm10.156-16.44 6.121 8.16.32.6.32-.6 6.08-8.16h3.08l-7.92 10.48 7.92 10.36h-3.08l-6.08-8.12-.32-.56-.32.56-6.08 8.12h-3.08l7.88-10.36-7.88-10.48h3.04ZM154.385 360v-23.12l-10.28 17.96h-1.76l-10.32-17.96V360h-2.8v-28.4h2.88l11.08 19.44 11.16-19.44h2.84V360h-2.8Zm7.483-6c0-1.307.373-2.427 1.12-3.36.747-.96 1.773-1.693 3.08-2.2 1.333-.533 2.867-.8 4.6-.8 1.013 0 2.067.08 3.16.24 1.093.16 2.067.4 2.92.72v-1.76c0-1.76-.52-3.16-1.56-4.2s-2.48-1.56-4.32-1.56c-1.12 0-2.227.213-3.32.64-1.067.4-2.187 1-3.36 1.8l-1.04-1.92c1.36-.933 2.693-1.627 4-2.08 1.307-.48 2.64-.72 4-.72 2.56 0 4.587.733 6.08 2.2 1.493 1.467 2.24 3.493 2.24 6.08v9.64c0 .373.08.653.24.84.16.16.413.253.76.28V360c-.293.027-.547.053-.76.08-.213.027-.373.027-.48 0-.667-.027-1.173-.24-1.52-.64s-.533-.827-.56-1.28l-.04-1.52c-.933 1.2-2.147 2.133-3.64 2.8-1.493.64-3.013.96-4.56.96-1.333 0-2.547-.28-3.64-.84-1.067-.587-1.907-1.36-2.52-2.32a6.222 6.222 0 0 1-.88-3.24Zm13.96 1.6c.293-.373.52-.733.68-1.08.16-.347.24-.653.24-.92v-3.04a16.548 16.548 0 0 0-2.84-.8c-.96-.187-1.933-.28-2.92-.28-1.947 0-3.52.387-4.72 1.16-1.2.773-1.8 1.827-1.8 3.16 0 .773.2 1.507.6 2.2.4.667.987 1.227 1.76 1.68.773.427 1.68.64 2.72.64 1.307 0 2.52-.253 3.64-.76 1.147-.507 2.027-1.16 2.64-1.96Zm19.917-14.04c-1.814.053-3.414.56-4.8 1.52-1.36.96-2.32 2.28-2.88 3.96V360h-2.72v-20.84h2.56v5c.72-1.467 1.666-2.653 2.84-3.56 1.2-.907 2.466-1.413 3.8-1.52.266-.027.493-.04.68-.04.213 0 .386.013.52.04v2.48ZM214.247 360l-7.72-10.68-4.44 4.16V360h-2.72v-29.2h2.72v19.76l11.8-11.36h3l-8.52 8.52 8.84 12.28h-2.96Zm14.237.4c-1.493 0-2.88-.28-4.16-.84a10.603 10.603 0 0 1-3.32-2.36 11.521 11.521 0 0 1-2.2-3.48c-.506-1.307-.76-2.707-.76-4.2 0-1.947.44-3.733 1.32-5.36a10.397 10.397 0 0 1 3.72-3.88c1.574-.987 3.36-1.48 5.36-1.48 2.054 0 3.84.493 5.36 1.48a10.494 10.494 0 0 1 3.64 3.92c.88 1.6 1.32 3.36 1.32 5.28v.64c0 .187-.013.333-.04.44h-17.84c.134 1.493.547 2.827 1.24 4a8.523 8.523 0 0 0 2.76 2.76c1.147.667 2.387 1 3.72 1 1.36 0 2.64-.347 3.84-1.04 1.227-.693 2.08-1.6 2.56-2.72l2.36.64c-.426.987-1.08 1.88-1.96 2.68-.88.8-1.92 1.427-3.12 1.88-1.173.427-2.44.64-3.8.64Zm-7.68-11.8h15.4c-.106-1.52-.52-2.853-1.24-4a7.382 7.382 0 0 0-2.76-2.68c-1.12-.667-2.36-1-3.72-1-1.36 0-2.6.333-3.72 1-1.12.64-2.04 1.547-2.76 2.72-.693 1.147-1.093 2.467-1.2 3.96Zm31.962 10.4c-.214.08-.547.227-1 .44-.454.213-1 .4-1.64.56-.64.16-1.334.24-2.08.24a5.59 5.59 0 0 1-2.2-.44 3.69 3.69 0 0 1-1.6-1.32c-.4-.613-.6-1.36-.6-2.24v-14.92h-2.88v-2.16h2.88v-7.04h2.72v7.04h4.8v2.16h-4.8v14.16c.053.747.32 1.307.8 1.68.506.373 1.08.56 1.72.56a5.56 5.56 0 0 0 2.04-.36c.613-.267.986-.453 1.12-.56l.72 2.2Zm3.398 1v-20.84h2.72V360h-2.72Zm0-25.2v-4h2.72v4h-2.72Zm26.231 25.2h-2.72v-11.64c0-2.453-.36-4.24-1.08-5.36-.72-1.147-1.853-1.72-3.4-1.72-1.067 0-2.12.267-3.16.8a8.798 8.798 0 0 0-2.76 2.12 8.105 8.105 0 0 0-1.68 3.04V360h-2.72v-20.84h2.48v4.72a9.093 9.093 0 0 1 2.2-2.64 10.183 10.183 0 0 1 3.08-1.8 10.12 10.12 0 0 1 3.56-.64c1.147 0 2.12.213 2.92.64.8.427 1.44 1.04 1.92 1.84.48.773.827 1.72 1.04 2.84.213 1.093.32 2.32.32 3.68V360Zm14.16.28c-1.413 0-2.72-.293-3.92-.88a10.058 10.058 0 0 1-3.12-2.36 11.642 11.642 0 0 1-2-3.44c-.48-1.28-.72-2.6-.72-3.96 0-1.467.227-2.84.68-4.12a11.515 11.515 0 0 1 2-3.48 9.432 9.432 0 0 1 3.08-2.36c1.174-.587 2.48-.88 3.92-.88 1.787 0 3.334.453 4.64 1.36a12.577 12.577 0 0 1 3.36 3.36v-4.36h2.44v20.92c0 1.92-.466 3.533-1.4 4.84-.906 1.333-2.146 2.333-3.72 3-1.546.667-3.24 1-5.08 1-2.373 0-4.293-.427-5.76-1.28-1.466-.853-2.666-2-3.6-3.44l1.68-1.32c.827 1.307 1.92 2.28 3.28 2.92 1.387.64 2.854.96 4.4.96 1.36 0 2.6-.253 3.72-.76 1.147-.48 2.054-1.213 2.72-2.2.694-.987 1.04-2.227 1.04-3.72v-4.12c-.8 1.307-1.893 2.36-3.28 3.16-1.386.773-2.84 1.16-4.36 1.16Zm.76-2.28c.827 0 1.614-.147 2.36-.44a8.566 8.566 0 0 0 2.12-1.16 7.905 7.905 0 0 0 1.6-1.68c.427-.613.694-1.24.8-1.88v-6.44a8.096 8.096 0 0 0-1.72-2.68 7.824 7.824 0 0 0-2.56-1.84 6.606 6.606 0 0 0-2.92-.68c-1.173 0-2.226.253-3.16.76a7.122 7.122 0 0 0-2.32 1.96 9.492 9.492 0 0 0-1.44 2.72 9.359 9.359 0 0 0-.52 3.04c0 1.12.2 2.187.6 3.2.4.987.947 1.88 1.64 2.68a7.802 7.802 0 0 0 2.48 1.8 7.4 7.4 0 0 0 3.04.64ZM916.24 357.52V360h-13.56v-2.48h5.68V340.4c-.213.32-.573.667-1.08 1.04-.507.373-1.093.72-1.76 1.04-.64.32-1.28.587-1.92.8-.64.213-1.227.32-1.76.32v-2.64c.613 0 1.28-.173 2-.52a16.27 16.27 0 0 0 2.08-1.2c.667-.453 1.227-.88 1.68-1.28.453-.4.707-.667.76-.8h2.8v20.36h5.08Zm4.309 5.72.68-3.36h-.92v-3.8h2.64v3.8l-1 3.36h-1.4Zm27.825-14.96c0 2.347-.44 4.44-1.32 6.28-.854 1.813-2.04 3.24-3.56 4.28s-3.24 1.56-5.16 1.56-3.64-.52-5.16-1.56c-1.494-1.04-2.68-2.467-3.56-4.28-.88-1.84-1.32-3.933-1.32-6.28 0-2.347.44-4.427 1.32-6.24.88-1.84 2.066-3.28 3.56-4.32 1.52-1.067 3.24-1.6 5.16-1.6s3.64.533 5.16 1.6c1.52 1.04 2.706 2.48 3.56 4.32.88 1.813 1.32 3.893 1.32 6.24Zm-2.76 0c0-1.893-.307-3.56-.92-5-.614-1.44-1.467-2.56-2.56-3.36-1.094-.827-2.36-1.24-3.8-1.24s-2.707.413-3.8 1.24c-1.094.8-1.96 1.92-2.6 3.36-.614 1.44-.92 3.107-.92 5 0 1.893.306 3.56.92 5 .64 1.44 1.506 2.56 2.6 3.36 1.093.8 2.36 1.2 3.8 1.2s2.706-.4 3.8-1.2c1.093-.827 1.946-1.947 2.56-3.36.613-1.44.92-3.107.92-5Zm27.252 0c0 2.347-.44 4.44-1.32 6.28-.853 1.813-2.04 3.24-3.56 4.28s-3.24 1.56-5.16 1.56-3.64-.52-5.16-1.56c-1.493-1.04-2.68-2.467-3.56-4.28-.88-1.84-1.32-3.933-1.32-6.28 0-2.347.44-4.427 1.32-6.24.88-1.84 2.067-3.28 3.56-4.32 1.52-1.067 3.24-1.6 5.16-1.6s3.64.533 5.16 1.6c1.52 1.04 2.707 2.48 3.56 4.32.88 1.813 1.32 3.893 1.32 6.24Zm-2.76 0c0-1.893-.307-3.56-.92-5s-1.467-2.56-2.56-3.36c-1.093-.827-2.36-1.24-3.8-1.24s-2.707.413-3.8 1.24c-1.093.8-1.96 1.92-2.6 3.36-.613 1.44-.92 3.107-.92 5 0 1.893.307 3.56.92 5 .64 1.44 1.507 2.56 2.6 3.36 1.093.8 2.36 1.2 3.8 1.2s2.707-.4 3.8-1.2c1.093-.827 1.947-1.947 2.56-3.36.613-1.44.92-3.107.92-5Zm27.252 0c0 2.347-.44 4.44-1.32 6.28-.853 1.813-2.04 3.24-3.56 4.28s-3.24 1.56-5.16 1.56-3.64-.52-5.16-1.56c-1.493-1.04-2.68-2.467-3.56-4.28-.88-1.84-1.32-3.933-1.32-6.28 0-2.347.44-4.427 1.32-6.24.88-1.84 2.067-3.28 3.56-4.32 1.52-1.067 3.24-1.6 5.16-1.6s3.64.533 5.16 1.6c1.52 1.04 2.707 2.48 3.56 4.32.88 1.813 1.32 3.893 1.32 6.24Zm-2.76 0c0-1.893-.307-3.56-.92-5s-1.467-2.56-2.56-3.36c-1.093-.827-2.36-1.24-3.8-1.24s-2.707.413-3.8 1.24c-1.093.8-1.96 1.92-2.6 3.36-.613 1.44-.92 3.107-.92 5 0 1.893.307 3.56.92 5 .64 1.44 1.507 2.56 2.6 3.36 1.093.8 2.36 1.2 3.8 1.2s2.707-.4 3.8-1.2c1.093-.827 1.947-1.947 2.56-3.36.613-1.44.92-3.107.92-5Zm8.412 14.96.68-3.36h-.92v-3.8h2.64v3.8l-1 3.36h-1.4Zm27.82-14.96c0 2.347-.44 4.44-1.32 6.28-.85 1.813-2.04 3.24-3.56 4.28s-3.24 1.56-5.16 1.56-3.64-.52-5.16-1.56c-1.49-1.04-2.68-2.467-3.56-4.28-.88-1.84-1.32-3.933-1.32-6.28 0-2.347.44-4.427 1.32-6.24.88-1.84 2.07-3.28 3.56-4.32 1.52-1.067 3.24-1.6 5.16-1.6s3.64.533 5.16 1.6c1.52 1.04 2.71 2.48 3.56 4.32.88 1.813 1.32 3.893 1.32 6.24Zm-2.76 0c0-1.893-.3-3.56-.92-5-.61-1.44-1.46-2.56-2.56-3.36-1.09-.827-2.36-1.24-3.8-1.24s-2.7.413-3.8 1.24c-1.09.8-1.96 1.92-2.6 3.36-.61 1.44-.92 3.107-.92 5 0 1.893.31 3.56.92 5 .64 1.44 1.51 2.56 2.6 3.36 1.1.8 2.36 1.2 3.8 1.2s2.71-.4 3.8-1.2c1.1-.827 1.95-1.947 2.56-3.36.62-1.44.92-3.107.92-5Zm27.26 0c0 2.347-.44 4.44-1.32 6.28-.86 1.813-2.04 3.24-3.56 4.28s-3.24 1.56-5.16 1.56-3.64-.52-5.16-1.56c-1.5-1.04-2.68-2.467-3.56-4.28-.88-1.84-1.32-3.933-1.32-6.28 0-2.347.44-4.427 1.32-6.24.88-1.84 2.06-3.28 3.56-4.32 1.52-1.067 3.24-1.6 5.16-1.6s3.64.533 5.16 1.6c1.52 1.04 2.7 2.48 3.56 4.32.88 1.813 1.32 3.893 1.32 6.24Zm-2.76 0c0-1.893-.31-3.56-.92-5-.62-1.44-1.47-2.56-2.56-3.36-1.1-.827-2.36-1.24-3.8-1.24s-2.71.413-3.8 1.24c-1.1.8-1.96 1.92-2.6 3.36-.62 1.44-.92 3.107-.92 5 0 1.893.3 3.56.92 5 .64 1.44 1.5 2.56 2.6 3.36 1.09.8 2.36 1.2 3.8 1.2s2.7-.4 3.8-1.2c1.09-.827 1.94-1.947 2.56-3.36.61-1.44.92-3.107.92-5Zm27.25 0c0 2.347-.44 4.44-1.32 6.28-.85 1.813-2.04 3.24-3.56 4.28s-3.24 1.56-5.16 1.56-3.64-.52-5.16-1.56c-1.49-1.04-2.68-2.467-3.56-4.28-.88-1.84-1.32-3.933-1.32-6.28 0-2.347.44-4.427 1.32-6.24.88-1.84 2.07-3.28 3.56-4.32 1.52-1.067 3.24-1.6 5.16-1.6s3.64.533 5.16 1.6c1.52 1.04 2.71 2.48 3.56 4.32.88 1.813 1.32 3.893 1.32 6.24Zm-2.76 0c0-1.893-.31-3.56-.92-5-.61-1.44-1.47-2.56-2.56-3.36-1.09-.827-2.36-1.24-3.8-1.24s-2.71.413-3.8 1.24c-1.09.8-1.96 1.92-2.6 3.36-.61 1.44-.92 3.107-.92 5 0 1.893.31 3.56.92 5 .64 1.44 1.51 2.56 2.6 3.36 1.09.8 2.36 1.2 3.8 1.2s2.71-.4 3.8-1.2c1.09-.827 1.95-1.947 2.56-3.36.61-1.44.92-3.107.92-5Zm26.73 10.6 1.84.04v5.2h-1.84v-5.24Zm.16-.36v-25.44l1.52-.2v25.72l-1.52-.08Zm-.16-31.12h1.84v5.36l-1.84.2v-5.56Zm8.84 9.52a5.768 5.768 0 0 0-1.4-1.2 9.272 9.272 0 0 0-1.8-.96 11.69 11.69 0 0 0-2.12-.64c-.78-.16-1.59-.24-2.44-.24-2.48 0-4.31.48-5.48 1.44-1.15.933-1.72 2.213-1.72 3.84 0 1.12.28 2 .84 2.64.56.64 1.41 1.16 2.56 1.56 1.17.4 2.68.813 4.52 1.24 2 .427 3.73.933 5.2 1.52 1.49.587 2.62 1.387 3.4 2.4.8.987 1.2 2.333 1.2 4.04 0 1.307-.26 2.44-.76 3.4-.48.96-1.19 1.76-2.12 2.4-.91.64-1.99 1.12-3.24 1.44-1.26.293-2.63.44-4.12.44-1.44 0-2.84-.147-4.2-.44-1.36-.32-2.64-.773-3.84-1.36a16.822 16.822 0 0 1-3.36-2.32l1.4-2.28c.5.533 1.1 1.04 1.8 1.52.72.453 1.5.867 2.36 1.24.88.373 1.81.667 2.8.88 1.01.187 2.05.28 3.12.28 2.26 0 4.02-.413 5.28-1.24 1.28-.827 1.92-2.053 1.92-3.68 0-1.173-.32-2.107-.96-2.8-.62-.72-1.56-1.307-2.84-1.76-1.28-.453-2.87-.893-4.76-1.32-1.98-.453-3.64-.96-5-1.52-1.34-.56-2.35-1.293-3.04-2.2-.7-.933-1.04-2.16-1.04-3.68 0-1.76.42-3.24 1.28-4.44.88-1.227 2.08-2.147 3.6-2.76 1.54-.64 3.29-.96 5.24-.96 1.25 0 2.41.133 3.48.4 1.09.24 2.09.6 3 1.08.93.48 1.8 1.08 2.6 1.8l-1.36 2.24Zm29.28 15.76c0 1.413-.36 2.68-1.08 3.8-.72 1.093-1.69 1.96-2.92 2.6-1.2.613-2.52.92-3.96.92h-13.4v-28.4h13.68c1.34 0 2.48.36 3.44 1.08.99.693 1.74 1.6 2.24 2.72.54 1.093.8 2.24.8 3.44 0 1.413-.36 2.72-1.08 3.92a6.653 6.653 0 0 1-3 2.68c1.63.48 2.91 1.373 3.84 2.68.96 1.307 1.44 2.827 1.44 4.56Zm-2.8-.48c0-.96-.21-1.84-.64-2.64a5.239 5.239 0 0 0-1.76-2c-.72-.507-1.54-.76-2.48-.76h-10.88v10.76h10.6c.96 0 1.83-.253 2.6-.76a5.544 5.544 0 0 0 1.84-1.96c.48-.827.72-1.707.72-2.64Zm-15.76-18.16v10.48h9.76c.94 0 1.76-.24 2.48-.72.72-.507 1.3-1.16 1.72-1.96.43-.8.64-1.653.64-2.56 0-.96-.2-1.827-.6-2.6-.4-.8-.94-1.44-1.64-1.92-.69-.48-1.48-.72-2.36-.72h-10Zm32.06-2.44h2.36l11.8 28.4h-2.96l-3.68-8.88h-12.76l-3.64 8.88h-3l11.88-28.4Zm6.88 17.32-5.72-14.04-5.8 14.04h11.52Zm11.35 11.08v-28.4h12c1.22 0 2.34.253 3.36.76a8.38 8.38 0 0 1 2.64 2.08 8.967 8.967 0 0 1 1.76 2.88c.42 1.04.64 2.107.64 3.2 0 1.36-.27 2.64-.8 3.84a8.157 8.157 0 0 1-2.2 3.04c-.94.827-2.04 1.373-3.32 1.64l6.96 10.96h-3.16l-6.68-10.48h-8.4V360h-2.8Zm2.8-12.96h9.28c1.12 0 2.09-.307 2.92-.92.82-.613 1.46-1.413 1.92-2.4.45-1.013.68-2.08.68-3.2 0-1.147-.27-2.2-.8-3.16-.51-.987-1.2-1.773-2.08-2.36a4.846 4.846 0 0 0-2.88-.92h-9.04v12.96Zm23.33 12.96v-28.36h2.8v16.48l15.64-16.52h3.08l-11.6 12.48 12.2 15.92h-3.16l-10.84-14.24-5.32 5.52V360h-2.8ZM606.156 388.381c-48.718 0-98.357 56.763-98.357 112.474 0 .513 0 1.026.051 1.54.029 4.73.448 9.449 1.252 14.11l.144.708c0 .069.169.82.187.895a53.361 53.361 0 0 0 3.681 10.586c.372.9.79 1.779 1.253 2.636.657 1.252 1.32 2.504 2.109 3.756.789 1.252 1.584 2.46 2.235 3.324a25.681 25.681 0 0 0 2.047 2.623c8.596 10.155 20.897 15.977 33.75 15.977a43.404 43.404 0 0 0 27.545-9.867 37.622 37.622 0 0 1 19.025-8.683 40.287 40.287 0 0 1 10.08 0 37.845 37.845 0 0 1 19.313 8.827 43.306 43.306 0 0 0 27.382 9.735c13.729 0 26.538-6.479 35.058-17.654.414-.519.827-1.108 1.008-1.39.52-.732 1.039-1.452 1.753-2.541a87.471 87.471 0 0 0 2.154-3.844c.319-.626.626-1.309.851-1.784a53.317 53.317 0 0 0 4.238-11.745l.182-.87.194-.945a86.49 86.49 0 0 0 1.252-13.873c.038-.514.05-1.027.05-1.54-.056-55.692-49.719-112.455-98.437-112.455Zm83.081 126.459a39.538 39.538 0 0 1-3.237 8.846l-.676 1.44a97.282 97.282 0 0 1-1.572 2.83c-.406.707-.845 1.22-1.427 2.04l-.526.727c-5.928 7.775-14.668 12.239-23.977 12.239a29.255 29.255 0 0 1-18.411-6.505 51.82 51.82 0 0 0-26.369-11.907 51.335 51.335 0 0 0-13.854 0 51.613 51.613 0 0 0-26.1 11.788 29.38 29.38 0 0 1-18.568 6.636c-8.714 0-17.109-4.013-23.063-11.043a15.851 15.851 0 0 1-1.252-1.59 42.228 42.228 0 0 1-1.753-2.592c-.626-.995-1.127-1.997-1.809-3.293a5.314 5.314 0 0 1-.351-.739 8.504 8.504 0 0 0-.35-.857 38.36 38.36 0 0 1-2.773-7.813l-.232-1.127a69.894 69.894 0 0 1-1.033-11.863c0-.282 0-.946-.05-1.215 0-47.829 43.334-98.419 84.302-98.419 40.967 0 84.326 50.603 84.326 98.432v.381a7.493 7.493 0 0 0-.05.833c0 3.976-.339 7.945-1.014 11.863l-.181.908Z" fill="#1DA1F2"/>
  <path d="M689.21 514.847a39.522 39.522 0 0 1-3.212 8.84l-.676 1.439a92.718 92.718 0 0 1-1.571 2.83c-.407.708-.846 1.221-1.428 2.041l-.526.726c-5.928 7.776-14.668 12.239-23.977 12.239a29.26 29.26 0 0 1-18.411-6.504 51.814 51.814 0 0 0-26.369-11.908 51.335 51.335 0 0 0-13.854 0 51.607 51.607 0 0 0-26.099 11.789 29.38 29.38 0 0 1-18.569 6.636c-8.714 0-17.109-4.013-23.063-11.044a15.627 15.627 0 0 1-1.252-1.59 42.358 42.358 0 0 1-1.753-2.591c-.626-.996-1.126-1.998-1.809-3.293a5.308 5.308 0 0 1-.35-.739 8.77 8.77 0 0 0-.351-.858 38.377 38.377 0 0 1-2.773-7.813l-.232-1.127a69.876 69.876 0 0 1-1.033-11.863c0-.282 0-.945-.05-1.214 0-47.829 43.334-98.419 84.302-98.419 40.967 0 84.326 50.602 84.326 98.431v.382a7.464 7.464 0 0 0-.05.833c0 3.976-.339 7.945-1.014 11.863l-.206.914ZM493.718 346.218c-19.407 0-35.139 18.919-35.139 42.164 0 23.244 15.763 42.169 35.139 42.169 19.376 0 35.133-18.918 35.133-42.169 0-23.251-15.764-42.164-35.133-42.164Zm0 70.273c-11.626 0-21.085-12.609-21.085-28.109 0-15.501 9.459-28.091 21.085-28.091 11.625 0 21.078 12.615 21.078 28.109 0 15.495-9.434 28.091-21.078 28.091Z" fill="#1DA1F2"/>
  <path d="M514.797 388.382c0 15.5-9.453 28.109-21.078 28.109-11.626 0-21.085-12.609-21.085-28.109 0-15.501 9.459-28.09 21.085-28.09 11.625 0 21.078 12.595 21.078 28.09ZM563.992 290c-19.376 0-35.14 18.912-35.14 42.163 0 23.251 15.764 42.164 35.14 42.164 19.375 0 35.133-18.913 35.133-42.164S583.367 290 563.992 290Zm0 70.272c-11.626 0-21.085-12.608-21.085-28.109 0-15.5 9.459-28.109 21.085-28.109 11.625 0 21.078 12.615 21.078 28.109 0 15.495-9.453 28.128-21.078 28.128v-.019Z" fill="#1DA1F2"/>
  <path d="M585.07 332.164c0 15.501-9.453 28.109-21.078 28.109-11.626 0-21.066-12.608-21.066-28.109 0-15.501 9.459-28.109 21.085-28.109 11.625 0 21.059 12.615 21.059 28.109ZM648.319 290c-19.407 0-35.133 18.912-35.133 42.163 0 23.251 15.757 42.164 35.133 42.164 19.376 0 35.139-18.913 35.139-42.164S667.695 290 648.319 290Zm0 70.272c-11.625 0-21.078-12.608-21.078-28.109 0-15.5 9.453-28.109 21.078-28.109 11.626 0 21.066 12.615 21.066 28.109 0 15.495-9.44 28.128-21.066 28.128v-.019Z" fill="#1DA1F2"/>
  <path d="M669.384 332.164c0 15.501-9.46 28.109-21.085 28.109s-21.079-12.608-21.079-28.109c0-15.501 9.454-28.109 21.079-28.109s21.085 12.615 21.085 28.109ZM718.59 346.218c-19.369 0-35.133 18.919-35.133 42.164 0 23.244 15.764 42.169 35.133 42.169 19.37 0 35.139-18.918 35.139-42.169 0-23.251-15.763-42.164-35.139-42.164Zm0 70.273c-11.625 0-21.078-12.609-21.078-28.109 0-15.501 9.434-28.091 21.078-28.091s21.085 12.615 21.085 28.109c0 15.495-9.459 28.091-21.085 28.091Z" fill="#1DA1F2"/>
  <path d="M739.676 388.382c0 15.5-9.46 28.109-21.085 28.109-11.626 0-21.079-12.609-21.079-28.109 0-15.501 9.435-28.09 21.079-28.09s21.085 12.595 21.085 28.09Z" fill="#1DA1F2"/>
  <path d="M578.897 477.998c-2.129-.372-3.841-1.44-5.189-3.104-.808-.999-1.408-2.12-1.88-3.31-.782-1.971-1.248-3.999-1.061-6.138.239-2.733 1.419-4.991 3.529-6.726 2.648-2.176 5.713-3.077 9.126-2.728 1.452.147 2.798.629 3.97 1.521 1.434 1.091 2.235 2.58 2.593 4.309.342 1.656-.037 3.165-1.141 4.46-1.055 1.236-2.42 1.963-4.002 2.284-.97.198-1.94.214-2.879-.17-.185-.076-.362-.175-.582-.284 0 .149-.004.259 0 .369.06 1.633.806 2.889 2.114 3.84.125.091.2.079.317-.006.53-.385 1.052-.787 1.608-1.132 1.772-1.098 3.691-1.814 5.78-1.949 1.58-.103 3.168-.086 4.753-.121.175-.005.352 0 .532 0 .038-.274.067-.515.105-.755.207-1.331.679-2.586 1.138-3.842a37.05 37.05 0 0 1 2.651-5.726.683.683 0 0 0 .086-.417c-.075-.471-.19-.935-.275-1.404-.515-2.87-.909-5.752-.701-8.68.081-1.126.265-2.233.764-3.26.662-1.364 1.761-2.048 3.286-2.029 1.055.014 2.03.349 2.963.803 2.045.996 3.799 2.396 5.438 3.948.172.163.306.202.538.109 3.006-1.196 6.122-1.666 9.348-1.362 2.494.236 4.849.956 7.085 2.07.186.092.306.082.472-.051 1.442-1.16 2.961-2.207 4.635-3.012 1.216-.584 2.471-1.037 3.847-1.054 1.65-.02 2.894.819 3.451 2.37.501 1.395.53 2.846.429 4.299-.192 2.767-.782 5.463-1.573 8.113-.197.664-.197 1.212.103 1.859 1.074 2.317 1.8 4.757 2.389 7.238.347 1.464.439 2.939.211 4.431-.38 2.476-1.56 4.543-3.255 6.346-2.185 2.322-4.874 3.833-7.876 4.827-.832.276-1.685.494-2.54.741.094.022.184.046.274.065 2.295.474 4.598.911 6.836 1.625.806.258 1.592.561 2.29 1.054 1.003.71 1.436 1.689 1.208 2.878-.158.83-.463 1.633-.72 2.442-.363 1.149-1.158 1.922-2.208 2.463-1.509.778-3.148 1.08-4.811 1.276-2.168.256-4.345.248-6.522.159a.582.582 0 0 0-.489.202 17.768 17.768 0 0 1-4.096 3.176c-3.149 1.793-6.563 2.674-10.158 2.919-2.56.175-5.104-.006-7.623-.462-4.242-.768-8.319-2.036-12.1-4.155a.663.663 0 0 0-.446-.05 11.646 11.646 0 0 1-4.33.271c-3.154-.411-5.519-2.052-7.175-4.737-.108-.175-.201-.189-.384-.137-1 .285-1.998.585-3.011.822-1.271.296-2.558.516-3.875.367-1.028-.117-1.899-.471-2.386-1.48-.692-1.435-.567-2.871-.042-4.309.557-1.523 1.458-2.844 2.475-4.091 1.894-2.322 4.115-4.302 6.478-6.133.309-.239.623-.472.995-.754l-.487-.089v.001Z" fill="#fff"/>
  <path d="M563 317v-6c0-31.48-25.52-57-57-57H399.5M493.5 405v-6c0-31.48-25.52-57-57-57H330M648 317v-6c0-31.48 25.52-57 57-57h106.5M716 405v-6c0-31.48 25.52-57 57-57h106.5" stroke="#1DA1F2" stroke-width="5"/>
</svg>
