<svg fill="none" xmlns="http://www.w3.org/2000/svg" viewBox="0 0 468 95">
  <rect width="468" height="86" rx="43" fill="#1DA1F2"/>
  <path d="M54.1 42c0-2.167.367-4.283 1.1-6.35.767-2.1 1.867-4 3.3-5.7 1.433-1.733 3.2-3.1 5.3-4.1 2.1-1.033 4.483-1.55 7.15-1.55 3.167 0 5.867.733 8.1 2.2 2.267 1.433 3.933 3.283 5 5.55l-2.75 1.7c-.767-1.567-1.733-2.8-2.9-3.7-1.167-.933-2.417-1.6-3.75-2-1.3-.4-2.6-.6-3.9-.6-2.133 0-4.017.433-5.65 1.3a12.43 12.43 0 0 0-4.15 3.4 15.062 15.062 0 0 0-2.5 4.75c-.567 1.733-.85 3.5-.85 5.3 0 1.967.333 3.85 1 5.65.667 1.8 1.6 3.4 2.8 4.8 1.2 1.367 2.6 2.467 4.2 3.3 1.633.8 3.4 1.2 5.3 1.2 1.333 0 2.7-.233 4.1-.7 1.4-.467 2.7-1.183 3.9-2.15 1.233-.967 2.217-2.217 2.95-3.75l2.9 1.5c-.733 1.767-1.867 3.267-3.4 4.5a16.441 16.441 0 0 1-5.15 2.8c-1.867.633-3.7.95-5.5.95-2.433 0-4.667-.517-6.7-1.55a18.016 18.016 0 0 1-5.3-4.2 20.029 20.029 0 0 1-3.4-5.9c-.8-2.2-1.2-4.417-1.2-6.65Zm47.027 18.5c-1.866 0-3.6-.35-5.2-1.05a13.42 13.42 0 0 1-4.1-2.95 14.276 14.276 0 0 1-2.65-4.3 14.12 14.12 0 0 1-.95-5.15c0-1.867.317-3.6.95-5.2a13.06 13.06 0 0 1 2.7-4.3 12.392 12.392 0 0 1 4.1-2.95c1.6-.733 3.334-1.1 5.2-1.1 1.867 0 3.584.367 5.15 1.1a12.38 12.38 0 0 1 4.1 2.95 13.047 13.047 0 0 1 2.7 4.3c.634 1.6.95 3.333.95 5.2 0 1.8-.316 3.517-.95 5.15a13.77 13.77 0 0 1-2.7 4.3c-1.133 1.233-2.5 2.217-4.1 2.95-1.566.7-3.3 1.05-5.2 1.05Zm-9.45-13.4c0 1.933.417 3.7 1.25 5.3.867 1.567 2.017 2.817 3.45 3.75 1.434.9 3.017 1.35 4.75 1.35a8.522 8.522 0 0 0 4.75-1.4c1.434-.933 2.584-2.2 3.45-3.8.867-1.633 1.3-3.4 1.3-5.3 0-1.933-.433-3.7-1.3-5.3-.866-1.6-2.016-2.867-3.45-3.8a8.522 8.522 0 0 0-4.75-1.4 8.313 8.313 0 0 0-4.75 1.45c-1.4.967-2.533 2.25-3.4 3.85-.866 1.567-1.3 3.333-1.3 5.3Zm39.187 13.4c-1.867 0-3.6-.35-5.2-1.05a13.406 13.406 0 0 1-4.1-2.95 14.254 14.254 0 0 1-2.65-4.3 14.106 14.106 0 0 1-.95-5.15c0-1.867.316-3.6.95-5.2a13.047 13.047 0 0 1 2.7-4.3 12.38 12.38 0 0 1 4.1-2.95c1.6-.733 3.333-1.1 5.2-1.1 1.866 0 3.583.367 5.15 1.1a12.4 12.4 0 0 1 4.1 2.95 13.08 13.08 0 0 1 2.7 4.3c.633 1.6.95 3.333.95 5.2 0 1.8-.317 3.517-.95 5.15a13.806 13.806 0 0 1-2.7 4.3c-1.134 1.233-2.5 2.217-4.1 2.95-1.567.7-3.3 1.05-5.2 1.05Zm-9.45-13.4c0 1.933.416 3.7 1.25 5.3.866 1.567 2.016 2.817 3.45 3.75 1.433.9 3.016 1.35 4.75 1.35a8.527 8.527 0 0 0 4.75-1.4c1.433-.933 2.583-2.2 3.45-3.8.866-1.633 1.3-3.4 1.3-5.3 0-1.933-.434-3.7-1.3-5.3-.867-1.6-2.017-2.867-3.45-3.8a8.527 8.527 0 0 0-4.75-1.4 8.31 8.31 0 0 0-4.75 1.45c-1.4.967-2.534 2.25-3.4 3.85-.867 1.567-1.3 3.333-1.3 5.3ZM160.6 60.5c-1.867 0-3.6-.35-5.2-1.05a13.418 13.418 0 0 1-4.1-2.95 14.274 14.274 0 0 1-2.65-4.3 14.127 14.127 0 0 1-.95-5.15c0-1.867.317-3.6.95-5.2a13.047 13.047 0 0 1 2.7-4.3 12.39 12.39 0 0 1 4.1-2.95c1.6-.733 3.333-1.1 5.2-1.1s3.583.367 5.15 1.1a12.39 12.39 0 0 1 4.1 2.95 13.047 13.047 0 0 1 2.7 4.3c.633 1.6.95 3.333.95 5.2 0 1.8-.317 3.517-.95 5.15a13.77 13.77 0 0 1-2.7 4.3c-1.133 1.233-2.5 2.217-4.1 2.95-1.567.7-3.3 1.05-5.2 1.05Zm-9.45-13.4c0 1.933.417 3.7 1.25 5.3.867 1.567 2.017 2.817 3.45 3.75 1.433.9 3.017 1.35 4.75 1.35a8.524 8.524 0 0 0 4.75-1.4c1.433-.933 2.583-2.2 3.45-3.8.867-1.633 1.3-3.4 1.3-5.3 0-1.933-.433-3.7-1.3-5.3-.867-1.6-2.017-2.867-3.45-3.8a8.524 8.524 0 0 0-4.75-1.4 8.313 8.313 0 0 0-4.75 1.45c-1.4.967-2.533 2.25-3.4 3.85-.867 1.567-1.3 3.333-1.3 5.3Zm28.236-23.6h3.4v30.6c0 1.3.234 2.15.7 2.55.467.4 1.034.6 1.7.6.6 0 1.2-.067 1.8-.2a20.36 20.36 0 0 0 1.55-.4l.6 2.75c-.633.267-1.416.483-2.35.65-.9.167-1.683.25-2.35.25-1.533 0-2.766-.45-3.7-1.35-.9-.9-1.35-2.133-1.35-3.7V23.5Zm14.323 25.1V24.15h3.4V48.6h-3.4Zm0 11.4v-5.6h3.4V60h-3.4Zm12.598-11.4V24.15h3.4V48.6h-3.4Zm0 11.4v-5.6h3.4V60h-3.4Zm36.784-35.25h3.3l5 12.6 5.05-12.6h3.35l-6.2 15.15 6.8 16.05 12.85-31.45h3.8L261.991 60h-3.1l-7.45-17.55-7.5 17.55h-3.05l-15-35.5h3.75l12.9 31.45 6.75-16.05-6.2-15.15Zm62.795 32.15V60h-23.85V24.5h23.4v3.1h-19.9v12.8h17.35v2.95h-17.35V56.9h20.35Zm10.119-25.95V60h-3.5V24.5h2.9l23.3 29.6V24.55h3.5V60h-3.25l-22.95-29.05Zm38.373 18.95c0-1.467.15-2.717.45-3.75.333-1.067.8-1.983 1.4-2.75.633-.767 1.433-1.433 2.4-2 .633-.4 1.35-.817 2.15-1.25.833-.433 1.6-.933 2.3-1.5a7.476 7.476 0 0 0 1.8-2.15c.466-.867.7-1.9.7-3.1 0-1.467-.334-2.667-1-3.6a5.79 5.79 0 0 0-2.5-2.15 7.483 7.483 0 0 0-3.3-.75 8.266 8.266 0 0 0-3.35.7 8.921 8.921 0 0 0-2.75 1.8 9.847 9.847 0 0 0-1.95 2.6l-2.35-1.5a10.77 10.77 0 0 1 2.55-3.5 11.59 11.59 0 0 1 3.7-2.2 12.13 12.13 0 0 1 4.2-.75c1.233 0 2.433.2 3.6.6 1.166.367 2.2.95 3.1 1.75.933.8 1.666 1.8 2.2 3 .566 1.167.85 2.567.85 4.2 0 1.333-.184 2.467-.55 3.4a7.058 7.058 0 0 1-1.55 2.35c-.634.633-1.35 1.2-2.15 1.7-.8.5-1.634.983-2.5 1.45-.767.433-1.5.917-2.2 1.45-.7.533-1.267 1.267-1.7 2.2-.434.9-.65 2.15-.65 3.75h-2.9Zm.05 10.1v-5.35h2.95V60h-2.95Zm23.729-10.1c0-1.467.15-2.717.45-3.75.333-1.067.8-1.983 1.4-2.75.633-.767 1.433-1.433 2.4-2 .633-.4 1.35-.817 2.15-1.25.833-.433 1.6-.933 2.3-1.5a7.476 7.476 0 0 0 1.8-2.15c.467-.867.7-1.9.7-3.1 0-1.467-.333-2.667-1-3.6a5.783 5.783 0 0 0-2.5-2.15 7.477 7.477 0 0 0-3.3-.75 8.27 8.27 0 0 0-3.35.7 8.933 8.933 0 0 0-2.75 1.8 9.847 9.847 0 0 0-1.95 2.6l-2.35-1.5a10.77 10.77 0 0 1 2.55-3.5 11.59 11.59 0 0 1 3.7-2.2c1.367-.5 2.767-.75 4.2-.75 1.233 0 2.433.2 3.6.6 1.167.367 2.2.95 3.1 1.75.933.8 1.667 1.8 2.2 3 .567 1.167.85 2.567.85 4.2 0 1.333-.183 2.467-.55 3.4a7.043 7.043 0 0 1-1.55 2.35c-.633.633-1.35 1.2-2.15 1.7-.8.5-1.633.983-2.5 1.45-.767.433-1.5.917-2.2 1.45-.7.533-1.267 1.267-1.7 2.2-.433.9-.65 2.15-.65 3.75h-2.9Zm.05 10.1v-5.35h2.95V60h-2.95Z" fill="#fff"/>
  <path d="M80.2 95 75 86h13l-7.8 9Z" fill="#1DA1F2"/>
</svg>
