<svg fill="none" xmlns="http://www.w3.org/2000/svg" viewBox="0 0 468 95">
  <rect width="468" height="86" rx="43" fill="#1DA1F2"/>
  <path d="M69.8 24.75h3.3l5 12.6 5.05-12.6h3.35L80.3 39.9l6.8 16.05L99.95 24.5h3.8L88.7 60h-3.1l-7.45-17.55L70.65 60H67.6l-15-35.5h3.75l12.9 31.45L76 39.9l-6.2-15.15ZM129.945 60h-3.4V45.45c0-2.933-.517-5.133-1.55-6.6-1.033-1.5-2.517-2.25-4.45-2.25-1.267 0-2.533.333-3.8 1-1.233.633-2.333 1.517-3.3 2.65a9.922 9.922 0 0 0-2 3.8V60h-3.4V23.5h3.4v16.35c1.033-1.933 2.467-3.467 4.3-4.6 1.867-1.167 3.85-1.75 5.95-1.75 1.5 0 2.767.267 3.8.8a6.18 6.18 0 0 1 2.55 2.35c.667 1 1.15 2.183 1.45 3.55.3 1.333.45 2.85.45 4.55V60Zm5.15-7.5c0-1.633.467-3.033 1.4-4.2.934-1.2 2.217-2.117 3.85-2.75 1.667-.667 3.584-1 5.75-1 1.267 0 2.584.1 3.95.3 1.367.2 2.584.5 3.65.9v-2.2c0-2.2-.65-3.95-1.95-5.25-1.3-1.3-3.1-1.95-5.4-1.95-1.4 0-2.783.267-4.15.8-1.333.5-2.733 1.25-4.2 2.25l-1.3-2.4c1.7-1.167 3.367-2.033 5-2.6 1.634-.6 3.3-.9 5-.9 3.2 0 5.734.917 7.6 2.75 1.867 1.833 2.8 4.367 2.8 7.6V55.9c0 .467.1.817.3 1.05.2.2.517.317.95.35V60c-.366.033-.683.067-.95.1-.266.033-.466.033-.6 0-.833-.033-1.466-.3-1.9-.8-.433-.5-.666-1.033-.7-1.6l-.05-1.9c-1.166 1.5-2.683 2.667-4.55 3.5-1.866.8-3.766 1.2-5.7 1.2-1.666 0-3.183-.35-4.55-1.05-1.333-.733-2.383-1.7-3.15-2.9a7.783 7.783 0 0 1-1.1-4.05Zm17.45 2a6.87 6.87 0 0 0 .85-1.35c.2-.433.3-.817.3-1.15v-3.8a20.66 20.66 0 0 0-3.55-1c-1.2-.233-2.416-.35-3.65-.35-2.433 0-4.4.483-5.9 1.45s-2.25 2.283-2.25 3.95c0 .967.25 1.883.75 2.75.5.833 1.234 1.533 2.2 2.1.967.533 2.1.8 3.4.8 1.634 0 3.15-.317 4.55-.95 1.434-.633 2.534-1.45 3.3-2.45Zm24.201 4.25c-.267.1-.683.283-1.25.55-.567.267-1.25.5-2.05.7-.8.2-1.667.3-2.6.3a6.985 6.985 0 0 1-2.75-.55 4.622 4.622 0 0 1-2-1.65c-.5-.767-.75-1.7-.75-2.8V36.65h-3.6v-2.7h3.6v-8.8h3.4v8.8h6v2.7h-6v17.7c.067.933.4 1.633 1 2.1.633.467 1.35.7 2.15.7.933 0 1.783-.15 2.55-.45.767-.333 1.233-.567 1.4-.7l.9 2.75ZM193.738 60V33.95h3.4V60h-3.4Zm0-31.5v-5h3.4v5h-3.4Zm19.439 32c-2.133 0-4.117-.35-5.95-1.05a12.486 12.486 0 0 1-4.75-3.2l1.4-2.4c1.467 1.367 2.933 2.367 4.4 3 1.5.6 3.083.9 4.75.9 2.033 0 3.683-.4 4.95-1.2 1.267-.833 1.9-2.017 1.9-3.55 0-1.033-.317-1.817-.95-2.35-.6-.567-1.483-1.017-2.65-1.35-1.133-.367-2.5-.75-4.1-1.15-1.8-.5-3.317-1.017-4.55-1.55-1.2-.567-2.117-1.267-2.75-2.1-.6-.867-.9-1.983-.9-3.35 0-1.7.417-3.1 1.25-4.2.867-1.133 2.033-1.983 3.5-2.55 1.5-.6 3.167-.9 5-.9 2 0 3.767.317 5.3.95s2.783 1.517 3.75 2.65l-1.65 2.3a8.4 8.4 0 0 0-3.35-2.35c-1.267-.533-2.683-.8-4.25-.8-1.067 0-2.083.15-3.05.45-.967.267-1.767.733-2.4 1.4-.6.633-.9 1.517-.9 2.65 0 .933.233 1.667.7 2.2.467.5 1.167.933 2.1 1.3a63.5 63.5 0 0 0 3.45 1.1c1.967.533 3.683 1.083 5.15 1.65 1.467.533 2.6 1.233 3.4 2.1.8.867 1.2 2.083 1.2 3.65 0 2.433-.917 4.333-2.75 5.7s-4.25 2.05-7.25 2.05Zm55.764-9.65c0 1.767-.45 3.35-1.35 4.75-.9 1.367-2.117 2.45-3.65 3.25-1.5.767-3.15 1.15-4.95 1.15h-16.75V24.5h17.1c1.667 0 3.1.45 4.3 1.35 1.233.867 2.167 2 2.8 3.4.667 1.367 1 2.8 1 4.3 0 1.767-.45 3.4-1.35 4.9a8.313 8.313 0 0 1-3.75 3.35c2.033.6 3.633 1.717 4.8 3.35 1.2 1.633 1.8 3.533 1.8 5.7Zm-3.5-.6c0-1.2-.267-2.3-.8-3.3a6.654 6.654 0 0 0-2.2-2.5c-.9-.633-1.933-.95-3.1-.95h-13.6v13.45h13.25c1.2 0 2.283-.317 3.25-.95a7.039 7.039 0 0 0 2.3-2.45c.6-1.033.9-2.133.9-3.3Zm-19.7-22.7v13.1h12.2c1.167 0 2.2-.3 3.1-.9a6.938 6.938 0 0 0 2.15-2.45c.533-1 .8-2.067.8-3.2 0-1.2-.25-2.283-.75-3.25-.5-1-1.183-1.8-2.05-2.4-.867-.6-1.85-.9-2.95-.9h-12.5Zm27.001 24.95c0-1.633.466-3.033 1.4-4.2.933-1.2 2.216-2.117 3.85-2.75 1.666-.667 3.583-1 5.75-1 1.266 0 2.583.1 3.95.3 1.366.2 2.583.5 3.65.9v-2.2c0-2.2-.65-3.95-1.95-5.25-1.3-1.3-3.1-1.95-5.4-1.95-1.4 0-2.784.267-4.15.8-1.334.5-2.734 1.25-4.2 2.25l-1.3-2.4c1.7-1.167 3.366-2.033 5-2.6 1.633-.6 3.3-.9 5-.9 3.2 0 5.733.917 7.6 2.75 1.866 1.833 2.8 4.367 2.8 7.6V55.9c0 .467.1.817.3 1.05.2.2.516.317.95.35V60a28.59 28.59 0 0 0-.95.1c-.267.033-.467.033-.6 0-.834-.033-1.467-.3-1.9-.8-.434-.5-.667-1.033-.7-1.6l-.05-1.9c-1.167 1.5-2.684 2.667-4.55 3.5-1.867.8-3.767 1.2-5.7 1.2-1.667 0-3.184-.35-4.55-1.05-1.334-.733-2.384-1.7-3.15-2.9a7.773 7.773 0 0 1-1.1-4.05Zm17.45 2c.366-.467.65-.917.85-1.35.2-.433.3-.817.3-1.15v-3.8a20.71 20.71 0 0 0-3.55-1c-1.2-.233-2.417-.35-3.65-.35-2.434 0-4.4.483-5.9 1.45s-2.25 2.283-2.25 3.95c0 .967.25 1.883.75 2.75.5.833 1.233 1.533 2.2 2.1.966.533 2.1.8 3.4.8 1.633 0 3.15-.317 4.55-.95 1.433-.633 2.533-1.45 3.3-2.45Zm24.896-17.55c-2.267.067-4.267.7-6 1.9-1.7 1.2-2.9 2.85-3.6 4.95V60h-3.4V33.95h3.2v6.25c.9-1.833 2.083-3.317 3.55-4.45 1.5-1.133 3.083-1.767 4.75-1.9.333-.033.617-.05.85-.05.267 0 .483.017.65.05v3.1ZM338.217 60l-9.65-13.35-5.55 5.2V60h-3.4V23.5h3.4v24.7l14.75-14.2h3.75l-10.65 10.65L341.917 60h-3.7Zm17.797.5c-1.867 0-3.6-.35-5.2-1.05a13.236 13.236 0 0 1-4.15-2.95 14.37 14.37 0 0 1-2.75-4.35c-.634-1.633-.95-3.383-.95-5.25 0-2.433.55-4.667 1.65-6.7a12.988 12.988 0 0 1 4.65-4.85c1.966-1.233 4.2-1.85 6.7-1.85 2.566 0 4.8.617 6.7 1.85a13.123 13.123 0 0 1 4.55 4.9c1.1 2 1.65 4.2 1.65 6.6v.8c0 .233-.017.417-.05.55h-22.3c.166 1.867.683 3.533 1.55 5 .9 1.433 2.05 2.583 3.45 3.45a9.092 9.092 0 0 0 4.65 1.25c1.7 0 3.3-.433 4.8-1.3 1.533-.867 2.6-2 3.2-3.4l2.95.8c-.534 1.233-1.35 2.35-2.45 3.35s-2.4 1.783-3.9 2.35c-1.467.533-3.05.8-4.75.8Zm-9.6-14.75h19.25c-.134-1.9-.65-3.567-1.55-5a9.242 9.242 0 0 0-3.45-3.35c-1.4-.833-2.95-1.25-4.65-1.25-1.7 0-3.25.417-4.65 1.25-1.4.8-2.55 1.933-3.45 3.4-.867 1.433-1.367 3.083-1.5 4.95Zm40.695-8.8c-2.266.067-4.266.7-6 1.9-1.7 1.2-2.9 2.85-3.6 4.95V60h-3.4V33.95h3.2v6.25c.9-1.833 2.084-3.317 3.55-4.45 1.5-1.133 3.084-1.767 4.75-1.9.334-.033.617-.05.85-.05.267 0 .484.017.65.05v3.1Zm8.48 12.95c0-1.467.15-2.717.45-3.75.333-1.067.8-1.983 1.4-2.75.633-.767 1.433-1.433 2.4-2 .633-.4 1.35-.817 2.15-1.25.833-.433 1.6-.933 2.3-1.5a7.476 7.476 0 0 0 1.8-2.15c.466-.867.7-1.9.7-3.1 0-1.467-.334-2.667-1-3.6a5.79 5.79 0 0 0-2.5-2.15 7.483 7.483 0 0 0-3.3-.75 8.266 8.266 0 0 0-3.35.7 8.921 8.921 0 0 0-2.75 1.8 9.847 9.847 0 0 0-1.95 2.6l-2.35-1.5a10.77 10.77 0 0 1 2.55-3.5 11.59 11.59 0 0 1 3.7-2.2 12.13 12.13 0 0 1 4.2-.75c1.233 0 2.433.2 3.6.6 1.166.367 2.2.95 3.1 1.75.933.8 1.666 1.8 2.2 3 .566 1.167.85 2.567.85 4.2 0 1.333-.184 2.467-.55 3.4a7.058 7.058 0 0 1-1.55 2.35c-.634.633-1.35 1.2-2.15 1.7-.8.5-1.634.983-2.5 1.45-.767.433-1.5.917-2.2 1.45-.7.533-1.267 1.267-1.7 2.2-.434.9-.65 2.15-.65 3.75h-2.9Zm.05 10.1v-5.35h2.95V60h-2.95Z" fill="#fff"/>
  <path d="m284.2 95-5.2-9h13l-7.8 9Z" fill="#1DA1F2"/>
</svg>
